AnekTelugu-CondensedThin.ufo
<glyph name="comma" format="2">
  <advance width="212"/>
  <unicode hex="002C"/>
  <outline>
    <contour>
      <point x="125" y="206" type="curve"/>
      <point x="88" y="206" type="line"/>
      <point x="93" y="169"/>
      <point x="97" y="129"/>
      <point x="97" y="90" type="curve" smooth="yes"/>
      <point x="97" y="-37"/>
      <point x="66" y="-145"/>
      <point x="12" y="-237" type="curve"/>
      <point x="31" y="-263" type="line"/>
      <point x="104" y="-155"/>
      <point x="134" y="-42"/>
      <point x="134" y="90" type="curve" smooth="yes"/>
      <point x="134" y="140"/>
      <point x="128" y="188"/>
    </contour>
  </outline>
</glyph>
<glyph name="greater" format="2">
  <advance width="674"/>
  <unicode hex="003E"/>
  <outline>
    <contour>
      <point x="583" y="643" type="line"/>
      <point x="583" y="630" type="line"/>
      <point x="127" y="466" type="line"/>
      <point x="127" y="431" type="line"/>
      <point x="613" y="606" type="line"/>
      <point x="613" y="667" type="line"/>
      <point x="127" y="842" type="line"/>
      <point x="127" y="807" type="line"/>
    </contour>
  </outline>
</glyph>
<glyph name="gravecomb" format="2">
  <unicode hex="0300"/>
  <anchor x="248" y="990" name="_top"/>
  <anchor x="182" y="1268" name="top"/>
  <outline>
    <contour>
      <point x="142" y="1331" type="line"/>
      <point x="100" y="1331" type="line"/>
      <point x="100" y="1331" type="line"/>
      <point x="231" y="1108" type="line"/>
      <point x="264" y="1108" type="line"/>
      <point x="264" y="1108" type="line"/>
    </contour>
  </outline>
</glyph>
<glyph name="Candrabindu_above.te" format="2">
  <unicode hex="0C00"/>
  <outline>
    <contour>
      <point x="-311" y="1305" type="curve" smooth="yes"/>
      <point x="-182" y="1305"/>
      <point x="-122" y="1365"/>
      <point x="-122" y="1470" type="curve" smooth="yes"/>
      <point x="-122" y="1472" type="line"/>
      <point x="-156" y="1472" type="line"/>
      <point x="-158" y="1389"/>
      <point x="-191" y="1338"/>
      <point x="-311" y="1338" type="curve" smooth="yes"/>
      <point x="-431" y="1338"/>
      <point x="-464" y="1389"/>
      <point x="-466" y="1472" type="curve"/>
      <point x="-500" y="1472" type="line"/>
      <point x="-500" y="1470" type="line" smooth="yes"/>
      <point x="-500" y="1365"/>
      <point x="-440" y="1305"/>
    </contour>
    <contour>
      <point x="-311" y="1419" type="curve" smooth="yes"/>
      <point x="-296" y="1419"/>
      <point x="-291" y="1426"/>
      <point x="-291" y="1478" type="curve" smooth="yes"/>
      <point x="-291" y="1529"/>
      <point x="-296" y="1536"/>
      <point x="-311" y="1536" type="curve" smooth="yes"/>
      <point x="-326" y="1536"/>
      <point x="-331" y="1529"/>
      <point x="-331" y="1478" type="curve" smooth="yes"/>
      <point x="-331" y="1426"/>
      <point x="-326" y="1419"/>
    </contour>
  </outline>
</glyph>
<glyph name="Candrabindu.te" format="2">
  <advance width="440"/>
  <unicode hex="0C01"/>
  <outline>
    <contour>
      <point x="357" y="-4" type="curve" smooth="yes"/>
      <point x="364" y="-4" type="line"/>
      <point x="370" y="29" type="line"/>
      <point x="357" y="29" type="line" smooth="yes"/>
      <point x="216" y="29"/>
      <point x="147" y="126"/>
      <point x="147" y="327" type="curve" smooth="yes"/>
      <point x="147" y="861" type="line" smooth="yes"/>
      <point x="147" y="1062"/>
      <point x="216" y="1159"/>
      <point x="357" y="1159" type="curve" smooth="yes"/>
      <point x="370" y="1159" type="line"/>
      <point x="364" y="1192" type="line"/>
      <point x="357" y="1192" type="line" smooth="yes"/>
      <point x="192" y="1192"/>
      <point x="110" y="1084"/>
      <point x="110" y="861" type="curve" smooth="yes"/>
      <point x="110" y="327" type="line" smooth="yes"/>
      <point x="110" y="104"/>
      <point x="192" y="-4"/>
    </contour>
  </outline>
</glyph>
<glyph name="Visarga.te" format="2">
  <advance width="508"/>
  <unicode hex="0C03"/>
  <outline>
    <contour>
      <point x="254" y="646" type="curve" smooth="yes"/>
      <point x="356" y="646"/>
      <point x="408" y="708"/>
      <point x="408" y="837" type="curve"/>
      <point x="408" y="992" type="line"/>
      <point x="408" y="1121"/>
      <point x="356" y="1183"/>
      <point x="254" y="1183" type="curve" smooth="yes"/>
      <point x="152" y="1183"/>
      <point x="100" y="1121"/>
      <point x="100" y="992" type="curve"/>
      <point x="100" y="837" type="line"/>
      <point x="100" y="708"/>
      <point x="152" y="646"/>
    </contour>
    <contour>
      <point x="254" y="-11" type="curve" smooth="yes"/>
      <point x="356" y="-11"/>
      <point x="408" y="51"/>
      <point x="408" y="180" type="curve"/>
      <point x="408" y="335" type="line"/>
      <point x="408" y="464"/>
      <point x="356" y="526"/>
      <point x="254" y="526" type="curve" smooth="yes"/>
      <point x="152" y="526"/>
      <point x="100" y="464"/>
      <point x="100" y="335" type="curve"/>
      <point x="100" y="180" type="line"/>
      <point x="100" y="51"/>
      <point x="152" y="-11"/>
    </contour>
    <contour>
      <point x="254" y="22" type="curve" smooth="yes"/>
      <point x="176" y="22"/>
      <point x="137" y="73"/>
      <point x="137" y="180" type="curve"/>
      <point x="137" y="335" type="line"/>
      <point x="137" y="442"/>
      <point x="176" y="493"/>
      <point x="254" y="493" type="curve" smooth="yes"/>
      <point x="332" y="493"/>
      <point x="371" y="442"/>
      <point x="371" y="335" type="curve"/>
      <point x="371" y="180" type="line"/>
      <point x="371" y="73"/>
      <point x="332" y="22"/>
    </contour>
    <contour>
      <point x="254" y="679" type="curve" smooth="yes"/>
      <point x="176" y="679"/>
      <point x="137" y="730"/>
      <point x="137" y="837" type="curve"/>
      <point x="137" y="992" type="line"/>
      <point x="137" y="1099"/>
      <point x="176" y="1150"/>
      <point x="254" y="1150" type="curve" smooth="yes"/>
      <point x="332" y="1150"/>
      <point x="371" y="1099"/>
      <point x="371" y="992" type="curve"/>
      <point x="371" y="837" type="line"/>
      <point x="371" y="730"/>
      <point x="332" y="679"/>
    </contour>
  </outline>
</glyph>
<glyph name="vowelAa.te" format="2">
  <advance width="880"/>
  <unicode hex="0C06"/>
  <outline>
    <contour>
      <point x="440" y="-11" type="curve" smooth="yes"/>
      <point x="665" y="-11"/>
      <point x="770" y="123"/>
      <point x="770" y="407" type="curve" smooth="yes"/>
      <point x="770" y="591" type="line"/>
      <point x="694" y="591" type="line"/>
      <point x="694" y="592" type="line"/>
      <point x="746" y="635"/>
      <point x="770" y="710"/>
      <point x="770" y="822" type="curve" smooth="yes"/>
      <point x="770" y="964" type="line" smooth="yes"/>
      <point x="770" y="1110"/>
      <point x="717" y="1183"/>
      <point x="604" y="1183" type="curve" smooth="yes"/>
      <point x="491" y="1183"/>
      <point x="438" y="1110"/>
      <point x="438" y="964" type="curve" smooth="yes"/>
      <point x="438" y="822" type="line" smooth="yes"/>
      <point x="438" y="710"/>
      <point x="462" y="635"/>
      <point x="513" y="592" type="curve"/>
      <point x="513" y="591" type="line"/>
      <point x="270" y="591" type="line"/>
      <point x="276" y="558" type="line"/>
      <point x="733" y="558" type="line"/>
      <point x="733" y="410" type="line" smooth="yes"/>
      <point x="733" y="145"/>
      <point x="641" y="22"/>
      <point x="440" y="22" type="curve" smooth="yes"/>
      <point x="239" y="22"/>
      <point x="147" y="145"/>
      <point x="147" y="410" type="curve" smooth="yes"/>
      <point x="147" y="898" type="line" smooth="yes"/>
      <point x="147" y="1062"/>
      <point x="199" y="1141"/>
      <point x="305" y="1141" type="curve"/>
      <point x="307" y="1141" type="line"/>
      <point x="302" y="1174" type="line"/>
      <point x="298" y="1174" type="line"/>
      <point x="177" y="1174"/>
      <point x="110" y="1080"/>
      <point x="110" y="900" type="curve" smooth="yes"/>
      <point x="110" y="407" type="line" smooth="yes"/>
      <point x="110" y="123"/>
      <point x="215" y="-11"/>
    </contour>
    <contour>
      <point x="552" y="592" type="line"/>
      <point x="491" y="644"/>
      <point x="475" y="719"/>
      <point x="475" y="822" type="curve" smooth="yes"/>
      <point x="475" y="962" type="line" smooth="yes"/>
      <point x="475" y="1089"/>
      <point x="515" y="1150"/>
      <point x="604" y="1150" type="curve" smooth="yes"/>
      <point x="693" y="1150"/>
      <point x="733" y="1089"/>
      <point x="733" y="962" type="curve" smooth="yes"/>
      <point x="733" y="822" type="line" smooth="yes"/>
      <point x="733" y="719"/>
      <point x="717" y="644"/>
      <point x="655" y="592" type="curve"/>
    </contour>
  </outline>
</glyph>
<glyph name="vowelI.te" format="2">
  <advance width="837"/>
  <unicode hex="0C07"/>
  <outline>
    <contour>
      <point x="392" y="-11" type="curve" smooth="yes"/>
      <point x="583" y="-11"/>
      <point x="729" y="142"/>
      <point x="729" y="454" type="curve" smooth="yes"/>
      <point x="729" y="960" type="line" smooth="yes"/>
      <point x="729" y="1110"/>
      <point x="670" y="1183"/>
      <point x="560" y="1183" type="curve" smooth="yes"/>
      <point x="451" y="1183"/>
      <point x="410" y="1104"/>
      <point x="405" y="1040" type="curve"/>
      <point x="403" y="1040" type="line"/>
      <point x="398" y="1104"/>
      <point x="359" y="1183"/>
      <point x="250" y="1183" type="curve" smooth="yes"/>
      <point x="144" y="1183"/>
      <point x="85" y="1110"/>
      <point x="85" y="964" type="curve" smooth="yes"/>
      <point x="85" y="859" type="line" smooth="yes"/>
      <point x="85" y="786"/>
      <point x="94" y="721"/>
      <point x="112" y="677" type="curve"/>
      <point x="151" y="677" type="line"/>
      <point x="133" y="721"/>
      <point x="122" y="789"/>
      <point x="122" y="859" type="curve" smooth="yes"/>
      <point x="122" y="960" type="line" smooth="yes"/>
      <point x="122" y="1086"/>
      <point x="162" y="1150"/>
      <point x="252" y="1150" type="curve" smooth="yes"/>
      <point x="344" y="1150"/>
      <point x="383" y="1084"/>
      <point x="385" y="960" type="curve" smooth="yes"/>
      <point x="388" y="716" type="line"/>
      <point x="420" y="716" type="line"/>
      <point x="423" y="960" type="line" smooth="yes"/>
      <point x="425" y="1084"/>
      <point x="466" y="1150"/>
      <point x="558" y="1150" type="curve" smooth="yes"/>
      <point x="652" y="1150"/>
      <point x="692" y="1086"/>
      <point x="692" y="957" type="curve" smooth="yes"/>
      <point x="692" y="454" type="line" smooth="yes"/>
      <point x="692" y="356"/>
      <point x="683" y="285"/>
      <point x="663" y="232" type="curve"/>
      <point x="661" y="223" type="line"/>
      <point x="611" y="92"/>
      <point x="521" y="22"/>
      <point x="392" y="22" type="curve" smooth="yes"/>
      <point x="250" y="22"/>
      <point x="169" y="95"/>
      <point x="169" y="224" type="curve" smooth="yes"/>
      <point x="169" y="236" type="line" smooth="yes"/>
      <point x="169" y="364"/>
      <point x="249" y="438"/>
      <point x="385" y="438" type="curve" smooth="yes"/>
      <point x="523" y="438"/>
      <point x="613" y="362"/>
      <point x="659" y="190" type="curve"/>
      <point x="663" y="177" type="line"/>
      <point x="683" y="98"/>
      <point x="692" y="15"/>
      <point x="696" y="-79" type="curve"/>
      <point x="732" y="-79" type="line"/>
      <point x="722" y="40"/>
      <point x="714" y="122"/>
      <point x="681" y="215" type="curve" smooth="yes"/>
      <point x="677" y="226" type="line"/>
      <point x="633" y="392"/>
      <point x="532" y="471"/>
      <point x="385" y="471" type="curve" smooth="yes"/>
      <point x="224" y="471"/>
      <point x="133" y="386"/>
      <point x="133" y="237" type="curve" smooth="yes"/>
      <point x="133" y="223" type="line" smooth="yes"/>
      <point x="133" y="78"/>
      <point x="228" y="-11"/>
    </contour>
  </outline>
</glyph>
<glyph name="vowelIi.te" format="2">
  <advance width="1172"/>
  <unicode hex="0C08"/>
  <outline>
    <contour>
      <point x="909" y="-11" type="curve" smooth="yes"/>
      <point x="1012" y="-11"/>
      <point x="1062" y="55"/>
      <point x="1062" y="191" type="curve" smooth="yes"/>
      <point x="1062" y="362" type="line" smooth="yes"/>
      <point x="1062" y="484"/>
      <point x="1051" y="543"/>
      <point x="973" y="618" type="curve"/>
      <point x="972" y="622"/>
      <point x="959" y="631"/>
      <point x="953" y="631" type="curve" smooth="yes"/>
      <point x="572" y="631" type="line"/>
      <point x="565" y="631" type="line"/>
      <point x="149" y="631" type="line"/>
      <point x="142" y="631" type="line"/>
      <point x="55" y="631" type="line"/>
      <point x="55" y="598" type="line"/>
      <point x="142" y="598" type="line"/>
      <point x="147" y="598" type="line"/>
      <point x="565" y="598" type="line"/>
      <point x="572" y="598" type="line"/>
      <point x="822" y="598" type="line"/>
      <point x="767" y="535"/>
      <point x="754" y="484"/>
      <point x="754" y="362" type="curve" smooth="yes"/>
      <point x="754" y="191" type="line" smooth="yes"/>
      <point x="754" y="55"/>
      <point x="806" y="-11"/>
    </contour>
    <contour>
      <point x="359" y="-11" type="curve" smooth="yes"/>
      <point x="510" y="-11"/>
      <point x="589" y="90"/>
      <point x="589" y="285" type="curve" smooth="yes"/>
      <point x="589" y="880" type="line" smooth="yes"/>
      <point x="589" y="1075"/>
      <point x="510" y="1176"/>
      <point x="359" y="1176" type="curve" smooth="yes"/>
      <point x="208" y="1176"/>
      <point x="129" y="1075"/>
      <point x="129" y="880" type="curve" smooth="yes"/>
      <point x="129" y="285" type="line" smooth="yes"/>
      <point x="129" y="90"/>
      <point x="208" y="-11"/>
    </contour>
    <contour>
      <point x="359" y="22" type="curve" smooth="yes"/>
      <point x="232" y="22"/>
      <point x="166" y="112"/>
      <point x="166" y="285" type="curve" smooth="yes"/>
      <point x="166" y="878" type="line" smooth="yes"/>
      <point x="166" y="1055"/>
      <point x="232" y="1145"/>
      <point x="359" y="1145" type="curve" smooth="yes"/>
      <point x="486" y="1145"/>
      <point x="552" y="1055"/>
      <point x="552" y="878" type="curve" smooth="yes"/>
      <point x="552" y="285" type="line" smooth="yes"/>
      <point x="552" y="112"/>
      <point x="486" y="22"/>
    </contour>
    <contour>
      <point x="909" y="22" type="curve" smooth="yes"/>
      <point x="828" y="22"/>
      <point x="791" y="77"/>
      <point x="791" y="193" type="curve" smooth="yes"/>
      <point x="791" y="359" type="line" smooth="yes"/>
      <point x="791" y="477"/>
      <point x="799" y="535"/>
      <point x="863" y="598" type="curve"/>
      <point x="953" y="598" type="line"/>
      <point x="1018" y="534"/>
      <point x="1025" y="477"/>
      <point x="1025" y="359" type="curve" smooth="yes"/>
      <point x="1025" y="193" type="line" smooth="yes"/>
      <point x="1025" y="77"/>
      <point x="988" y="22"/>
    </contour>
    <contour>
      <point x="350" y="1154" type="curve" smooth="yes"/>
      <point x="353" y="1154" type="line" smooth="yes"/>
      <point x="436" y="1154"/>
      <point x="469" y="1197"/>
      <point x="497" y="1257" type="curve" smooth="yes"/>
      <point x="587" y="1452" type="line" smooth="yes"/>
      <point x="609" y="1500"/>
      <point x="638" y="1509"/>
      <point x="677" y="1509" type="curve" smooth="yes"/>
      <point x="710" y="1509" type="line"/>
      <point x="707" y="1542" type="line"/>
      <point x="675" y="1542" type="line" smooth="yes"/>
      <point x="618" y="1542"/>
      <point x="583" y="1524"/>
      <point x="558" y="1470" type="curve" smooth="yes"/>
      <point x="462" y="1264" type="line" smooth="yes"/>
      <point x="435" y="1206"/>
      <point x="406" y="1178"/>
      <point x="353" y="1178" type="curve" smooth="yes"/>
      <point x="350" y="1178" type="line" smooth="yes"/>
      <point x="300" y="1178"/>
      <point x="268" y="1207"/>
      <point x="245" y="1273" type="curve" smooth="yes"/>
      <point x="210" y="1373" type="line"/>
      <point x="173" y="1373" type="line"/>
      <point x="212" y="1266" type="line" smooth="yes"/>
      <point x="243" y="1181"/>
      <point x="283" y="1154"/>
    </contour>
    <contour>
      <point x="968" y="609" type="line"/>
      <point x="1047" y="679"/>
      <point x="1062" y="730"/>
      <point x="1062" y="850" type="curve" smooth="yes"/>
      <point x="1062" y="981" type="line" smooth="yes"/>
      <point x="1062" y="1113"/>
      <point x="1010" y="1179"/>
      <point x="909" y="1179" type="curve" smooth="yes"/>
      <point x="846" y="1179"/>
      <point x="800" y="1148"/>
      <point x="773" y="1111" type="curve"/>
      <point x="769" y="1058" type="line"/>
      <point x="806" y="1113"/>
      <point x="852" y="1146"/>
      <point x="909" y="1146" type="curve" smooth="yes"/>
      <point x="986" y="1146"/>
      <point x="1025" y="1091"/>
      <point x="1025" y="979" type="curve" smooth="yes"/>
      <point x="1025" y="850" type="line" smooth="yes"/>
      <point x="1025" y="747"/>
      <point x="1016" y="692"/>
      <point x="946" y="627" type="curve"/>
    </contour>
  </outline>
</glyph>
<glyph name="vowelU.te" format="2">
  <advance width="848"/>
  <unicode hex="0C09"/>
  <outline>
    <contour>
      <point x="287" y="-11" type="curve" smooth="yes"/>
      <point x="388" y="-11"/>
      <point x="424" y="64"/>
      <point x="430" y="125" type="curve"/>
      <point x="432" y="125" type="line"/>
      <point x="438" y="64"/>
      <point x="474" y="-11"/>
      <point x="575" y="-11" type="curve" smooth="yes"/>
      <point x="678" y="-11"/>
      <point x="733" y="59"/>
      <point x="733" y="201" type="curve" smooth="yes"/>
      <point x="733" y="394" type="line" smooth="yes"/>
      <point x="733" y="478"/>
      <point x="720" y="541"/>
      <point x="682" y="607" type="curve"/>
      <point x="643" y="607" type="line"/>
      <point x="683" y="541"/>
      <point x="696" y="477"/>
      <point x="696" y="394" type="curve" smooth="yes"/>
      <point x="696" y="204" type="line" smooth="yes"/>
      <point x="696" y="83"/>
      <point x="660" y="22"/>
      <point x="573" y="22" type="curve" smooth="yes"/>
      <point x="488" y="22"/>
      <point x="452" y="83"/>
      <point x="450" y="204" type="curve" smooth="yes"/>
      <point x="446" y="432" type="line"/>
      <point x="416" y="432" type="line"/>
      <point x="412" y="204" type="line" smooth="yes"/>
      <point x="410" y="83"/>
      <point x="374" y="22"/>
      <point x="289" y="22" type="curve" smooth="yes"/>
      <point x="202" y="22"/>
      <point x="166" y="83"/>
      <point x="166" y="204" type="curve" smooth="yes"/>
      <point x="166" y="802" type="line" smooth="yes"/>
      <point x="166" y="1031"/>
      <point x="254" y="1145"/>
      <point x="432" y="1145" type="curve" smooth="yes"/>
      <point x="554" y="1145"/>
      <point x="638" y="1092"/>
      <point x="686" y="1030" type="curve"/>
      <point x="686" y="1075" type="line"/>
      <point x="648" y="1121"/>
      <point x="561" y="1178"/>
      <point x="432" y="1178" type="curve" smooth="yes"/>
      <point x="228" y="1178"/>
      <point x="129" y="1054"/>
      <point x="129" y="802" type="curve" smooth="yes"/>
      <point x="129" y="201" type="line" smooth="yes"/>
      <point x="129" y="59"/>
      <point x="184" y="-11"/>
    </contour>
    <contour>
      <point x="55" y="598" type="line"/>
      <point x="788" y="598" type="line"/>
      <point x="788" y="631" type="line"/>
      <point x="55" y="631" type="line"/>
    </contour>
    <contour>
      <point x="420" y="1157" type="curve"/>
      <point x="445" y="1157" type="line"/>
      <point x="449" y="1235"/>
      <point x="454" y="1293"/>
      <point x="454" y="1342" type="curve" smooth="yes"/>
      <point x="454" y="1385"/>
      <point x="449" y="1421"/>
      <point x="445" y="1428" type="curve"/>
      <point x="420" y="1428" type="line"/>
      <point x="416" y="1421"/>
      <point x="410" y="1385"/>
      <point x="410" y="1342" type="curve" smooth="yes"/>
      <point x="410" y="1293"/>
      <point x="416" y="1235"/>
    </contour>
  </outline>
</glyph>
<glyph name="vowelUu.te" format="2">
  <advance width="1315"/>
  <unicode hex="0C0A"/>
  <outline>
    <contour>
      <point x="1052" y="-11" type="curve" smooth="yes"/>
      <point x="1156" y="-11"/>
      <point x="1205" y="55"/>
      <point x="1205" y="191" type="curve" smooth="yes"/>
      <point x="1205" y="362" type="line" smooth="yes"/>
      <point x="1205" y="484"/>
      <point x="1194" y="543"/>
      <point x="1117" y="618" type="curve"/>
      <point x="1115" y="622"/>
      <point x="1102" y="631"/>
      <point x="1097" y="631" type="curve" smooth="yes"/>
      <point x="55" y="631" type="line"/>
      <point x="55" y="598" type="line"/>
      <point x="966" y="598" type="line"/>
      <point x="911" y="535"/>
      <point x="898" y="484"/>
      <point x="898" y="362" type="curve" smooth="yes"/>
      <point x="898" y="191" type="line" smooth="yes"/>
      <point x="898" y="55"/>
      <point x="949" y="-11"/>
    </contour>
    <contour>
      <point x="287" y="-11" type="curve" smooth="yes"/>
      <point x="388" y="-11"/>
      <point x="424" y="64"/>
      <point x="430" y="125" type="curve"/>
      <point x="432" y="125" type="line"/>
      <point x="438" y="64"/>
      <point x="474" y="-11"/>
      <point x="575" y="-11" type="curve" smooth="yes"/>
      <point x="678" y="-11"/>
      <point x="733" y="59"/>
      <point x="733" y="201" type="curve" smooth="yes"/>
      <point x="733" y="394" type="line" smooth="yes"/>
      <point x="733" y="478"/>
      <point x="720" y="541"/>
      <point x="682" y="607" type="curve"/>
      <point x="643" y="607" type="line"/>
      <point x="683" y="541"/>
      <point x="696" y="477"/>
      <point x="696" y="394" type="curve" smooth="yes"/>
      <point x="696" y="204" type="line" smooth="yes"/>
      <point x="696" y="83"/>
      <point x="660" y="22"/>
      <point x="573" y="22" type="curve" smooth="yes"/>
      <point x="488" y="22"/>
      <point x="452" y="83"/>
      <point x="450" y="204" type="curve" smooth="yes"/>
      <point x="446" y="432" type="line"/>
      <point x="416" y="432" type="line"/>
      <point x="412" y="204" type="line" smooth="yes"/>
      <point x="410" y="83"/>
      <point x="374" y="22"/>
      <point x="289" y="22" type="curve" smooth="yes"/>
      <point x="202" y="22"/>
      <point x="166" y="83"/>
      <point x="166" y="204" type="curve" smooth="yes"/>
      <point x="166" y="802" type="line" smooth="yes"/>
      <point x="166" y="1031"/>
      <point x="254" y="1145"/>
      <point x="432" y="1145" type="curve" smooth="yes"/>
      <point x="554" y="1145"/>
      <point x="638" y="1092"/>
      <point x="686" y="1030" type="curve"/>
      <point x="686" y="1075" type="line"/>
      <point x="648" y="1121"/>
      <point x="561" y="1178"/>
      <point x="432" y="1178" type="curve" smooth="yes"/>
      <point x="228" y="1178"/>
      <point x="129" y="1054"/>
      <point x="129" y="802" type="curve" smooth="yes"/>
      <point x="129" y="201" type="line" smooth="yes"/>
      <point x="129" y="59"/>
      <point x="184" y="-11"/>
    </contour>
    <contour>
      <point x="342" y="1157" type="curve"/>
      <point x="368" y="1157" type="line"/>
      <point x="372" y="1235"/>
      <point x="377" y="1293"/>
      <point x="377" y="1342" type="curve" smooth="yes"/>
      <point x="377" y="1385"/>
      <point x="372" y="1421"/>
      <point x="368" y="1428" type="curve"/>
      <point x="342" y="1428" type="line"/>
      <point x="339" y="1421"/>
      <point x="333" y="1385"/>
      <point x="333" y="1342" type="curve" smooth="yes"/>
      <point x="333" y="1293"/>
      <point x="339" y="1235"/>
    </contour>
    <contour>
      <point x="502" y="1157" type="curve"/>
      <point x="528" y="1157" type="line"/>
      <point x="532" y="1235"/>
      <point x="537" y="1293"/>
      <point x="537" y="1342" type="curve" smooth="yes"/>
      <point x="537" y="1385"/>
      <point x="532" y="1421"/>
      <point x="528" y="1428" type="curve"/>
      <point x="502" y="1428" type="line"/>
      <point x="499" y="1421"/>
      <point x="493" y="1385"/>
      <point x="493" y="1342" type="curve" smooth="yes"/>
      <point x="493" y="1293"/>
      <point x="499" y="1235"/>
    </contour>
    <contour>
      <point x="1052" y="22" type="curve" smooth="yes"/>
      <point x="972" y="22"/>
      <point x="935" y="77"/>
      <point x="935" y="193" type="curve" smooth="yes"/>
      <point x="935" y="359" type="line" smooth="yes"/>
      <point x="935" y="477"/>
      <point x="942" y="535"/>
      <point x="1006" y="598" type="curve"/>
      <point x="1097" y="598" type="line"/>
      <point x="1161" y="534"/>
      <point x="1168" y="477"/>
      <point x="1168" y="359" type="curve" smooth="yes"/>
      <point x="1168" y="193" type="line" smooth="yes"/>
      <point x="1168" y="77"/>
      <point x="1132" y="22"/>
    </contour>
    <contour>
      <point x="1111" y="609" type="line"/>
      <point x="1190" y="679"/>
      <point x="1205" y="730"/>
      <point x="1205" y="850" type="curve" smooth="yes"/>
      <point x="1205" y="981" type="line" smooth="yes"/>
      <point x="1205" y="1113"/>
      <point x="1154" y="1179"/>
      <point x="1052" y="1179" type="curve" smooth="yes"/>
      <point x="990" y="1179"/>
      <point x="944" y="1148"/>
      <point x="916" y="1111" type="curve"/>
      <point x="913" y="1058" type="line"/>
      <point x="949" y="1113"/>
      <point x="995" y="1146"/>
      <point x="1052" y="1146" type="curve" smooth="yes"/>
      <point x="1130" y="1146"/>
      <point x="1168" y="1091"/>
      <point x="1168" y="979" type="curve" smooth="yes"/>
      <point x="1168" y="850" type="line" smooth="yes"/>
      <point x="1168" y="747"/>
      <point x="1159" y="692"/>
      <point x="1089" y="627" type="curve"/>
    </contour>
  </outline>
</glyph>
<glyph name="vowelVocalicR.te" format="2">
  <advance width="1516"/>
  <unicode hex="0C0B"/>
  <anchor x="408" y="0" name="bottom"/>
  <outline>
    <contour>
      <point x="257" y="-11" type="curve" smooth="yes"/>
      <point x="366" y="-11"/>
      <point x="404" y="64"/>
      <point x="410" y="134" type="curve"/>
      <point x="412" y="134" type="line"/>
      <point x="418" y="64"/>
      <point x="456" y="-11"/>
      <point x="565" y="-11" type="curve" smooth="yes"/>
      <point x="664" y="-11"/>
      <point x="714" y="64"/>
      <point x="721" y="151" type="curve"/>
      <point x="727" y="169"/>
      <point x="732" y="190"/>
      <point x="732" y="210" type="curve" smooth="yes"/>
      <point x="732" y="679" type="line"/>
      <point x="695" y="679" type="line"/>
      <point x="695" y="213" type="line" smooth="yes"/>
      <point x="695" y="98"/>
      <point x="660" y="22"/>
      <point x="563" y="22" type="curve" smooth="yes"/>
      <point x="462" y="22"/>
      <point x="432" y="98"/>
      <point x="430" y="213" type="curve" smooth="yes"/>
      <point x="427" y="432" type="line"/>
      <point x="395" y="432" type="line"/>
      <point x="392" y="213" type="line" smooth="yes"/>
      <point x="390" y="98"/>
      <point x="360" y="22"/>
      <point x="259" y="22" type="curve" smooth="yes"/>
      <point x="162" y="22"/>
      <point x="127" y="98"/>
      <point x="127" y="213" type="curve" smooth="yes"/>
      <point x="127" y="294" type="line" smooth="yes"/>
      <point x="127" y="434"/>
      <point x="160" y="508"/>
      <point x="270" y="613" type="curve" smooth="yes"/>
      <point x="367" y="706"/>
      <point x="418" y="786"/>
      <point x="418" y="929" type="curve" smooth="yes"/>
      <point x="418" y="977" type="line" smooth="yes"/>
      <point x="418" y="1114"/>
      <point x="366" y="1183"/>
      <point x="257" y="1183" type="curve" smooth="yes"/>
      <point x="149" y="1183"/>
      <point x="97" y="1114"/>
      <point x="97" y="977" type="curve" smooth="yes"/>
      <point x="97" y="903" type="line" smooth="yes"/>
      <point x="97" y="828"/>
      <point x="109" y="765"/>
      <point x="132" y="710" type="curve"/>
      <point x="169" y="710" type="line"/>
      <point x="146" y="769"/>
      <point x="134" y="835"/>
      <point x="134" y="903" type="curve" smooth="yes"/>
      <point x="134" y="977" type="line" smooth="yes"/>
      <point x="134" y="1093"/>
      <point x="173" y="1150"/>
      <point x="257" y="1150" type="curve" smooth="yes"/>
      <point x="342" y="1150"/>
      <point x="381" y="1093"/>
      <point x="381" y="977" type="curve" smooth="yes"/>
      <point x="381" y="929" type="line" smooth="yes"/>
      <point x="381" y="802"/>
      <point x="344" y="732"/>
      <point x="243" y="635" type="curve" smooth="yes"/>
      <point x="123" y="519"/>
      <point x="90" y="440"/>
      <point x="90" y="294" type="curve" smooth="yes"/>
      <point x="90" y="212" type="line" smooth="yes"/>
      <point x="90" y="63"/>
      <point x="149" y="-11"/>
    </contour>
    <component base="matraUVar1.te" xOffset="760"/>
    <component base="Terminals.te" xOffset="520"/>
  </outline>
</glyph>
<glyph name="vowelVocalicL.te" format="2">
  <advance width="1097"/>
  <unicode hex="0C0C"/>
  <outline>
    <contour>
      <point x="686" y="-11" type="curve" smooth="yes"/>
      <point x="895" y="-11"/>
      <point x="987" y="112"/>
      <point x="987" y="370" type="curve" smooth="yes"/>
      <point x="987" y="900" type="line" smooth="yes"/>
      <point x="987" y="1075"/>
      <point x="919" y="1174"/>
      <point x="799" y="1174" type="curve"/>
      <point x="795" y="1174" type="line"/>
      <point x="790" y="1141" type="line"/>
      <point x="791" y="1141" type="line"/>
      <point x="893" y="1141"/>
      <point x="950" y="1060"/>
      <point x="950" y="898" type="curve" smooth="yes"/>
      <point x="950" y="374" type="line" smooth="yes"/>
      <point x="950" y="134"/>
      <point x="869" y="22"/>
      <point x="686" y="22" type="curve" smooth="yes"/>
      <point x="526" y="22"/>
      <point x="438" y="109"/>
      <point x="438" y="267" type="curve" smooth="yes"/>
      <point x="438" y="285" type="line" smooth="yes"/>
      <point x="438" y="421"/>
      <point x="475" y="489"/>
      <point x="609" y="625" type="curve" smooth="yes"/>
      <point x="703" y="719"/>
      <point x="729" y="802"/>
      <point x="729" y="922" type="curve" smooth="yes"/>
      <point x="729" y="960" type="line" smooth="yes"/>
      <point x="729" y="1110"/>
      <point x="670" y="1183"/>
      <point x="560" y="1183" type="curve" smooth="yes"/>
      <point x="451" y="1183"/>
      <point x="410" y="1104"/>
      <point x="405" y="1040" type="curve"/>
      <point x="403" y="1040" type="line"/>
      <point x="398" y="1104"/>
      <point x="359" y="1183"/>
      <point x="250" y="1183" type="curve" smooth="yes"/>
      <point x="144" y="1183"/>
      <point x="85" y="1110"/>
      <point x="85" y="964" type="curve" smooth="yes"/>
      <point x="85" y="859" type="line" smooth="yes"/>
      <point x="85" y="786"/>
      <point x="94" y="721"/>
      <point x="112" y="677" type="curve"/>
      <point x="151" y="677" type="line"/>
      <point x="133" y="721"/>
      <point x="122" y="789"/>
      <point x="122" y="859" type="curve" smooth="yes"/>
      <point x="122" y="960" type="line" smooth="yes"/>
      <point x="122" y="1086"/>
      <point x="162" y="1150"/>
      <point x="252" y="1150" type="curve" smooth="yes"/>
      <point x="344" y="1150"/>
      <point x="383" y="1084"/>
      <point x="385" y="960" type="curve" smooth="yes"/>
      <point x="388" y="716" type="line"/>
      <point x="420" y="716" type="line"/>
      <point x="423" y="960" type="line" smooth="yes"/>
      <point x="425" y="1084"/>
      <point x="466" y="1150"/>
      <point x="558" y="1150" type="curve" smooth="yes"/>
      <point x="652" y="1150"/>
      <point x="692" y="1086"/>
      <point x="692" y="957" type="curve" smooth="yes"/>
      <point x="692" y="922" type="line" smooth="yes"/>
      <point x="692" y="823"/>
      <point x="683" y="747"/>
      <point x="580" y="646" type="curve" smooth="yes"/>
      <point x="440" y="508"/>
      <point x="401" y="425"/>
      <point x="401" y="285" type="curve" smooth="yes"/>
      <point x="401" y="265" type="line" smooth="yes"/>
      <point x="401" y="86"/>
      <point x="502" y="-11"/>
    </contour>
  </outline>
</glyph>
<glyph name="vowelE.te" format="2">
  <advance width="837"/>
  <unicode hex="0C0E"/>
  <outline>
    <contour>
      <point x="250" y="-11" type="curve" smooth="yes"/>
      <point x="361" y="-11"/>
      <point x="392" y="63"/>
      <point x="401" y="125" type="curve"/>
      <point x="403" y="125" type="line"/>
      <point x="410" y="61"/>
      <point x="455" y="-11"/>
      <point x="560" y="-11" type="curve" smooth="yes"/>
      <point x="672" y="-11"/>
      <point x="727" y="68"/>
      <point x="727" y="212" type="curve" smooth="yes"/>
      <point x="727" y="810" type="line" smooth="yes"/>
      <point x="727" y="1100"/>
      <point x="609" y="1248"/>
      <point x="385" y="1248" type="curve" smooth="yes"/>
      <point x="352" y="1248" type="line"/>
      <point x="346" y="1215" type="line"/>
      <point x="381" y="1215" type="line" smooth="yes"/>
      <point x="590" y="1215"/>
      <point x="690" y="1080"/>
      <point x="690" y="806" type="curve" smooth="yes"/>
      <point x="690" y="212" type="line" smooth="yes"/>
      <point x="690" y="86"/>
      <point x="644" y="22"/>
      <point x="558" y="22" type="curve" smooth="yes"/>
      <point x="464" y="22"/>
      <point x="418" y="88"/>
      <point x="418" y="212" type="curve" smooth="yes"/>
      <point x="418" y="427" type="line" smooth="yes"/>
      <point x="418" y="569"/>
      <point x="364" y="646"/>
      <point x="252" y="646" type="curve" smooth="yes"/>
      <point x="140" y="646"/>
      <point x="85" y="569"/>
      <point x="85" y="427" type="curve" smooth="yes"/>
      <point x="85" y="208" type="line" smooth="yes"/>
      <point x="85" y="66"/>
      <point x="140" y="-11"/>
    </contour>
    <contour>
      <point x="252" y="22" type="curve" smooth="yes"/>
      <point x="166" y="22"/>
      <point x="122" y="85"/>
      <point x="122" y="208" type="curve" smooth="yes"/>
      <point x="122" y="427" type="line" smooth="yes"/>
      <point x="122" y="550"/>
      <point x="166" y="613"/>
      <point x="252" y="613" type="curve" smooth="yes"/>
      <point x="339" y="613"/>
      <point x="383" y="550"/>
      <point x="383" y="427" type="curve" smooth="yes"/>
      <point x="383" y="208" type="line" smooth="yes"/>
      <point x="383" y="85"/>
      <point x="339" y="22"/>
    </contour>
  </outline>
</glyph>
<glyph name="vowelEe.te" format="2">
  <advance width="837"/>
  <unicode hex="0C0F"/>
  <outline>
    <contour>
      <point x="484" y="1476" type="line"/>
      <point x="489" y="1443" type="line"/>
      <point x="414" y="1443" type="line" smooth="yes"/>
      <point x="256" y="1443"/>
      <point x="180" y="1362"/>
      <point x="180" y="1200" type="curve" smooth="yes"/>
      <point x="180" y="1159" type="line"/>
      <point x="144" y="1159" type="line"/>
      <point x="144" y="1202" type="line" smooth="yes"/>
      <point x="144" y="1380"/>
      <point x="234" y="1476"/>
      <point x="412" y="1476" type="curve" smooth="yes"/>
    </contour>
    <component base="vowelE.te"/>
  </outline>
</glyph>
<glyph name="vowelAi.te" format="2">
  <advance width="864"/>
  <unicode hex="0C10"/>
  <outline>
    <contour>
      <point x="276" y="-11" type="curve" smooth="yes"/>
      <point x="387" y="-11"/>
      <point x="418" y="63"/>
      <point x="427" y="125" type="curve"/>
      <point x="429" y="125" type="line"/>
      <point x="436" y="61"/>
      <point x="480" y="-11"/>
      <point x="586" y="-11" type="curve" smooth="yes"/>
      <point x="699" y="-11"/>
      <point x="754" y="68"/>
      <point x="754" y="212" type="curve" smooth="yes"/>
      <point x="754" y="960" type="line" smooth="yes"/>
      <point x="754" y="1110"/>
      <point x="696" y="1183"/>
      <point x="585" y="1183" type="curve" smooth="yes"/>
      <point x="476" y="1183"/>
      <point x="435" y="1104"/>
      <point x="430" y="1040" type="curve"/>
      <point x="428" y="1040" type="line"/>
      <point x="423" y="1104"/>
      <point x="384" y="1183"/>
      <point x="275" y="1183" type="curve" smooth="yes"/>
      <point x="169" y="1183"/>
      <point x="110" y="1110"/>
      <point x="110" y="964" type="curve" smooth="yes"/>
      <point x="110" y="920" type="line" smooth="yes"/>
      <point x="110" y="846"/>
      <point x="120" y="782"/>
      <point x="138" y="738" type="curve"/>
      <point x="177" y="738" type="line"/>
      <point x="158" y="782"/>
      <point x="147" y="850"/>
      <point x="147" y="920" type="curve" smooth="yes"/>
      <point x="147" y="960" type="line" smooth="yes"/>
      <point x="147" y="1086"/>
      <point x="187" y="1150"/>
      <point x="277" y="1150" type="curve" smooth="yes"/>
      <point x="367" y="1150"/>
      <point x="408" y="1086"/>
      <point x="410" y="960" type="curve" smooth="yes"/>
      <point x="413" y="771" type="line"/>
      <point x="445" y="771" type="line"/>
      <point x="448" y="960" type="line" smooth="yes"/>
      <point x="450" y="1086"/>
      <point x="493" y="1150"/>
      <point x="583" y="1150" type="curve" smooth="yes"/>
      <point x="676" y="1150"/>
      <point x="717" y="1086"/>
      <point x="717" y="957" type="curve" smooth="yes"/>
      <point x="717" y="212" type="line" smooth="yes"/>
      <point x="717" y="86"/>
      <point x="671" y="22"/>
      <point x="584" y="22" type="curve" smooth="yes"/>
      <point x="490" y="22"/>
      <point x="444" y="89"/>
      <point x="444" y="212" type="curve" smooth="yes"/>
      <point x="444" y="427" type="line" smooth="yes"/>
      <point x="444" y="569"/>
      <point x="390" y="646"/>
      <point x="278" y="646" type="curve" smooth="yes"/>
      <point x="166" y="646"/>
      <point x="111" y="569"/>
      <point x="111" y="427" type="curve" smooth="yes"/>
      <point x="111" y="208" type="line" smooth="yes"/>
      <point x="111" y="66"/>
      <point x="166" y="-11"/>
    </contour>
    <contour>
      <point x="278" y="22" type="curve" smooth="yes"/>
      <point x="192" y="22"/>
      <point x="148" y="85"/>
      <point x="148" y="208" type="curve" smooth="yes"/>
      <point x="148" y="427" type="line" smooth="yes"/>
      <point x="148" y="550"/>
      <point x="192" y="613"/>
      <point x="278" y="613" type="curve" smooth="yes"/>
      <point x="365" y="613"/>
      <point x="409" y="550"/>
      <point x="409" y="427" type="curve" smooth="yes"/>
      <point x="409" y="208" type="line" smooth="yes"/>
      <point x="409" y="85"/>
      <point x="365" y="22"/>
    </contour>
  </outline>
</glyph>
<glyph name="vowelO.te" format="2">
  <advance width="817"/>
  <unicode hex="0C12"/>
  <outline>
    <contour>
      <point x="257" y="-11" type="curve" smooth="yes"/>
      <point x="366" y="-11"/>
      <point x="404" y="64"/>
      <point x="410" y="134" type="curve"/>
      <point x="412" y="134" type="line"/>
      <point x="418" y="64"/>
      <point x="456" y="-11"/>
      <point x="565" y="-11" type="curve" smooth="yes"/>
      <point x="673" y="-11"/>
      <point x="732" y="63"/>
      <point x="732" y="210" type="curve" smooth="yes"/>
      <point x="732" y="344" type="line" smooth="yes"/>
      <point x="732" y="421"/>
      <point x="723" y="478"/>
      <point x="694" y="539" type="curve"/>
      <point x="655" y="539" type="line"/>
      <point x="686" y="478"/>
      <point x="695" y="420"/>
      <point x="695" y="344" type="curve" smooth="yes"/>
      <point x="695" y="213" type="line" smooth="yes"/>
      <point x="695" y="98"/>
      <point x="660" y="22"/>
      <point x="563" y="22" type="curve" smooth="yes"/>
      <point x="462" y="22"/>
      <point x="432" y="98"/>
      <point x="430" y="213" type="curve" smooth="yes"/>
      <point x="427" y="432" type="line"/>
      <point x="395" y="432" type="line"/>
      <point x="392" y="213" type="line" smooth="yes"/>
      <point x="390" y="98"/>
      <point x="360" y="22"/>
      <point x="259" y="22" type="curve" smooth="yes"/>
      <point x="162" y="22"/>
      <point x="127" y="98"/>
      <point x="127" y="213" type="curve" smooth="yes"/>
      <point x="127" y="294" type="line" smooth="yes"/>
      <point x="127" y="415"/>
      <point x="148" y="497"/>
      <point x="270" y="613" type="curve" smooth="yes"/>
      <point x="360" y="699"/>
      <point x="418" y="780"/>
      <point x="418" y="929" type="curve" smooth="yes"/>
      <point x="418" y="977" type="line" smooth="yes"/>
      <point x="418" y="1114"/>
      <point x="366" y="1183"/>
      <point x="257" y="1183" type="curve" smooth="yes"/>
      <point x="149" y="1183"/>
      <point x="97" y="1114"/>
      <point x="97" y="977" type="curve" smooth="yes"/>
      <point x="97" y="903" type="line" smooth="yes"/>
      <point x="97" y="828"/>
      <point x="109" y="765"/>
      <point x="132" y="710" type="curve"/>
      <point x="169" y="710" type="line"/>
      <point x="146" y="769"/>
      <point x="134" y="835"/>
      <point x="134" y="903" type="curve" smooth="yes"/>
      <point x="134" y="977" type="line" smooth="yes"/>
      <point x="134" y="1093"/>
      <point x="173" y="1150"/>
      <point x="257" y="1150" type="curve" smooth="yes"/>
      <point x="342" y="1150"/>
      <point x="381" y="1093"/>
      <point x="381" y="977" type="curve" smooth="yes"/>
      <point x="381" y="929" type="line" smooth="yes"/>
      <point x="381" y="802"/>
      <point x="344" y="732"/>
      <point x="243" y="635" type="curve" smooth="yes"/>
      <point x="123" y="519"/>
      <point x="90" y="440"/>
      <point x="90" y="294" type="curve" smooth="yes"/>
      <point x="90" y="212" type="line" smooth="yes"/>
      <point x="90" y="63"/>
      <point x="149" y="-11"/>
    </contour>
  </outline>
</glyph>
<glyph name="vowelOo.te" format="2">
  <advance width="817"/>
  <unicode hex="0C13"/>
  <outline>
    <contour>
      <point x="416" y="1358" type="curve"/>
      <point x="411" y="1400" type="line"/>
      <point x="390" y="1418"/>
      <point x="348" y="1437"/>
      <point x="291" y="1437" type="curve" smooth="yes"/>
      <point x="194" y="1437"/>
      <point x="138" y="1386"/>
      <point x="138" y="1297" type="curve" smooth="yes"/>
      <point x="138" y="1222"/>
      <point x="181" y="1176"/>
      <point x="267" y="1161" type="curve"/>
      <point x="276" y="1179" type="line"/>
      <point x="207" y="1195"/>
      <point x="173" y="1235"/>
      <point x="173" y="1297" type="curve" smooth="yes"/>
      <point x="173" y="1365"/>
      <point x="216" y="1404"/>
      <point x="291" y="1404" type="curve" smooth="yes"/>
      <point x="350" y="1404"/>
      <point x="387" y="1383"/>
    </contour>
    <component base="vowelO.te"/>
  </outline>
</glyph>
<glyph name="Ka.te" format="2">
  <advance width="624"/>
  <unicode hex="0C15"/>
  <anchor x="314" y="-66" name="bottom"/>
  <outline>
    <contour>
      <point x="313" y="-11" type="curve" smooth="yes"/>
      <point x="446" y="-11"/>
      <point x="514" y="74"/>
      <point x="514" y="241" type="curve" smooth="yes"/>
      <point x="514" y="285" type="line" smooth="yes"/>
      <point x="514" y="433"/>
      <point x="466" y="511"/>
      <point x="361" y="589" type="curve" smooth="yes"/>
      <point x="282" y="648" type="line" smooth="yes"/>
      <point x="190" y="717"/>
      <point x="151" y="775"/>
      <point x="151" y="891" type="curve" smooth="yes"/>
      <point x="151" y="929" type="line" smooth="yes"/>
      <point x="151" y="1074"/>
      <point x="206" y="1145"/>
      <point x="313" y="1145" type="curve" smooth="yes"/>
      <point x="418" y="1145"/>
      <point x="473" y="1074"/>
      <point x="473" y="929" type="curve" smooth="yes"/>
      <point x="473" y="887" type="line" smooth="yes"/>
      <point x="473" y="857"/>
      <point x="471" y="817"/>
      <point x="462" y="780" type="curve"/>
      <point x="499" y="780" type="line"/>
      <point x="508" y="815"/>
      <point x="510" y="852"/>
      <point x="510" y="887" type="curve" smooth="yes"/>
      <point x="510" y="929" type="line" smooth="yes"/>
      <point x="510" y="1094"/>
      <point x="443" y="1176"/>
      <point x="313" y="1176" type="curve" smooth="yes"/>
      <point x="182" y="1176"/>
      <point x="114" y="1092"/>
      <point x="114" y="929" type="curve" smooth="yes"/>
      <point x="114" y="889" type="line" smooth="yes"/>
      <point x="114" y="752"/>
      <point x="167" y="686"/>
      <point x="261" y="618" type="curve" smooth="yes"/>
      <point x="337" y="563" type="line" smooth="yes"/>
      <point x="446" y="484"/>
      <point x="477" y="416"/>
      <point x="477" y="283" type="curve" smooth="yes"/>
      <point x="477" y="241" type="line" smooth="yes"/>
      <point x="477" y="96"/>
      <point x="421" y="22"/>
      <point x="313" y="22" type="curve" smooth="yes"/>
      <point x="204" y="22"/>
      <point x="147" y="96"/>
      <point x="147" y="241" type="curve" smooth="yes"/>
      <point x="147" y="289" type="line" smooth="yes"/>
      <point x="147" y="333"/>
      <point x="151" y="374"/>
      <point x="160" y="412" type="curve"/>
      <point x="123" y="412" type="line"/>
      <point x="112" y="372"/>
      <point x="110" y="329"/>
      <point x="110" y="289" type="curve" smooth="yes"/>
      <point x="110" y="241" type="line" smooth="yes"/>
      <point x="110" y="74"/>
      <point x="179" y="-11"/>
    </contour>
    <contour>
      <point x="305" y="1154" type="curve" smooth="yes"/>
      <point x="309" y="1154" type="line" smooth="yes"/>
      <point x="385" y="1154"/>
      <point x="422" y="1190"/>
      <point x="453" y="1257" type="curve" smooth="yes"/>
      <point x="543" y="1452" type="line" smooth="yes"/>
      <point x="565" y="1500"/>
      <point x="592" y="1509"/>
      <point x="633" y="1509" type="curve" smooth="yes"/>
      <point x="666" y="1509" type="line"/>
      <point x="662" y="1542" type="line"/>
      <point x="631" y="1542" type="line" smooth="yes"/>
      <point x="574" y="1542"/>
      <point x="538" y="1524"/>
      <point x="513" y="1470" type="curve" smooth="yes"/>
      <point x="417" y="1264" type="line" smooth="yes"/>
      <point x="387" y="1200"/>
      <point x="357" y="1178"/>
      <point x="309" y="1178" type="curve" smooth="yes"/>
      <point x="305" y="1178" type="line" smooth="yes"/>
      <point x="253" y="1178"/>
      <point x="223" y="1210"/>
      <point x="201" y="1273" type="curve" smooth="yes"/>
      <point x="166" y="1373" type="line"/>
      <point x="129" y="1373" type="line"/>
      <point x="167" y="1266" type="line" smooth="yes"/>
      <point x="196" y="1185"/>
      <point x="234" y="1154"/>
    </contour>
  </outline>
</glyph>
<glyph name="Kha.te" format="2">
  <advance width="864"/>
  <unicode hex="0C16"/>
  <guideline x="1420" y="1868" angle="90"/>
  <anchor x="417" y="-181" name="bottom"/>
  <outline>
    <contour>
      <point x="266" y="-11" type="curve" smooth="yes"/>
      <point x="376" y="-11"/>
      <point x="408" y="64"/>
      <point x="417" y="131" type="curve"/>
      <point x="419" y="131" type="line"/>
      <point x="426" y="63"/>
      <point x="470" y="-11"/>
      <point x="575" y="-11" type="curve" smooth="yes"/>
      <point x="695" y="-11"/>
      <point x="754" y="67"/>
      <point x="754" y="210" type="curve" smooth="yes"/>
      <point x="754" y="745" type="line"/>
      <point x="717" y="745" type="line"/>
      <point x="717" y="210" type="line" smooth="yes"/>
      <point x="717" y="85"/>
      <point x="669" y="22"/>
      <point x="575" y="22" type="curve" smooth="yes"/>
      <point x="479" y="22"/>
      <point x="435" y="88"/>
      <point x="435" y="212" type="curve" smooth="yes"/>
      <point x="435" y="245"/>
      <point x="435" y="270"/>
      <point x="435" y="304" type="curve" smooth="yes"/>
      <point x="435" y="966" type="line" smooth="yes"/>
      <point x="435" y="1110"/>
      <point x="381" y="1183"/>
      <point x="273" y="1183" type="curve" smooth="yes"/>
      <point x="165" y="1183"/>
      <point x="111" y="1110"/>
      <point x="111" y="966" type="curve" smooth="yes"/>
      <point x="111" y="903" type="line" smooth="yes"/>
      <point x="111" y="843"/>
      <point x="117" y="791"/>
      <point x="137" y="732" type="curve"/>
      <point x="174" y="732" type="line"/>
      <point x="154" y="789"/>
      <point x="148" y="848"/>
      <point x="148" y="903" type="curve" smooth="yes"/>
      <point x="148" y="964" type="line" smooth="yes"/>
      <point x="148" y="1089"/>
      <point x="189" y="1150"/>
      <point x="273" y="1150" type="curve" smooth="yes"/>
      <point x="357" y="1150"/>
      <point x="398" y="1089"/>
      <point x="398" y="964" type="curve" smooth="yes"/>
      <point x="398" y="585" type="line" smooth="yes"/>
      <point x="398" y="559"/>
      <point x="398" y="537"/>
      <point x="398" y="512" type="curve"/>
      <point x="397" y="512" type="line"/>
      <point x="398" y="478" type="line"/>
      <point x="398" y="208" type="line" smooth="yes"/>
      <point x="398" y="85"/>
      <point x="354" y="22"/>
      <point x="268" y="22" type="curve" smooth="yes"/>
      <point x="181" y="22"/>
      <point x="137" y="84"/>
      <point x="137" y="208" type="curve" smooth="yes"/>
      <point x="137" y="420" type="line" smooth="yes"/>
      <point x="137" y="531"/>
      <point x="180" y="585"/>
      <point x="262" y="585" type="curve" smooth="yes"/>
      <point x="327" y="585"/>
      <point x="373" y="546"/>
      <point x="402" y="466" type="curve"/>
      <point x="408" y="504" type="line"/>
      <point x="391" y="563"/>
      <point x="347" y="618"/>
      <point x="259" y="618" type="curve" smooth="yes"/>
      <point x="156" y="618"/>
      <point x="100" y="552"/>
      <point x="100" y="421" type="curve" smooth="yes"/>
      <point x="100" y="208" type="line" smooth="yes"/>
      <point x="100" y="66"/>
      <point x="156" y="-11"/>
    </contour>
    <component base="Terminals.te" xOffset="542"/>
    <component base="kombu_1" xOffset="417"/>
  </outline>
</glyph>
<glyph name="Ga.te" format="2">
  <advance width="694"/>
  <unicode hex="0C17"/>
  <anchor x="345" y="-66" name="bottom"/>
  <outline>
    <contour>
      <point x="164" y="0" type="curve"/>
      <point x="204" y="0" type="line"/>
      <point x="162" y="96"/>
      <point x="147" y="206"/>
      <point x="147" y="313" type="curve" smooth="yes"/>
      <point x="147" y="865" type="line" smooth="yes"/>
      <point x="147" y="1053"/>
      <point x="213" y="1145"/>
      <point x="347" y="1145" type="curve" smooth="yes"/>
      <point x="481" y="1145"/>
      <point x="547" y="1053"/>
      <point x="547" y="865" type="curve" smooth="yes"/>
      <point x="547" y="313" type="line" smooth="yes"/>
      <point x="547" y="206"/>
      <point x="532" y="96"/>
      <point x="490" y="0" type="curve"/>
      <point x="530" y="0" type="line"/>
      <point x="571" y="99"/>
      <point x="584" y="191"/>
      <point x="584" y="316" type="curve" smooth="yes"/>
      <point x="584" y="865" type="line" smooth="yes"/>
      <point x="584" y="1073"/>
      <point x="505" y="1176"/>
      <point x="347" y="1176" type="curve" smooth="yes"/>
      <point x="189" y="1176"/>
      <point x="110" y="1073"/>
      <point x="110" y="865" type="curve" smooth="yes"/>
      <point x="110" y="316" type="line" smooth="yes"/>
      <point x="110" y="191"/>
      <point x="123" y="99"/>
    </contour>
    <contour>
      <point x="336" y="1154" type="curve" smooth="yes"/>
      <point x="339" y="1154" type="line" smooth="yes"/>
      <point x="422" y="1154"/>
      <point x="455" y="1197"/>
      <point x="483" y="1257" type="curve" smooth="yes"/>
      <point x="573" y="1452" type="line" smooth="yes"/>
      <point x="595" y="1500"/>
      <point x="624" y="1509"/>
      <point x="663" y="1509" type="curve" smooth="yes"/>
      <point x="694" y="1509" type="line"/>
      <point x="691" y="1542" type="line"/>
      <point x="661" y="1542" type="line" smooth="yes"/>
      <point x="604" y="1542"/>
      <point x="569" y="1524"/>
      <point x="544" y="1470" type="curve" smooth="yes"/>
      <point x="448" y="1264" type="line" smooth="yes"/>
      <point x="421" y="1206"/>
      <point x="393" y="1178"/>
      <point x="339" y="1178" type="curve" smooth="yes"/>
      <point x="336" y="1178" type="line" smooth="yes"/>
      <point x="286" y="1178"/>
      <point x="254" y="1207"/>
      <point x="231" y="1273" type="curve" smooth="yes"/>
      <point x="196" y="1373" type="line"/>
      <point x="159" y="1373" type="line"/>
      <point x="198" y="1266" type="line" smooth="yes"/>
      <point x="229" y="1181"/>
      <point x="269" y="1154"/>
    </contour>
  </outline>
</glyph>
<glyph name="Ca.te" format="2">
  <advance width="853"/>
  <unicode hex="0C1A"/>
  <anchor x="429" y="-67" name="bottom"/>
  <outline>
    <contour>
      <point x="279" y="-11" type="curve" smooth="yes"/>
      <point x="384" y="-11"/>
      <point x="423" y="66"/>
      <point x="428" y="131" type="curve"/>
      <point x="430" y="131" type="line"/>
      <point x="436" y="66"/>
      <point x="474" y="-11"/>
      <point x="579" y="-11" type="curve" smooth="yes"/>
      <point x="684" y="-11"/>
      <point x="743" y="63"/>
      <point x="743" y="206" type="curve" smooth="yes"/>
      <point x="743" y="784" type="line" smooth="yes"/>
      <point x="743" y="1044"/>
      <point x="639" y="1176"/>
      <point x="430" y="1176" type="curve"/>
      <point x="419" y="1165" type="line"/>
      <point x="402" y="1145" type="line"/>
      <point x="430" y="1145" type="line" smooth="yes"/>
      <point x="616" y="1145"/>
      <point x="706" y="1027"/>
      <point x="706" y="784" type="curve" smooth="yes"/>
      <point x="706" y="210" type="line" smooth="yes"/>
      <point x="706" y="86"/>
      <point x="666" y="22"/>
      <point x="577" y="22" type="curve" smooth="yes"/>
      <point x="490" y="22"/>
      <point x="450" y="86"/>
      <point x="448" y="210" type="curve" smooth="yes"/>
      <point x="445" y="432" type="line"/>
      <point x="413" y="432" type="line"/>
      <point x="410" y="210" type="line" smooth="yes"/>
      <point x="408" y="86"/>
      <point x="367" y="22"/>
      <point x="281" y="22" type="curve" smooth="yes"/>
      <point x="193" y="22"/>
      <point x="152" y="86"/>
      <point x="152" y="210" type="curve" smooth="yes"/>
      <point x="152" y="412" type="line" smooth="yes"/>
      <point x="152" y="543"/>
      <point x="169" y="618"/>
      <point x="270" y="681" type="curve"/>
      <point x="340" y="683" type="line"/>
      <point x="340" y="712" type="line"/>
      <point x="35" y="716" type="line"/>
      <point x="35" y="681" type="line"/>
      <point x="224" y="683" type="line"/>
      <point x="224" y="681" type="line"/>
      <point x="145" y="629"/>
      <point x="115" y="558"/>
      <point x="115" y="414" type="curve" smooth="yes"/>
      <point x="115" y="206" type="line" smooth="yes"/>
      <point x="115" y="63"/>
      <point x="174" y="-11"/>
    </contour>
    <contour>
      <point x="404" y="1145" type="curve"/>
      <point x="415" y="1156" type="line"/>
      <point x="463" y="1156"/>
      <point x="513" y="1185"/>
      <point x="551" y="1249" type="curve" smooth="yes"/>
      <point x="671" y="1452" type="line" smooth="yes"/>
      <point x="698" y="1498"/>
      <point x="722" y="1509"/>
      <point x="761" y="1509" type="curve" smooth="yes"/>
      <point x="793" y="1509" type="line"/>
      <point x="789" y="1542" type="line"/>
      <point x="759" y="1542" type="line" smooth="yes"/>
      <point x="702" y="1542"/>
      <point x="673" y="1522"/>
      <point x="642" y="1470" type="curve" smooth="yes"/>
      <point x="517" y="1259" type="line" smooth="yes"/>
      <point x="482" y="1200"/>
      <point x="444" y="1178"/>
      <point x="397" y="1178" type="curve" smooth="yes"/>
      <point x="391" y="1178" type="line" smooth="yes"/>
      <point x="336" y="1178"/>
      <point x="306" y="1207"/>
      <point x="283" y="1273" type="curve" smooth="yes"/>
      <point x="248" y="1373" type="line"/>
      <point x="211" y="1373" type="line"/>
      <point x="250" y="1266" type="line" smooth="yes"/>
      <point x="280" y="1184"/>
      <point x="318" y="1145"/>
    </contour>
  </outline>
</glyph>
<glyph name="Jha.te" format="2">
  <advance width="1352"/>
  <unicode hex="0C1D"/>
  <guideline x="2277" y="1868" angle="90"/>
  <anchor x="674" y="-210" name="bottom"/>
  <outline>
    <contour>
      <point x="340" y="-11" type="curve" smooth="yes"/>
      <point x="455" y="-11"/>
      <point x="525" y="50"/>
      <point x="551" y="175" type="curve"/>
      <point x="560" y="215"/>
      <point x="568" y="252"/>
      <point x="568" y="294" type="curve" smooth="yes"/>
      <point x="568" y="872" type="line" smooth="yes"/>
      <point x="568" y="1076"/>
      <point x="492" y="1176"/>
      <point x="339" y="1176" type="curve" smooth="yes"/>
      <point x="186" y="1176"/>
      <point x="110" y="1076"/>
      <point x="110" y="872" type="curve" smooth="yes"/>
      <point x="110" y="294" type="line" smooth="yes"/>
      <point x="110" y="90"/>
      <point x="186" y="-11"/>
    </contour>
    <contour>
      <point x="340" y="22" type="curve" smooth="yes"/>
      <point x="210" y="22"/>
      <point x="147" y="112"/>
      <point x="147" y="294" type="curve" smooth="yes"/>
      <point x="147" y="872" type="line" smooth="yes"/>
      <point x="147" y="1057"/>
      <point x="210" y="1145"/>
      <point x="339" y="1145" type="curve" smooth="yes"/>
      <point x="468" y="1145"/>
      <point x="531" y="1057"/>
      <point x="531" y="872" type="curve" smooth="yes"/>
      <point x="531" y="294" type="line" smooth="yes"/>
      <point x="531" y="112"/>
      <point x="468" y="22"/>
    </contour>
    <contour>
      <point x="719" y="-11" type="curve" smooth="yes"/>
      <point x="818" y="-11"/>
      <point x="875" y="46"/>
      <point x="892" y="155" type="curve"/>
      <point x="902" y="177"/>
      <point x="905" y="195"/>
      <point x="905" y="219" type="curve" smooth="yes"/>
      <point x="905" y="686" type="line"/>
      <point x="868" y="686" type="line"/>
      <point x="868" y="224" type="line" smooth="yes"/>
      <point x="868" y="92"/>
      <point x="820" y="22"/>
      <point x="717" y="22" type="curve" smooth="yes"/>
      <point x="619" y="22"/>
      <point x="568" y="92"/>
      <point x="568" y="221" type="curve" smooth="yes"/>
      <point x="568" y="320" type="line"/>
      <point x="544" y="320" type="line"/>
      <point x="540" y="215" type="line"/>
      <point x="540" y="59"/>
      <point x="608" y="-11"/>
    </contour>
    <contour>
      <point x="331" y="1154" type="curve"/>
      <point x="335" y="1154" type="line"/>
      <point x="402" y="1154"/>
      <point x="447" y="1181"/>
      <point x="478" y="1249" type="curve" smooth="yes"/>
      <point x="570" y="1452" type="line" smooth="yes"/>
      <point x="592" y="1500"/>
      <point x="620" y="1509"/>
      <point x="661" y="1509" type="curve" smooth="yes"/>
      <point x="694" y="1509" type="line"/>
      <point x="690" y="1542" type="line"/>
      <point x="659" y="1542" type="line" smooth="yes"/>
      <point x="593" y="1542"/>
      <point x="563" y="1517"/>
      <point x="541" y="1470" type="curve" smooth="yes"/>
      <point x="443" y="1259" type="line" smooth="yes"/>
      <point x="419" y="1207"/>
      <point x="388" y="1178"/>
      <point x="337" y="1178" type="curve" smooth="yes"/>
      <point x="331" y="1178" type="line" smooth="yes"/>
      <point x="282" y="1178"/>
      <point x="251" y="1207"/>
      <point x="228" y="1273" type="curve" smooth="yes"/>
      <point x="193" y="1373" type="line"/>
      <point x="156" y="1373" type="line"/>
      <point x="195" y="1266" type="line" smooth="yes"/>
      <point x="223" y="1189"/>
      <point x="259" y="1154"/>
    </contour>
    <component base="kombu_1" xOffset="888"/>
    <component base="matraU.te" xOffset="933"/>
    <component base="Terminals.te" xOffset="693"/>
  </outline>
</glyph>
<glyph name="Nya.te" format="2">
  <advance width="1126"/>
  <unicode hex="0C1E"/>
  <anchor x="430" y="-66" name="bottom"/>
  <outline>
    <contour>
      <point x="905" y="727" type="curve"/>
      <point x="931" y="727" type="line"/>
      <point x="935" y="870"/>
      <point x="940" y="977"/>
      <point x="940" y="1067" type="curve" smooth="yes"/>
      <point x="940" y="1119"/>
      <point x="935" y="1163"/>
      <point x="931" y="1170" type="curve"/>
      <point x="905" y="1170" type="line"/>
      <point x="902" y="1163"/>
      <point x="896" y="1119"/>
      <point x="896" y="1067" type="curve" smooth="yes"/>
      <point x="896" y="977"/>
      <point x="902" y="870"/>
    </contour>
    <contour>
      <point x="712" y="699" type="line"/>
      <point x="1071" y="699" type="line"/>
      <point x="1071" y="732" type="line"/>
      <point x="712" y="732" type="line"/>
    </contour>
    <component base="vowelI.te"/>
  </outline>
</glyph>
<glyph name="Tta.te" format="2">
  <advance width="906"/>
  <unicode hex="0C1F"/>
  <anchor x="453" y="-66" name="bottom"/>
  <outline>
    <contour>
      <point x="289" y="-11" type="curve" smooth="yes"/>
      <point x="404" y="-11"/>
      <point x="446" y="75"/>
      <point x="452" y="144" type="curve"/>
      <point x="454" y="144" type="line"/>
      <point x="460" y="75"/>
      <point x="502" y="-11"/>
      <point x="617" y="-11" type="curve" smooth="yes"/>
      <point x="733" y="-11"/>
      <point x="796" y="66"/>
      <point x="796" y="221" type="curve" smooth="yes"/>
      <point x="796" y="696" type="line"/>
      <point x="759" y="696" type="line"/>
      <point x="759" y="224" type="line" smooth="yes"/>
      <point x="759" y="90"/>
      <point x="715" y="22"/>
      <point x="615" y="22" type="curve" smooth="yes"/>
      <point x="514" y="22"/>
      <point x="474" y="97"/>
      <point x="472" y="223" type="curve" smooth="yes"/>
      <point x="468" y="432" type="line"/>
      <point x="438" y="432" type="line"/>
      <point x="434" y="223" type="line" smooth="yes"/>
      <point x="432" y="97"/>
      <point x="392" y="22"/>
      <point x="291" y="22" type="curve" smooth="yes"/>
      <point x="191" y="22"/>
      <point x="147" y="90"/>
      <point x="147" y="224" type="curve" smooth="yes"/>
      <point x="147" y="604" type="line" smooth="yes"/>
      <point x="147" y="613"/>
      <point x="147" y="629"/>
      <point x="147" y="646" type="curve"/>
      <point x="147" y="650" type="line"/>
      <point x="147" y="664" type="line"/>
      <point x="147" y="981" type="line" smooth="yes"/>
      <point x="147" y="1095"/>
      <point x="188" y="1150"/>
      <point x="269" y="1150" type="curve" smooth="yes"/>
      <point x="350" y="1150"/>
      <point x="390" y="1095"/>
      <point x="390" y="981" type="curve" smooth="yes"/>
      <point x="390" y="754" type="line" smooth="yes"/>
      <point x="390" y="648"/>
      <point x="355" y="592"/>
      <point x="274" y="592" type="curve" smooth="yes"/>
      <point x="213" y="592"/>
      <point x="167" y="627"/>
      <point x="145" y="697" type="curve"/>
      <point x="132" y="688" type="line"/>
      <point x="144" y="613"/>
      <point x="195" y="559"/>
      <point x="276" y="559" type="curve" smooth="yes"/>
      <point x="379" y="559"/>
      <point x="427" y="626"/>
      <point x="427" y="751" type="curve" smooth="yes"/>
      <point x="427" y="981" type="line" smooth="yes"/>
      <point x="427" y="1117"/>
      <point x="374" y="1183"/>
      <point x="269" y="1183" type="curve" smooth="yes"/>
      <point x="164" y="1183"/>
      <point x="110" y="1117"/>
      <point x="110" y="981" type="curve" smooth="yes"/>
      <point x="110" y="221" type="line" smooth="yes"/>
      <point x="110" y="66"/>
      <point x="173" y="-11"/>
    </contour>
    <contour>
      <point x="256" y="1163" type="curve"/>
      <point x="282" y="1163" type="line"/>
      <point x="285" y="1237"/>
      <point x="291" y="1291"/>
      <point x="291" y="1338" type="curve" smooth="yes"/>
      <point x="291" y="1384"/>
      <point x="285" y="1420"/>
      <point x="282" y="1428" type="curve"/>
      <point x="256" y="1428" type="line"/>
      <point x="252" y="1420"/>
      <point x="247" y="1384"/>
      <point x="247" y="1338" type="curve" smooth="yes"/>
      <point x="247" y="1291"/>
      <point x="252" y="1237"/>
    </contour>
    <component base="Terminals.te" xOffset="584"/>
  </outline>
</glyph>
<glyph name="Ttha.te" format="2">
  <advance width="689"/>
  <unicode hex="0C20"/>
  <guideline x="1291" y="1868" angle="90"/>
  <anchor x="348" y="-66" name="bottom"/>
  <outline>
    <contour>
      <point x="348" y="-11" type="curve" smooth="yes"/>
      <point x="506" y="-11"/>
      <point x="585" y="94"/>
      <point x="585" y="304" type="curve" smooth="yes"/>
      <point x="585" y="863" type="line" smooth="yes"/>
      <point x="585" y="1071"/>
      <point x="506" y="1176"/>
      <point x="348" y="1176" type="curve" smooth="yes"/>
      <point x="190" y="1176"/>
      <point x="110" y="1071"/>
      <point x="110" y="863" type="curve" smooth="yes"/>
      <point x="110" y="304" type="line" smooth="yes"/>
      <point x="110" y="94"/>
      <point x="190" y="-11"/>
    </contour>
    <contour>
      <point x="348" y="22" type="curve" smooth="yes"/>
      <point x="213" y="22"/>
      <point x="147" y="114"/>
      <point x="147" y="304" type="curve" smooth="yes"/>
      <point x="147" y="863" type="line" smooth="yes"/>
      <point x="147" y="1052"/>
      <point x="213" y="1145"/>
      <point x="348" y="1145" type="curve" smooth="yes"/>
      <point x="482" y="1145"/>
      <point x="548" y="1052"/>
      <point x="548" y="863" type="curve" smooth="yes"/>
      <point x="548" y="304" type="line" smooth="yes"/>
      <point x="548" y="114"/>
      <point x="483" y="22"/>
    </contour>
    <contour>
      <point x="337" y="1154" type="curve" smooth="yes"/>
      <point x="340" y="1154" type="line" smooth="yes"/>
      <point x="416" y="1154"/>
      <point x="453" y="1190"/>
      <point x="484" y="1257" type="curve" smooth="yes"/>
      <point x="574" y="1452" type="line" smooth="yes"/>
      <point x="596" y="1500"/>
      <point x="625" y="1509"/>
      <point x="664" y="1509" type="curve" smooth="yes"/>
      <point x="697" y="1509" type="line"/>
      <point x="694" y="1542" type="line"/>
      <point x="662" y="1542" type="line" smooth="yes"/>
      <point x="605" y="1542"/>
      <point x="570" y="1524"/>
      <point x="545" y="1470" type="curve" smooth="yes"/>
      <point x="448" y="1264" type="line" smooth="yes"/>
      <point x="417" y="1198"/>
      <point x="387" y="1178"/>
      <point x="340" y="1178" type="curve" smooth="yes"/>
      <point x="337" y="1178" type="line" smooth="yes"/>
      <point x="287" y="1178"/>
      <point x="255" y="1207"/>
      <point x="232" y="1273" type="curve" smooth="yes"/>
      <point x="197" y="1373" type="line"/>
      <point x="160" y="1373" type="line"/>
      <point x="199" y="1266" type="line" smooth="yes"/>
      <point x="227" y="1189"/>
      <point x="264" y="1154"/>
    </contour>
    <component base="chukka" xOffset="348" yOffset="-70"/>
  </outline>
</glyph>
<glyph name="Dda.te" format="2">
  <advance width="818"/>
  <unicode hex="0C21"/>
  <anchor x="424" y="-66" name="bottom"/>
  <outline>
    <contour>
      <point x="274" y="-11" type="curve" smooth="yes"/>
      <point x="379" y="-11"/>
      <point x="418" y="66"/>
      <point x="423" y="131" type="curve"/>
      <point x="425" y="131" type="line"/>
      <point x="430" y="66"/>
      <point x="469" y="-11"/>
      <point x="574" y="-11" type="curve" smooth="yes"/>
      <point x="679" y="-11"/>
      <point x="738" y="63"/>
      <point x="738" y="206" type="curve" smooth="yes"/>
      <point x="738" y="394" type="line" smooth="yes"/>
      <point x="738" y="477"/>
      <point x="727" y="537"/>
      <point x="696" y="602" type="curve"/>
      <point x="657" y="602" type="line"/>
      <point x="690" y="537"/>
      <point x="701" y="475"/>
      <point x="701" y="394" type="curve" smooth="yes"/>
      <point x="701" y="210" type="line" smooth="yes"/>
      <point x="701" y="86"/>
      <point x="660" y="22"/>
      <point x="572" y="22" type="curve" smooth="yes"/>
      <point x="485" y="22"/>
      <point x="445" y="86"/>
      <point x="443" y="210" type="curve" smooth="yes"/>
      <point x="440" y="432" type="line"/>
      <point x="408" y="432" type="line"/>
      <point x="405" y="210" type="line" smooth="yes"/>
      <point x="403" y="86"/>
      <point x="362" y="22"/>
      <point x="276" y="22" type="curve" smooth="yes"/>
      <point x="188" y="22"/>
      <point x="147" y="86"/>
      <point x="147" y="210" type="curve" smooth="yes"/>
      <point x="147" y="784" type="line" smooth="yes"/>
      <point x="147" y="1026"/>
      <point x="239" y="1145"/>
      <point x="425" y="1145" type="curve" smooth="yes"/>
      <point x="546" y="1145"/>
      <point x="631" y="1092"/>
      <point x="679" y="1030" type="curve"/>
      <point x="679" y="1075" type="line"/>
      <point x="640" y="1121"/>
      <point x="554" y="1176"/>
      <point x="425" y="1176" type="curve" smooth="yes"/>
      <point x="217" y="1176"/>
      <point x="110" y="1045"/>
      <point x="110" y="784" type="curve" smooth="yes"/>
      <point x="110" y="206" type="line" smooth="yes"/>
      <point x="110" y="63"/>
      <point x="169" y="-11"/>
    </contour>
    <contour>
      <point x="418" y="1154" type="curve"/>
      <point x="421" y="1154" type="line"/>
      <point x="491" y="1154"/>
      <point x="535" y="1183"/>
      <point x="574" y="1249" type="curve" smooth="yes"/>
      <point x="694" y="1452" type="line" smooth="yes"/>
      <point x="721" y="1498"/>
      <point x="744" y="1509"/>
      <point x="784" y="1509" type="curve" smooth="yes"/>
      <point x="817" y="1509" type="line"/>
      <point x="813" y="1542" type="line"/>
      <point x="782" y="1542" type="line" smooth="yes"/>
      <point x="720" y="1542"/>
      <point x="692" y="1518"/>
      <point x="664" y="1470" type="curve" smooth="yes"/>
      <point x="539" y="1259" type="line" smooth="yes"/>
      <point x="507" y="1205"/>
      <point x="474" y="1178"/>
      <point x="423" y="1178" type="curve" smooth="yes"/>
      <point x="418" y="1178" type="line" smooth="yes"/>
      <point x="364" y="1178"/>
      <point x="328" y="1207"/>
      <point x="305" y="1273" type="curve" smooth="yes"/>
      <point x="270" y="1373" type="line"/>
      <point x="234" y="1373" type="line"/>
      <point x="272" y="1266" type="line" smooth="yes"/>
      <point x="299" y="1189"/>
      <point x="340" y="1154"/>
    </contour>
  </outline>
</glyph>
<glyph name="Na.te" format="2">
  <advance width="837"/>
  <unicode hex="0C28"/>
  <anchor x="400" y="-66" name="bottom"/>
  <outline>
    <contour>
      <point x="565" y="-11" type="curve" smooth="yes"/>
      <point x="677" y="-11"/>
      <point x="727" y="68"/>
      <point x="727" y="208" type="curve" smooth="yes"/>
      <point x="727" y="764" type="line" smooth="yes"/>
      <point x="727" y="1040"/>
      <point x="617" y="1176"/>
      <point x="392" y="1176" type="curve" smooth="yes"/>
      <point x="339" y="1176" type="line"/>
      <point x="313" y="1167" type="line"/>
      <point x="318" y="1145" type="line"/>
      <point x="392" y="1145" type="line" smooth="yes"/>
      <point x="593" y="1145"/>
      <point x="690" y="1020"/>
      <point x="690" y="764" type="curve" smooth="yes"/>
      <point x="690" y="208" type="line" smooth="yes"/>
      <point x="690" y="86"/>
      <point x="652" y="22"/>
      <point x="565" y="22" type="curve" smooth="yes"/>
      <point x="478" y="22"/>
      <point x="437" y="85"/>
      <point x="429" y="204" type="curve" smooth="yes"/>
      <point x="414" y="432" type="line" smooth="yes"/>
      <point x="405" y="570"/>
      <point x="357" y="646"/>
      <point x="247" y="646" type="curve" smooth="yes"/>
      <point x="134" y="646"/>
      <point x="85" y="569"/>
      <point x="85" y="429" type="curve" smooth="yes"/>
      <point x="85" y="228" type="line" smooth="yes"/>
      <point x="85" y="140"/>
      <point x="96" y="64"/>
      <point x="123" y="0" type="curve"/>
      <point x="163" y="0" type="line"/>
      <point x="131" y="70"/>
      <point x="122" y="145"/>
      <point x="122" y="228" type="curve" smooth="yes"/>
      <point x="122" y="429" type="line" smooth="yes"/>
      <point x="122" y="550"/>
      <point x="160" y="613"/>
      <point x="247" y="613" type="curve" smooth="yes"/>
      <point x="331" y="613"/>
      <point x="371" y="552"/>
      <point x="379" y="432" type="curve" smooth="yes"/>
      <point x="394" y="204" type="line" smooth="yes"/>
      <point x="402" y="80"/>
      <point x="443" y="-11"/>
    </contour>
    <contour>
      <point x="709" y="1509" type="line"/>
      <point x="705" y="1542" type="line"/>
      <point x="674" y="1542" type="line" smooth="yes"/>
      <point x="617" y="1542"/>
      <point x="587" y="1522"/>
      <point x="556" y="1470" type="curve" smooth="yes"/>
      <point x="431" y="1259" type="line" smooth="yes"/>
      <point x="401" y="1209"/>
      <point x="366" y="1178"/>
      <point x="311" y="1178" type="curve" smooth="yes"/>
      <point x="306" y="1178" type="line" smooth="yes"/>
      <point x="250" y="1178"/>
      <point x="220" y="1207"/>
      <point x="197" y="1273" type="curve" smooth="yes"/>
      <point x="162" y="1373" type="line"/>
      <point x="125" y="1373" type="line"/>
      <point x="164" y="1266" type="line" smooth="yes"/>
      <point x="190" y="1196"/>
      <point x="221" y="1145"/>
      <point x="318" y="1145" type="curve"/>
      <point x="330" y="1156" type="line"/>
      <point x="381" y="1156"/>
      <point x="431" y="1189"/>
      <point x="466" y="1249" type="curve" smooth="yes"/>
      <point x="585" y="1452" type="line" smooth="yes"/>
      <point x="612" y="1498"/>
      <point x="635" y="1509"/>
      <point x="675" y="1509" type="curve" smooth="yes"/>
    </contour>
  </outline>
</glyph>
<glyph name="Ma.te" format="2">
  <advance width="1174"/>
  <unicode hex="0C2E"/>
  <anchor x="574" y="-66" name="bottom"/>
  <outline>
    <contour>
      <point x="250" y="-11" type="curve" smooth="yes"/>
      <point x="361" y="-11"/>
      <point x="392" y="63"/>
      <point x="401" y="125" type="curve"/>
      <point x="403" y="125" type="line"/>
      <point x="410" y="61"/>
      <point x="455" y="-11"/>
      <point x="558" y="-11" type="curve" smooth="yes"/>
      <point x="650" y="-11"/>
      <point x="707" y="48"/>
      <point x="714" y="156" type="curve"/>
      <point x="721" y="167"/>
      <point x="727" y="191"/>
      <point x="727" y="212" type="curve" smooth="yes"/>
      <point x="727" y="764" type="line" smooth="yes"/>
      <point x="727" y="1040"/>
      <point x="617" y="1176"/>
      <point x="392" y="1176" type="curve" smooth="yes"/>
      <point x="339" y="1176" type="line"/>
      <point x="318" y="1163" type="line"/>
      <point x="318" y="1145" type="line"/>
      <point x="392" y="1145" type="line" smooth="yes"/>
      <point x="593" y="1145"/>
      <point x="690" y="1020"/>
      <point x="690" y="764" type="curve" smooth="yes"/>
      <point x="690" y="212" type="line" smooth="yes"/>
      <point x="690" y="85"/>
      <point x="644" y="22"/>
      <point x="558" y="22" type="curve" smooth="yes"/>
      <point x="464" y="22"/>
      <point x="418" y="88"/>
      <point x="418" y="212" type="curve" smooth="yes"/>
      <point x="418" y="427" type="line" smooth="yes"/>
      <point x="418" y="569"/>
      <point x="364" y="646"/>
      <point x="252" y="646" type="curve" smooth="yes"/>
      <point x="140" y="646"/>
      <point x="85" y="569"/>
      <point x="85" y="427" type="curve" smooth="yes"/>
      <point x="85" y="208" type="line" smooth="yes"/>
      <point x="85" y="66"/>
      <point x="140" y="-11"/>
    </contour>
    <contour>
      <point x="252" y="22" type="curve" smooth="yes"/>
      <point x="166" y="22"/>
      <point x="122" y="85"/>
      <point x="122" y="208" type="curve" smooth="yes"/>
      <point x="122" y="427" type="line" smooth="yes"/>
      <point x="122" y="550"/>
      <point x="166" y="613"/>
      <point x="252" y="613" type="curve" smooth="yes"/>
      <point x="339" y="613"/>
      <point x="383" y="550"/>
      <point x="383" y="427" type="curve" smooth="yes"/>
      <point x="383" y="208" type="line" smooth="yes"/>
      <point x="383" y="85"/>
      <point x="339" y="22"/>
    </contour>
    <contour>
      <point x="318" y="1145" type="curve"/>
      <point x="330" y="1156" type="line"/>
      <point x="381" y="1156"/>
      <point x="431" y="1189"/>
      <point x="466" y="1249" type="curve" smooth="yes"/>
      <point x="585" y="1452" type="line" smooth="yes"/>
      <point x="612" y="1498"/>
      <point x="635" y="1509"/>
      <point x="675" y="1509" type="curve" smooth="yes"/>
      <point x="709" y="1509" type="line"/>
      <point x="705" y="1542" type="line"/>
      <point x="674" y="1542" type="line" smooth="yes"/>
      <point x="617" y="1542"/>
      <point x="587" y="1522"/>
      <point x="556" y="1470" type="curve" smooth="yes"/>
      <point x="431" y="1259" type="line" smooth="yes"/>
      <point x="401" y="1209"/>
      <point x="366" y="1178"/>
      <point x="311" y="1178" type="curve" smooth="yes"/>
      <point x="306" y="1178" type="line" smooth="yes"/>
      <point x="250" y="1178"/>
      <point x="220" y="1207"/>
      <point x="197" y="1273" type="curve" smooth="yes"/>
      <point x="162" y="1373" type="line"/>
      <point x="125" y="1373" type="line"/>
      <point x="164" y="1266" type="line" smooth="yes"/>
      <point x="190" y="1196"/>
      <point x="221" y="1145"/>
    </contour>
    <component base="matraU.te" xOffset="755"/>
  </outline>
</glyph>
<glyph name="Ra.te" format="2">
  <advance width="695"/>
  <unicode hex="0C30"/>
  <anchor x="348" y="-66" name="bottom"/>
  <outline>
    <contour>
      <point x="348" y="-11" type="curve" smooth="yes"/>
      <point x="506" y="-11"/>
      <point x="585" y="94"/>
      <point x="585" y="304" type="curve" smooth="yes"/>
      <point x="585" y="863" type="line" smooth="yes"/>
      <point x="585" y="1073"/>
      <point x="506" y="1176"/>
      <point x="348" y="1176" type="curve" smooth="yes"/>
      <point x="190" y="1176"/>
      <point x="110" y="1073"/>
      <point x="110" y="863" type="curve" smooth="yes"/>
      <point x="110" y="304" type="line" smooth="yes"/>
      <point x="110" y="94"/>
      <point x="190" y="-11"/>
    </contour>
    <contour>
      <point x="348" y="22" type="curve" smooth="yes"/>
      <point x="213" y="22"/>
      <point x="147" y="116"/>
      <point x="147" y="304" type="curve" smooth="yes"/>
      <point x="147" y="863" type="line" smooth="yes"/>
      <point x="147" y="1053"/>
      <point x="213" y="1145"/>
      <point x="348" y="1145" type="curve" smooth="yes"/>
      <point x="482" y="1145"/>
      <point x="548" y="1053"/>
      <point x="548" y="863" type="curve" smooth="yes"/>
      <point x="548" y="304" type="line" smooth="yes"/>
      <point x="548" y="116"/>
      <point x="482" y="22"/>
    </contour>
    <contour>
      <point x="340" y="1154" type="curve"/>
      <point x="344" y="1154" type="line"/>
      <point x="410" y="1154"/>
      <point x="457" y="1181"/>
      <point x="488" y="1249" type="curve" smooth="yes"/>
      <point x="580" y="1452" type="line" smooth="yes"/>
      <point x="602" y="1500"/>
      <point x="629" y="1509"/>
      <point x="670" y="1509" type="curve" smooth="yes"/>
      <point x="703" y="1509" type="line"/>
      <point x="699" y="1542" type="line"/>
      <point x="668" y="1542" type="line" smooth="yes"/>
      <point x="611" y="1542"/>
      <point x="575" y="1524"/>
      <point x="550" y="1470" type="curve" smooth="yes"/>
      <point x="453" y="1259" type="line" smooth="yes"/>
      <point x="429" y="1206"/>
      <point x="396" y="1178"/>
      <point x="346" y="1178" type="curve" smooth="yes"/>
      <point x="340" y="1178" type="line" smooth="yes"/>
      <point x="291" y="1178"/>
      <point x="260" y="1207"/>
      <point x="237" y="1273" type="curve" smooth="yes"/>
      <point x="202" y="1373" type="line"/>
      <point x="166" y="1373" type="line"/>
      <point x="204" y="1266" type="line" smooth="yes"/>
      <point x="231" y="1190"/>
      <point x="267" y="1154"/>
    </contour>
  </outline>
</glyph>
<glyph name="Rra.te" format="2">
  <advance width="974"/>
  <unicode hex="0C31"/>
  <anchor x="487" y="-66" name="bottom"/>
  <outline>
    <contour>
      <point x="305" y="-11" type="curve" smooth="yes"/>
      <point x="434" y="-11"/>
      <point x="478" y="83"/>
      <point x="486" y="158" type="curve"/>
      <point x="488" y="158" type="line"/>
      <point x="496" y="83"/>
      <point x="540" y="-11"/>
      <point x="669" y="-11" type="curve" smooth="yes"/>
      <point x="796" y="-11"/>
      <point x="864" y="72"/>
      <point x="864" y="236" type="curve" smooth="yes"/>
      <point x="864" y="983" type="line" smooth="yes"/>
      <point x="864" y="1117"/>
      <point x="811" y="1183"/>
      <point x="707" y="1183" type="curve" smooth="yes"/>
      <point x="604" y="1183"/>
      <point x="550" y="1117"/>
      <point x="550" y="983" type="curve" smooth="yes"/>
      <point x="550" y="760" type="line" smooth="yes"/>
      <point x="550" y="653"/>
      <point x="576" y="580"/>
      <point x="627" y="539" type="curve"/>
      <point x="627" y="537" type="line"/>
      <point x="429" y="537" type="line"/>
      <point x="429" y="504" type="line"/>
      <point x="712" y="506" type="line"/>
      <point x="712" y="535" type="line"/>
      <point x="666" y="539" type="line"/>
      <point x="604" y="589"/>
      <point x="587" y="661"/>
      <point x="587" y="760" type="curve" smooth="yes"/>
      <point x="587" y="983" type="line" smooth="yes"/>
      <point x="587" y="1095"/>
      <point x="627" y="1150"/>
      <point x="707" y="1150" type="curve" smooth="yes"/>
      <point x="787" y="1150"/>
      <point x="827" y="1095"/>
      <point x="827" y="983" type="curve" smooth="yes"/>
      <point x="827" y="239" type="line" smooth="yes"/>
      <point x="827" y="96"/>
      <point x="777" y="22"/>
      <point x="667" y="22" type="curve" smooth="yes"/>
      <point x="551" y="22"/>
      <point x="509" y="104"/>
      <point x="506" y="237" type="curve" smooth="yes"/>
      <point x="502" y="401" type="line"/>
      <point x="472" y="401" type="line"/>
      <point x="468" y="237" type="line" smooth="yes"/>
      <point x="465" y="104"/>
      <point x="423" y="22"/>
      <point x="307" y="22" type="curve" smooth="yes"/>
      <point x="197" y="22"/>
      <point x="147" y="96"/>
      <point x="147" y="239" type="curve" smooth="yes"/>
      <point x="147" y="604" type="line" smooth="yes"/>
      <point x="147" y="613"/>
      <point x="147" y="629"/>
      <point x="147" y="646" type="curve"/>
      <point x="147" y="650" type="line"/>
      <point x="147" y="664" type="line"/>
      <point x="147" y="983" type="line" smooth="yes"/>
      <point x="147" y="1095"/>
      <point x="188" y="1150"/>
      <point x="267" y="1150" type="curve" smooth="yes"/>
      <point x="346" y="1150"/>
      <point x="386" y="1095"/>
      <point x="386" y="983" type="curve" smooth="yes"/>
      <point x="386" y="753" type="line" smooth="yes"/>
      <point x="386" y="648"/>
      <point x="351" y="592"/>
      <point x="272" y="592" type="curve" smooth="yes"/>
      <point x="212" y="592"/>
      <point x="167" y="627"/>
      <point x="145" y="696" type="curve"/>
      <point x="132" y="686" type="line"/>
      <point x="144" y="613"/>
      <point x="195" y="559"/>
      <point x="274" y="559" type="curve" smooth="yes"/>
      <point x="375" y="559"/>
      <point x="423" y="627"/>
      <point x="423" y="749" type="curve" smooth="yes"/>
      <point x="423" y="983" type="line" smooth="yes"/>
      <point x="423" y="1117"/>
      <point x="370" y="1183"/>
      <point x="267" y="1183" type="curve" smooth="yes"/>
      <point x="164" y="1183"/>
      <point x="110" y="1117"/>
      <point x="110" y="983" type="curve" smooth="yes"/>
      <point x="110" y="236" type="line" smooth="yes"/>
      <point x="110" y="72"/>
      <point x="178" y="-11"/>
    </contour>
  </outline>
</glyph>
<glyph name="Lla.te" format="2">
  <advance width="774"/>
  <unicode hex="0C33"/>
  <guideline x="-107" y="871" angle="0"/>
  <anchor x="391" y="-66" name="bottom"/>
  <outline>
    <contour>
      <point x="513" y="1145" type="curve"/>
      <point x="538" y="1156" type="line"/>
      <point x="597" y="1163"/>
      <point x="627" y="1199"/>
      <point x="654" y="1257" type="curve" smooth="yes"/>
      <point x="745" y="1452" type="line" smooth="yes"/>
      <point x="767" y="1500"/>
      <point x="794" y="1509"/>
      <point x="835" y="1509" type="curve" smooth="yes"/>
      <point x="868" y="1509" type="line"/>
      <point x="864" y="1542" type="line"/>
      <point x="833" y="1542" type="line" smooth="yes"/>
      <point x="775" y="1542"/>
      <point x="740" y="1524"/>
      <point x="715" y="1470" type="curve" smooth="yes"/>
      <point x="619" y="1264" type="line" smooth="yes"/>
      <point x="592" y="1207"/>
      <point x="564" y="1178"/>
      <point x="511" y="1178" type="curve"/>
      <point x="507" y="1178" type="line"/>
      <point x="457" y="1178"/>
      <point x="425" y="1207"/>
      <point x="402" y="1273" type="curve" smooth="yes"/>
      <point x="367" y="1373" type="line"/>
      <point x="331" y="1373" type="line"/>
      <point x="369" y="1266" type="line" smooth="yes"/>
      <point x="395" y="1193"/>
      <point x="431" y="1145"/>
    </contour>
    <contour>
      <point x="388" y="410" type="line"/>
      <point x="410" y="407" type="line"/>
      <point x="597" y="410"/>
      <point x="678" y="532"/>
      <point x="678" y="701" type="curve" smooth="yes"/>
      <point x="678" y="953" type="line" smooth="yes"/>
      <point x="678" y="1082"/>
      <point x="630" y="1161"/>
      <point x="526" y="1168" type="curve"/>
      <point x="513" y="1145" type="line"/>
      <point x="603" y="1134"/>
      <point x="641" y="1072"/>
      <point x="641" y="949" type="curve" smooth="yes"/>
      <point x="641" y="708" type="line" smooth="yes"/>
      <point x="641" y="526"/>
      <point x="553" y="434"/>
      <point x="388" y="434" type="curve" smooth="yes"/>
      <point x="220" y="434"/>
      <point x="132" y="526"/>
      <point x="132" y="708" type="curve" smooth="yes"/>
      <point x="132" y="736" type="line"/>
      <point x="134" y="736" type="line"/>
      <point x="132" y="758" type="line"/>
      <point x="132" y="994" type="line" smooth="yes"/>
      <point x="132" y="1098"/>
      <point x="167" y="1150"/>
      <point x="240" y="1150" type="curve" smooth="yes"/>
      <point x="314" y="1150"/>
      <point x="349" y="1098"/>
      <point x="349" y="994" type="curve" smooth="yes"/>
      <point x="349" y="830" type="line" smooth="yes"/>
      <point x="349" y="730"/>
      <point x="318" y="679"/>
      <point x="246" y="679" type="curve" smooth="yes"/>
      <point x="191" y="679"/>
      <point x="150" y="708"/>
      <point x="130" y="776" type="curve"/>
      <point x="117" y="767" type="line"/>
      <point x="126" y="692"/>
      <point x="174" y="646"/>
      <point x="248" y="646" type="curve" smooth="yes"/>
      <point x="342" y="646"/>
      <point x="386" y="710"/>
      <point x="386" y="826" type="curve" smooth="yes"/>
      <point x="386" y="994" type="line" smooth="yes"/>
      <point x="386" y="1121"/>
      <point x="338" y="1183"/>
      <point x="240" y="1183" type="curve" smooth="yes"/>
      <point x="143" y="1183"/>
      <point x="95" y="1121"/>
      <point x="95" y="994" type="curve" smooth="yes"/>
      <point x="95" y="701" type="line" smooth="yes"/>
      <point x="95" y="532"/>
      <point x="176" y="410"/>
      <point x="365" y="407" type="curve"/>
    </contour>
    <contour>
      <point x="391" y="425" type="curve" smooth="yes"/>
      <point x="270" y="425"/>
      <point x="218" y="355"/>
      <point x="218" y="228" type="curve" smooth="yes"/>
      <point x="218" y="195" type="line" smooth="yes"/>
      <point x="218" y="61"/>
      <point x="275" y="-11"/>
      <point x="391" y="-11" type="curve" smooth="yes"/>
      <point x="507" y="-11"/>
      <point x="564" y="61"/>
      <point x="564" y="195" type="curve" smooth="yes"/>
      <point x="564" y="228" type="line" smooth="yes"/>
      <point x="564" y="355"/>
      <point x="513" y="425"/>
    </contour>
    <contour>
      <point x="391" y="22" type="curve" smooth="yes"/>
      <point x="301" y="22"/>
      <point x="255" y="81"/>
      <point x="255" y="195" type="curve" smooth="yes"/>
      <point x="255" y="228" type="line" smooth="yes"/>
      <point x="255" y="342"/>
      <point x="301" y="401"/>
      <point x="391" y="401" type="curve" smooth="yes"/>
      <point x="481" y="401"/>
      <point x="527" y="342"/>
      <point x="527" y="228" type="curve" smooth="yes"/>
      <point x="527" y="195" type="line" smooth="yes"/>
      <point x="527" y="81"/>
      <point x="481" y="22"/>
    </contour>
  </outline>
</glyph>
<glyph name="Llla.te" format="2">
  <advance width="974"/>
  <unicode hex="0C34"/>
  <anchor x="487" y="-66" name="bottom"/>
  <outline>
    <contour>
      <point x="305" y="-11" type="curve" smooth="yes"/>
      <point x="434" y="-11"/>
      <point x="478" y="83"/>
      <point x="486" y="158" type="curve"/>
      <point x="488" y="158" type="line"/>
      <point x="496" y="83"/>
      <point x="540" y="-11"/>
      <point x="669" y="-11" type="curve" smooth="yes"/>
      <point x="796" y="-11"/>
      <point x="864" y="72"/>
      <point x="864" y="236" type="curve" smooth="yes"/>
      <point x="864" y="983" type="line" smooth="yes"/>
      <point x="864" y="1117"/>
      <point x="810" y="1183"/>
      <point x="707" y="1183" type="curve" smooth="yes"/>
      <point x="604" y="1183"/>
      <point x="551" y="1117"/>
      <point x="551" y="983" type="curve" smooth="yes"/>
      <point x="551" y="749" type="line" smooth="yes"/>
      <point x="551" y="627"/>
      <point x="599" y="559"/>
      <point x="700" y="559" type="curve" smooth="yes"/>
      <point x="779" y="559"/>
      <point x="830" y="613"/>
      <point x="842" y="686" type="curve"/>
      <point x="829" y="696" type="line"/>
      <point x="807" y="627"/>
      <point x="762" y="592"/>
      <point x="702" y="592" type="curve" smooth="yes"/>
      <point x="623" y="592"/>
      <point x="588" y="648"/>
      <point x="588" y="753" type="curve" smooth="yes"/>
      <point x="588" y="983" type="line" smooth="yes"/>
      <point x="588" y="1095"/>
      <point x="628" y="1150"/>
      <point x="707" y="1150" type="curve" smooth="yes"/>
      <point x="786" y="1150"/>
      <point x="827" y="1095"/>
      <point x="827" y="983" type="curve" smooth="yes"/>
      <point x="827" y="664" type="line"/>
      <point x="827" y="650" type="line"/>
      <point x="827" y="646" type="line"/>
      <point x="827" y="631"/>
      <point x="827" y="618"/>
      <point x="827" y="604" type="curve" smooth="yes"/>
      <point x="827" y="239" type="line" smooth="yes"/>
      <point x="827" y="96"/>
      <point x="777" y="22"/>
      <point x="667" y="22" type="curve" smooth="yes"/>
      <point x="551" y="22"/>
      <point x="509" y="104"/>
      <point x="506" y="237" type="curve" smooth="yes"/>
      <point x="502" y="401" type="line"/>
      <point x="472" y="401" type="line"/>
      <point x="468" y="237" type="line" smooth="yes"/>
      <point x="465" y="104"/>
      <point x="423" y="22"/>
      <point x="307" y="22" type="curve" smooth="yes"/>
      <point x="197" y="22"/>
      <point x="147" y="96"/>
      <point x="147" y="239" type="curve" smooth="yes"/>
      <point x="147" y="604" type="line" smooth="yes"/>
      <point x="147" y="613"/>
      <point x="147" y="629"/>
      <point x="147" y="646" type="curve"/>
      <point x="147" y="650" type="line"/>
      <point x="147" y="664" type="line"/>
      <point x="147" y="983" type="line" smooth="yes"/>
      <point x="147" y="1095"/>
      <point x="188" y="1150"/>
      <point x="267" y="1150" type="curve" smooth="yes"/>
      <point x="346" y="1150"/>
      <point x="386" y="1095"/>
      <point x="386" y="983" type="curve" smooth="yes"/>
      <point x="386" y="753" type="line" smooth="yes"/>
      <point x="386" y="648"/>
      <point x="351" y="592"/>
      <point x="272" y="592" type="curve" smooth="yes"/>
      <point x="212" y="592"/>
      <point x="167" y="627"/>
      <point x="145" y="696" type="curve"/>
      <point x="132" y="686" type="line"/>
      <point x="144" y="613"/>
      <point x="195" y="559"/>
      <point x="274" y="559" type="curve" smooth="yes"/>
      <point x="375" y="559"/>
      <point x="423" y="627"/>
      <point x="423" y="749" type="curve" smooth="yes"/>
      <point x="423" y="983" type="line" smooth="yes"/>
      <point x="423" y="1117"/>
      <point x="370" y="1183"/>
      <point x="267" y="1183" type="curve" smooth="yes"/>
      <point x="164" y="1183"/>
      <point x="110" y="1117"/>
      <point x="110" y="983" type="curve" smooth="yes"/>
      <point x="110" y="236" type="line" smooth="yes"/>
      <point x="110" y="72"/>
      <point x="178" y="-11"/>
    </contour>
  </outline>
</glyph>
<glyph name="Sha.te" format="2">
  <advance width="773"/>
  <unicode hex="0C36"/>
  <anchor x="400" y="-66" name="bottom"/>
  <outline>
    <contour>
      <point x="505" y="-11" type="curve" smooth="yes"/>
      <point x="621" y="-11"/>
      <point x="678" y="63"/>
      <point x="678" y="202" type="curve" smooth="yes"/>
      <point x="678" y="510" type="line" smooth="yes"/>
      <point x="678" y="657"/>
      <point x="637" y="756"/>
      <point x="557" y="806" type="curve"/>
      <point x="538" y="815" type="line" smooth="yes"/>
      <point x="498" y="834"/>
      <point x="451" y="844"/>
      <point x="395" y="844" type="curve" smooth="yes"/>
      <point x="384" y="844" type="line" smooth="yes"/>
      <point x="194" y="844"/>
      <point x="100" y="733"/>
      <point x="100" y="510" type="curve" smooth="yes"/>
      <point x="100" y="362" type="line" smooth="yes"/>
      <point x="100" y="296"/>
      <point x="108" y="241"/>
      <point x="130" y="186" type="curve"/>
      <point x="168" y="186" type="line"/>
      <point x="144" y="241"/>
      <point x="137" y="307"/>
      <point x="137" y="366" type="curve" smooth="yes"/>
      <point x="137" y="510" type="line" smooth="yes"/>
      <point x="137" y="712"/>
      <point x="218" y="811"/>
      <point x="385" y="811" type="curve" smooth="yes"/>
      <point x="393" y="811" type="line" smooth="yes"/>
      <point x="453" y="811"/>
      <point x="488" y="802"/>
      <point x="514" y="788" type="curve" smooth="yes"/>
      <point x="525" y="782" type="line"/>
      <point x="603" y="738"/>
      <point x="641" y="648"/>
      <point x="641" y="510" type="curve" smooth="yes"/>
      <point x="641" y="202" type="line" smooth="yes"/>
      <point x="641" y="81"/>
      <point x="595" y="22"/>
      <point x="505" y="22" type="curve" smooth="yes"/>
      <point x="415" y="22"/>
      <point x="369" y="81"/>
      <point x="369" y="202" type="curve" smooth="yes"/>
      <point x="369" y="396" type="line" smooth="yes"/>
      <point x="369" y="550"/>
      <point x="400" y="640"/>
      <point x="540" y="780" type="curve" smooth="yes"/>
      <point x="553" y="793" type="line" smooth="yes"/>
      <point x="643" y="883"/>
      <point x="676" y="944"/>
      <point x="676" y="1025" type="curve" smooth="yes"/>
      <point x="676" y="1122"/>
      <point x="617" y="1178"/>
      <point x="514" y="1178" type="curve" smooth="yes"/>
      <point x="406" y="1178" type="line"/>
      <point x="384" y="1145" type="line"/>
      <point x="511" y="1145" type="line" smooth="yes"/>
      <point x="593" y="1145"/>
      <point x="639" y="1103"/>
      <point x="639" y="1025" type="curve" smooth="yes"/>
      <point x="639" y="949"/>
      <point x="610" y="907"/>
      <point x="523" y="813" type="curve" smooth="yes"/>
      <point x="511" y="800" type="line" smooth="yes"/>
      <point x="367" y="644"/>
      <point x="332" y="563"/>
      <point x="332" y="399" type="curve" smooth="yes"/>
      <point x="332" y="202" type="line" smooth="yes"/>
      <point x="332" y="63"/>
      <point x="389" y="-11"/>
    </contour>
    <contour>
      <point x="384" y="1145" type="curve"/>
      <point x="395" y="1156" type="line"/>
      <point x="444" y="1156"/>
      <point x="496" y="1185"/>
      <point x="531" y="1249" type="curve" smooth="yes"/>
      <point x="641" y="1452" type="line" smooth="yes"/>
      <point x="666" y="1498"/>
      <point x="691" y="1509"/>
      <point x="731" y="1509" type="curve" smooth="yes"/>
      <point x="764" y="1509" type="line"/>
      <point x="761" y="1542" type="line"/>
      <point x="729" y="1542" type="line" smooth="yes"/>
      <point x="672" y="1542"/>
      <point x="640" y="1521"/>
      <point x="612" y="1470" type="curve" smooth="yes"/>
      <point x="496" y="1259" type="line" smooth="yes"/>
      <point x="467" y="1206"/>
      <point x="430" y="1178"/>
      <point x="376" y="1178" type="curve" smooth="yes"/>
      <point x="371" y="1178" type="line" smooth="yes"/>
      <point x="315" y="1178"/>
      <point x="285" y="1207"/>
      <point x="262" y="1273" type="curve" smooth="yes"/>
      <point x="227" y="1373" type="line"/>
      <point x="190" y="1373" type="line"/>
      <point x="229" y="1266" type="line" smooth="yes"/>
      <point x="257" y="1189"/>
      <point x="292" y="1145"/>
    </contour>
  </outline>
</glyph>
<glyph name="Sa.te" format="2">
  <advance width="847"/>
  <unicode hex="0C38"/>
  <anchor x="400" y="-66" name="bottom"/>
  <outline>
    <contour>
      <point x="575" y="-11" type="curve" smooth="yes"/>
      <point x="687" y="-11"/>
      <point x="737" y="68"/>
      <point x="737" y="208" type="curve" smooth="yes"/>
      <point x="737" y="760" type="line"/>
      <point x="700" y="725" type="line"/>
      <point x="700" y="208" type="line" smooth="yes"/>
      <point x="700" y="86"/>
      <point x="662" y="22"/>
      <point x="575" y="22" type="curve" smooth="yes"/>
      <point x="488" y="22"/>
      <point x="447" y="85"/>
      <point x="439" y="204" type="curve" smooth="yes"/>
      <point x="424" y="432" type="line" smooth="yes"/>
      <point x="415" y="570"/>
      <point x="367" y="646"/>
      <point x="257" y="646" type="curve" smooth="yes"/>
      <point x="144" y="646"/>
      <point x="95" y="569"/>
      <point x="95" y="429" type="curve" smooth="yes"/>
      <point x="95" y="228" type="line" smooth="yes"/>
      <point x="95" y="140"/>
      <point x="106" y="64"/>
      <point x="133" y="0" type="curve"/>
      <point x="174" y="0" type="line"/>
      <point x="141" y="70"/>
      <point x="132" y="145"/>
      <point x="132" y="228" type="curve" smooth="yes"/>
      <point x="132" y="429" type="line" smooth="yes"/>
      <point x="132" y="550"/>
      <point x="170" y="613"/>
      <point x="257" y="613" type="curve" smooth="yes"/>
      <point x="341" y="613"/>
      <point x="381" y="552"/>
      <point x="389" y="432" type="curve" smooth="yes"/>
      <point x="404" y="204" type="line" smooth="yes"/>
      <point x="412" y="80"/>
      <point x="453" y="-11"/>
    </contour>
    <contour>
      <point x="261" y="1141" type="curve"/>
      <point x="264" y="1141" type="line"/>
      <point x="334" y="1141"/>
      <point x="374" y="1176"/>
      <point x="417" y="1249" type="curve" smooth="yes"/>
      <point x="537" y="1452" type="line" smooth="yes"/>
      <point x="564" y="1498"/>
      <point x="587" y="1509"/>
      <point x="627" y="1509" type="curve" smooth="yes"/>
      <point x="678" y="1509" type="line"/>
      <point x="675" y="1542" type="line"/>
      <point x="625" y="1542" type="line" smooth="yes"/>
      <point x="564" y="1542"/>
      <point x="535" y="1518"/>
      <point x="507" y="1470" type="curve" smooth="yes"/>
      <point x="382" y="1259" type="line" smooth="yes"/>
      <point x="349" y="1204"/>
      <point x="320" y="1174"/>
      <point x="267" y="1174" type="curve" smooth="yes"/>
      <point x="261" y="1174" type="line" smooth="yes"/>
      <point x="206" y="1174"/>
      <point x="174" y="1202"/>
      <point x="149" y="1273" type="curve" smooth="yes"/>
      <point x="114" y="1373" type="line"/>
      <point x="77" y="1373" type="line"/>
      <point x="115" y="1266" type="line" smooth="yes"/>
      <point x="142" y="1190"/>
      <point x="176" y="1141"/>
    </contour>
    <contour>
      <point x="700" y="523" type="line"/>
      <point x="737" y="523" type="line"/>
      <point x="737" y="900" type="line"/>
      <point x="737" y="1078"/>
      <point x="669" y="1174"/>
      <point x="549" y="1174" type="curve"/>
      <point x="546" y="1174" type="line"/>
      <point x="540" y="1141" type="line"/>
      <point x="542" y="1141" type="line"/>
      <point x="643" y="1141"/>
      <point x="700" y="1060"/>
      <point x="700" y="898" type="curve"/>
    </contour>
  </outline>
</glyph>
<glyph name="Avagraha.te" format="2">
  <advance width="610"/>
  <unicode hex="0C3D"/>
  <outline>
    <contour>
      <point x="328" y="0" type="curve"/>
      <point x="590" y="0" type="line"/>
      <point x="590" y="33" type="line"/>
      <point x="328" y="33" type="line"/>
      <point x="194" y="33"/>
      <point x="127" y="99"/>
      <point x="127" y="229" type="curve" smooth="yes"/>
      <point x="127" y="238" type="line" smooth="yes"/>
      <point x="127" y="380"/>
      <point x="189" y="432"/>
      <point x="313" y="530" type="curve" smooth="yes"/>
      <point x="453" y="641"/>
      <point x="489" y="727"/>
      <point x="489" y="868" type="curve" smooth="yes"/>
      <point x="489" y="929" type="line" smooth="yes"/>
      <point x="489" y="1089"/>
      <point x="416" y="1172"/>
      <point x="291" y="1172" type="curve" smooth="yes"/>
      <point x="166" y="1172"/>
      <point x="93" y="1089"/>
      <point x="93" y="929" type="curve" smooth="yes"/>
      <point x="93" y="883" type="line" smooth="yes"/>
      <point x="93" y="848"/>
      <point x="95" y="815"/>
      <point x="102" y="776" type="curve"/>
      <point x="140" y="776" type="line"/>
      <point x="132" y="813"/>
      <point x="130" y="854"/>
      <point x="130" y="883" type="curve" smooth="yes"/>
      <point x="130" y="929" type="line" smooth="yes"/>
      <point x="130" y="1062"/>
      <point x="186" y="1139"/>
      <point x="291" y="1139" type="curve" smooth="yes"/>
      <point x="396" y="1139"/>
      <point x="452" y="1062"/>
      <point x="452" y="929" type="curve" smooth="yes"/>
      <point x="452" y="868" type="line" smooth="yes"/>
      <point x="452" y="746"/>
      <point x="434" y="672"/>
      <point x="289" y="556" type="curve" smooth="yes"/>
      <point x="158" y="451"/>
      <point x="90" y="386"/>
      <point x="90" y="238" type="curve" smooth="yes"/>
      <point x="90" y="229" type="line" smooth="yes"/>
      <point x="90" y="80"/>
      <point x="174" y="0"/>
    </contour>
  </outline>
</glyph>
<glyph name="matraAa.te" format="2">
  <advance width="559"/>
  <unicode hex="0C3E"/>
  <outline>
    <contour>
      <point x="294" y="278" type="curve" smooth="yes"/>
      <point x="400" y="278"/>
      <point x="449" y="344"/>
      <point x="449" y="473" type="curve" smooth="yes"/>
      <point x="449" y="841" type="line" smooth="yes"/>
      <point x="449" y="1056"/>
      <point x="359" y="1174"/>
      <point x="161" y="1174" type="curve" smooth="yes"/>
      <point x="-236" y="1174" type="line"/>
      <point x="-236" y="1141" type="line"/>
      <point x="158" y="1141" type="line" smooth="yes"/>
      <point x="333" y="1141"/>
      <point x="412" y="1036"/>
      <point x="412" y="841" type="curve" smooth="yes"/>
      <point x="412" y="813" type="line"/>
      <point x="406" y="813" type="line"/>
      <point x="412" y="791" type="line"/>
      <point x="412" y="473" type="line" smooth="yes"/>
      <point x="412" y="362"/>
      <point x="373" y="311"/>
      <point x="294" y="311" type="curve" smooth="yes"/>
      <point x="215" y="311"/>
      <point x="176" y="362"/>
      <point x="176" y="473" type="curve" smooth="yes"/>
      <point x="176" y="707" type="line" smooth="yes"/>
      <point x="176" y="819"/>
      <point x="211" y="874"/>
      <point x="294" y="874" type="curve" smooth="yes"/>
      <point x="351" y="874"/>
      <point x="393" y="841"/>
      <point x="414" y="773" type="curve"/>
      <point x="426" y="782" type="line"/>
      <point x="415" y="854"/>
      <point x="368" y="907"/>
      <point x="292" y="907" type="curve" smooth="yes"/>
      <point x="187" y="907"/>
      <point x="139" y="839"/>
      <point x="139" y="710" type="curve" smooth="yes"/>
      <point x="139" y="473" type="line" smooth="yes"/>
      <point x="139" y="344"/>
      <point x="189" y="278"/>
    </contour>
  </outline>
</glyph>
<glyph name="matraI.te" format="2">
  <unicode hex="0C3F"/>
  <outline>
    <contour>
      <point x="-277" y="1129" type="curve" smooth="yes"/>
      <point x="-178" y="1129"/>
      <point x="-129" y="1187"/>
      <point x="-129" y="1312" type="curve" smooth="yes"/>
      <point x="-129" y="1481" type="line" smooth="yes"/>
      <point x="-129" y="1582"/>
      <point x="-181" y="1637"/>
      <point x="-277" y="1637" type="curve" smooth="yes"/>
      <point x="-373" y="1637"/>
      <point x="-425" y="1582"/>
      <point x="-425" y="1481" type="curve" smooth="yes"/>
      <point x="-425" y="1459" type="line" smooth="yes"/>
      <point x="-425" y="1358"/>
      <point x="-376" y="1305"/>
      <point x="-285" y="1305" type="curve" smooth="yes"/>
      <point x="-220" y="1305"/>
      <point x="-173" y="1338"/>
      <point x="-161" y="1389" type="curve"/>
      <point x="-162" y="1420" type="line"/>
      <point x="-179" y="1369"/>
      <point x="-221" y="1338"/>
      <point x="-279" y="1338" type="curve" smooth="yes"/>
      <point x="-350" y="1338"/>
      <point x="-388" y="1380"/>
      <point x="-388" y="1459" type="curve" smooth="yes"/>
      <point x="-388" y="1481" type="line" smooth="yes"/>
      <point x="-388" y="1561"/>
      <point x="-349" y="1604"/>
      <point x="-277" y="1604" type="curve" smooth="yes"/>
      <point x="-205" y="1604"/>
      <point x="-166" y="1561"/>
      <point x="-166" y="1481" type="curve" smooth="yes"/>
      <point x="-166" y="1398" type="line"/>
      <point x="-170" y="1383" type="line"/>
      <point x="-166" y="1383" type="line"/>
      <point x="-166" y="1317" type="line" smooth="yes"/>
      <point x="-166" y="1210"/>
      <point x="-201" y="1162"/>
      <point x="-278" y="1162" type="curve" smooth="yes"/>
      <point x="-321" y="1162"/>
      <point x="-367" y="1176"/>
      <point x="-408" y="1208" type="curve"/>
      <point x="-404" y="1170" type="line"/>
      <point x="-366" y="1143"/>
      <point x="-324" y="1129"/>
    </contour>
  </outline>
</glyph>
<glyph name="matraU.te" format="2">
  <advance width="419"/>
  <unicode hex="0C41"/>
  <outline>
    <contour>
      <point x="123" y="-11" type="curve" smooth="yes"/>
      <point x="248" y="-11"/>
      <point x="309" y="72"/>
      <point x="309" y="224" type="curve" smooth="yes"/>
      <point x="309" y="585" type="line"/>
      <point x="272" y="585" type="line"/>
      <point x="272" y="224" type="line" smooth="yes"/>
      <point x="272" y="92"/>
      <point x="224" y="22"/>
      <point x="121" y="22" type="curve" smooth="yes"/>
      <point x="20" y="22"/>
      <point x="-28" y="92"/>
      <point x="-28" y="221" type="curve"/>
      <point x="-28" y="224" type="line"/>
      <point x="-44" y="224" type="line"/>
      <point x="-44" y="155" type="line"/>
      <point x="-44" y="74"/>
      <point x="6" y="-11"/>
    </contour>
    <component base="Terminals.te" xOffset="97"/>
  </outline>
</glyph>
<glyph name="matraUu.te" format="2">
  <advance width="941"/>
  <unicode hex="0C42"/>
  <outline>
    <contour>
      <point x="151" y="-11" type="curve" smooth="yes"/>
      <point x="276" y="-11"/>
      <point x="337" y="72"/>
      <point x="337" y="224" type="curve" smooth="yes"/>
      <point x="337" y="585" type="line"/>
      <point x="300" y="585" type="line"/>
      <point x="300" y="224" type="line" smooth="yes"/>
      <point x="300" y="92"/>
      <point x="252" y="22"/>
      <point x="149" y="22" type="curve" smooth="yes"/>
      <point x="48" y="22"/>
      <point x="0" y="92"/>
      <point x="0" y="221" type="curve"/>
      <point x="0" y="224" type="line"/>
      <point x="-16" y="224" type="line"/>
      <point x="-16" y="155" type="line"/>
      <point x="-16" y="74"/>
      <point x="34" y="-11"/>
    </contour>
    <contour>
      <point x="300" y="523" type="line"/>
      <point x="337" y="523" type="line"/>
      <point x="337" y="898" type="line" smooth="yes"/>
      <point x="337" y="1075"/>
      <point x="270" y="1156"/>
      <point x="153" y="1163" type="curve"/>
      <point x="145" y="1174" type="line"/>
      <point x="140" y="1141" type="line"/>
      <point x="142" y="1141" type="line" smooth="yes"/>
      <point x="243" y="1141"/>
      <point x="300" y="1060"/>
      <point x="300" y="898" type="curve" smooth="yes"/>
    </contour>
    <contour>
      <point x="676" y="278" type="curve" smooth="yes"/>
      <point x="782" y="278"/>
      <point x="831" y="344"/>
      <point x="831" y="473" type="curve" smooth="yes"/>
      <point x="831" y="841" type="line" smooth="yes"/>
      <point x="831" y="1056"/>
      <point x="741" y="1174"/>
      <point x="543" y="1174" type="curve" smooth="yes"/>
      <point x="145" y="1174" type="line"/>
      <point x="145" y="1146" type="line"/>
      <point x="313" y="1141" type="line"/>
      <point x="540" y="1141" type="line" smooth="yes"/>
      <point x="715" y="1141"/>
      <point x="794" y="1036"/>
      <point x="794" y="841" type="curve" smooth="yes"/>
      <point x="794" y="813" type="line"/>
      <point x="788" y="813" type="line"/>
      <point x="794" y="791" type="line"/>
      <point x="794" y="473" type="line" smooth="yes"/>
      <point x="794" y="362"/>
      <point x="755" y="311"/>
      <point x="676" y="311" type="curve" smooth="yes"/>
      <point x="597" y="311"/>
      <point x="558" y="362"/>
      <point x="558" y="473" type="curve" smooth="yes"/>
      <point x="558" y="707" type="line" smooth="yes"/>
      <point x="558" y="819"/>
      <point x="593" y="874"/>
      <point x="676" y="874" type="curve" smooth="yes"/>
      <point x="733" y="874"/>
      <point x="775" y="841"/>
      <point x="796" y="773" type="curve"/>
      <point x="808" y="782" type="line"/>
      <point x="797" y="854"/>
      <point x="750" y="907"/>
      <point x="674" y="907" type="curve" smooth="yes"/>
      <point x="569" y="907"/>
      <point x="521" y="839"/>
      <point x="521" y="710" type="curve" smooth="yes"/>
      <point x="521" y="473" type="line" smooth="yes"/>
      <point x="521" y="344"/>
      <point x="571" y="278"/>
    </contour>
  </outline>
</glyph>
<glyph name="matraVocalicR.te" format="2">
  <advance width="221"/>
  <unicode hex="0C43"/>
  <outline>
    <contour>
      <point x="-14" y="-562" type="curve" smooth="yes"/>
      <point x="96" y="-562"/>
      <point x="156" y="-496"/>
      <point x="156" y="-371" type="curve" smooth="yes"/>
      <point x="156" y="353" type="line" smooth="yes"/>
      <point x="156" y="504"/>
      <point x="107" y="586"/>
      <point x="0" y="586" type="curve"/>
      <point x="-6" y="555" type="line"/>
      <point x="83" y="555"/>
      <point x="123" y="485"/>
      <point x="123" y="353" type="curve" smooth="yes"/>
      <point x="123" y="-369" type="line" smooth="yes"/>
      <point x="123" y="-476"/>
      <point x="77" y="-530"/>
      <point x="-14" y="-530" type="curve" smooth="yes"/>
      <point x="-105" y="-530"/>
      <point x="-151" y="-476"/>
      <point x="-151" y="-369" type="curve" smooth="yes"/>
      <point x="-151" y="-348" type="line"/>
      <point x="-146" y="-348" type="line"/>
      <point x="-151" y="-320" type="line"/>
      <point x="-151" y="-246" type="line" smooth="yes"/>
      <point x="-151" y="-190"/>
      <point x="-129" y="-161"/>
      <point x="-87" y="-161" type="curve" smooth="yes"/>
      <point x="-45" y="-161"/>
      <point x="-23" y="-190"/>
      <point x="-23" y="-244" type="curve" smooth="yes"/>
      <point x="-23" y="-284" type="line" smooth="yes"/>
      <point x="-23" y="-331"/>
      <point x="-43" y="-357"/>
      <point x="-81" y="-357" type="curve" smooth="yes"/>
      <point x="-117" y="-357"/>
      <point x="-140" y="-341"/>
      <point x="-153" y="-310" type="curve"/>
      <point x="-156" y="-338" type="line"/>
      <point x="-144" y="-370"/>
      <point x="-117" y="-388"/>
      <point x="-77" y="-388" type="curve" smooth="yes"/>
      <point x="-20" y="-388"/>
      <point x="10" y="-351"/>
      <point x="10" y="-284" type="curve" smooth="yes"/>
      <point x="10" y="-245" type="line" smooth="yes"/>
      <point x="10" y="-170"/>
      <point x="-23" y="-130"/>
      <point x="-87" y="-130" type="curve" smooth="yes"/>
      <point x="-150" y="-130"/>
      <point x="-184" y="-170"/>
      <point x="-184" y="-245" type="curve" smooth="yes"/>
      <point x="-184" y="-371" type="line" smooth="yes"/>
      <point x="-184" y="-496"/>
      <point x="-124" y="-562"/>
    </contour>
  </outline>
</glyph>
<glyph name="matraVocalicRr.te" format="2">
  <advance width="509"/>
  <unicode hex="0C44"/>
  <outline>
    <contour>
      <point x="-14" y="-562" type="curve" smooth="yes"/>
      <point x="96" y="-562"/>
      <point x="156" y="-496"/>
      <point x="156" y="-371" type="curve" smooth="yes"/>
      <point x="156" y="353" type="line" smooth="yes"/>
      <point x="156" y="494"/>
      <point x="111" y="573"/>
      <point x="13" y="580" type="curve"/>
      <point x="0" y="586" type="line"/>
      <point x="-6" y="555" type="line"/>
      <point x="83" y="555"/>
      <point x="123" y="485"/>
      <point x="123" y="353" type="curve" smooth="yes"/>
      <point x="123" y="-369" type="line" smooth="yes"/>
      <point x="123" y="-476"/>
      <point x="77" y="-530"/>
      <point x="-14" y="-530" type="curve" smooth="yes"/>
      <point x="-105" y="-530"/>
      <point x="-151" y="-476"/>
      <point x="-151" y="-369" type="curve" smooth="yes"/>
      <point x="-151" y="-348" type="line"/>
      <point x="-146" y="-348" type="line"/>
      <point x="-151" y="-320" type="line"/>
      <point x="-151" y="-246" type="line" smooth="yes"/>
      <point x="-151" y="-190"/>
      <point x="-129" y="-161"/>
      <point x="-87" y="-161" type="curve" smooth="yes"/>
      <point x="-45" y="-161"/>
      <point x="-23" y="-190"/>
      <point x="-23" y="-244" type="curve" smooth="yes"/>
      <point x="-23" y="-284" type="line" smooth="yes"/>
      <point x="-23" y="-331"/>
      <point x="-43" y="-357"/>
      <point x="-81" y="-357" type="curve" smooth="yes"/>
      <point x="-117" y="-357"/>
      <point x="-140" y="-341"/>
      <point x="-153" y="-310" type="curve"/>
      <point x="-156" y="-338" type="line"/>
      <point x="-144" y="-370"/>
      <point x="-117" y="-388"/>
      <point x="-77" y="-388" type="curve" smooth="yes"/>
      <point x="-20" y="-388"/>
      <point x="10" y="-351"/>
      <point x="10" y="-284" type="curve" smooth="yes"/>
      <point x="10" y="-245" type="line" smooth="yes"/>
      <point x="10" y="-170"/>
      <point x="-23" y="-130"/>
      <point x="-87" y="-130" type="curve" smooth="yes"/>
      <point x="-150" y="-130"/>
      <point x="-184" y="-170"/>
      <point x="-184" y="-245" type="curve" smooth="yes"/>
      <point x="-184" y="-371" type="line" smooth="yes"/>
      <point x="-184" y="-496"/>
      <point x="-124" y="-562"/>
    </contour>
    <contour>
      <point x="346" y="110" type="curve" smooth="yes"/>
      <point x="408" y="110"/>
      <point x="444" y="149"/>
      <point x="444" y="225" type="curve" smooth="yes"/>
      <point x="444" y="394" type="line" smooth="yes"/>
      <point x="444" y="524"/>
      <point x="385" y="586"/>
      <point x="267" y="586" type="curve" smooth="yes"/>
      <point x="0" y="586" type="line"/>
      <point x="4" y="561" type="line"/>
      <point x="157" y="555" type="line"/>
      <point x="267" y="555" type="line" smooth="yes"/>
      <point x="363" y="555"/>
      <point x="411" y="502"/>
      <point x="411" y="394" type="curve" smooth="yes"/>
      <point x="411" y="363" type="line"/>
      <point x="405" y="363" type="line"/>
      <point x="411" y="342" type="line"/>
      <point x="411" y="226" type="line" smooth="yes"/>
      <point x="411" y="170"/>
      <point x="389" y="142"/>
      <point x="346" y="142" type="curve" smooth="yes"/>
      <point x="304" y="142"/>
      <point x="283" y="172"/>
      <point x="283" y="226" type="curve" smooth="yes"/>
      <point x="283" y="291" type="line" smooth="yes"/>
      <point x="283" y="350"/>
      <point x="306" y="374"/>
      <point x="345" y="374" type="curve" smooth="yes"/>
      <point x="381" y="374"/>
      <point x="403" y="354"/>
      <point x="416" y="313" type="curve"/>
      <point x="419" y="341" type="line"/>
      <point x="411" y="382"/>
      <point x="383" y="406"/>
      <point x="343" y="406" type="curve" smooth="yes"/>
      <point x="286" y="406"/>
      <point x="250" y="369"/>
      <point x="250" y="293" type="curve" smooth="yes"/>
      <point x="250" y="225" type="line" smooth="yes"/>
      <point x="250" y="148"/>
      <point x="284" y="110"/>
    </contour>
  </outline>
</glyph>
<glyph name="matraE.te" format="2">
  <unicode hex="0C46"/>
  <outline>
    <contour>
      <point x="-172" y="1448" type="curve" smooth="yes"/>
      <point x="-467" y="1448" type="line"/>
      <point x="-472" y="1415" type="line"/>
      <point x="-172" y="1415" type="line" smooth="yes"/>
      <point x="-79" y="1415"/>
      <point x="-36" y="1374"/>
      <point x="-36" y="1295" type="curve" smooth="yes"/>
      <point x="-36" y="1214"/>
      <point x="-81" y="1174"/>
      <point x="-172" y="1174" type="curve" smooth="yes"/>
      <point x="-289" y="1174" type="line"/>
      <point x="-289" y="1141" type="line"/>
      <point x="-172" y="1141" type="line" smooth="yes"/>
      <point x="-56" y="1141"/>
      <point x="1" y="1193"/>
      <point x="1" y="1295" type="curve" smooth="yes"/>
      <point x="1" y="1397"/>
      <point x="-57" y="1448"/>
    </contour>
  </outline>
</glyph>
<glyph name="matraO.te" format="2">
  <advance width="509"/>
  <unicode hex="0C4A"/>
  <outline>
    <contour>
      <point x="264" y="435" type="curve" smooth="yes"/>
      <point x="370" y="435"/>
      <point x="419" y="501"/>
      <point x="419" y="630" type="curve" smooth="yes"/>
      <point x="419" y="1126" type="line" smooth="yes"/>
      <point x="419" y="1287"/>
      <point x="356" y="1370"/>
      <point x="234" y="1370" type="curve" smooth="yes"/>
      <point x="140" y="1370"/>
      <point x="80" y="1322"/>
      <point x="70" y="1240" type="curve"/>
      <point x="68" y="1240" type="line"/>
      <point x="61" y="1379"/>
      <point x="-14" y="1459"/>
      <point x="-190" y="1459" type="curve" smooth="yes"/>
      <point x="-248" y="1459" type="line" smooth="yes"/>
      <point x="-382" y="1459"/>
      <point x="-451" y="1401"/>
      <point x="-451" y="1293" type="curve" smooth="yes"/>
      <point x="-451" y="1198"/>
      <point x="-386" y="1148"/>
      <point x="-284" y="1148" type="curve" smooth="yes"/>
      <point x="-261" y="1148" type="line"/>
      <point x="-252" y="1174" type="line"/>
      <point x="-279" y="1174" type="line" smooth="yes"/>
      <point x="-362" y="1174"/>
      <point x="-414" y="1214"/>
      <point x="-414" y="1293" type="curve" smooth="yes"/>
      <point x="-414" y="1381"/>
      <point x="-358" y="1426"/>
      <point x="-248" y="1426" type="curve" smooth="yes"/>
      <point x="-190" y="1426" type="line" smooth="yes"/>
      <point x="-27" y="1426"/>
      <point x="40" y="1353"/>
      <point x="48" y="1197" type="curve" smooth="yes"/>
      <point x="51" y="1138" type="line"/>
      <point x="82" y="1138" type="line"/>
      <point x="85" y="1184" type="line" smooth="yes"/>
      <point x="92" y="1286"/>
      <point x="142" y="1337"/>
      <point x="231" y="1337" type="curve" smooth="yes"/>
      <point x="332" y="1337"/>
      <point x="382" y="1265"/>
      <point x="382" y="1122" type="curve" smooth="yes"/>
      <point x="382" y="960" type="line"/>
      <point x="376" y="960" type="line"/>
      <point x="382" y="938" type="line"/>
      <point x="382" y="630" type="line" smooth="yes"/>
      <point x="382" y="519"/>
      <point x="343" y="468"/>
      <point x="264" y="468" type="curve" smooth="yes"/>
      <point x="185" y="468"/>
      <point x="146" y="519"/>
      <point x="146" y="630" type="curve" smooth="yes"/>
      <point x="146" y="854" type="line" smooth="yes"/>
      <point x="146" y="966"/>
      <point x="181" y="1021"/>
      <point x="264" y="1021" type="curve" smooth="yes"/>
      <point x="321" y="1021"/>
      <point x="363" y="988"/>
      <point x="384" y="920" type="curve"/>
      <point x="396" y="929" type="line"/>
      <point x="385" y="1001"/>
      <point x="338" y="1054"/>
      <point x="262" y="1054" type="curve" smooth="yes"/>
      <point x="157" y="1054"/>
      <point x="109" y="986"/>
      <point x="109" y="857" type="curve" smooth="yes"/>
      <point x="109" y="630" type="line" smooth="yes"/>
      <point x="109" y="501"/>
      <point x="159" y="435"/>
    </contour>
  </outline>
</glyph>
<glyph name="matraAu.te" format="2">
  <advance width="566"/>
  <unicode hex="0C4C"/>
  <outline>
    <contour>
      <point x="326" y="562" type="curve" smooth="yes"/>
      <point x="432" y="562"/>
      <point x="481" y="628"/>
      <point x="481" y="757" type="curve" smooth="yes"/>
      <point x="481" y="1115" type="line" smooth="yes"/>
      <point x="481" y="1330"/>
      <point x="391" y="1448"/>
      <point x="191" y="1448" type="curve" smooth="yes"/>
      <point x="-379" y="1448" type="line"/>
      <point x="-384" y="1415" type="line"/>
      <point x="-96" y="1415" type="line"/>
      <point x="-86" y="1417" type="line"/>
      <point x="4" y="1415" type="line"/>
      <point x="190" y="1415" type="line" smooth="yes"/>
      <point x="365" y="1415"/>
      <point x="444" y="1310"/>
      <point x="444" y="1115" type="curve" smooth="yes"/>
      <point x="444" y="1087" type="line"/>
      <point x="438" y="1087" type="line"/>
      <point x="444" y="1065" type="line"/>
      <point x="444" y="757" type="line" smooth="yes"/>
      <point x="444" y="646"/>
      <point x="405" y="595"/>
      <point x="326" y="595" type="curve" smooth="yes"/>
      <point x="247" y="595"/>
      <point x="208" y="646"/>
      <point x="208" y="757" type="curve" smooth="yes"/>
      <point x="208" y="981" type="line" smooth="yes"/>
      <point x="208" y="1093"/>
      <point x="243" y="1148"/>
      <point x="326" y="1148" type="curve" smooth="yes"/>
      <point x="383" y="1148"/>
      <point x="425" y="1115"/>
      <point x="446" y="1047" type="curve"/>
      <point x="458" y="1056" type="line"/>
      <point x="447" y="1128"/>
      <point x="400" y="1181"/>
      <point x="324" y="1181" type="curve" smooth="yes"/>
      <point x="219" y="1181"/>
      <point x="171" y="1113"/>
      <point x="171" y="984" type="curve" smooth="yes"/>
      <point x="171" y="757" type="line" smooth="yes"/>
      <point x="171" y="628"/>
      <point x="221" y="562"/>
    </contour>
    <contour>
      <point x="-297" y="1148" type="line"/>
      <point x="-169" y="1148" type="line" smooth="yes"/>
      <point x="-56" y="1148"/>
      <point x="0" y="1198"/>
      <point x="0" y="1295" type="curve" smooth="yes"/>
      <point x="0" y="1389"/>
      <point x="-58" y="1436"/>
      <point x="-173" y="1436" type="curve" smooth="yes"/>
      <point x="-240" y="1436" type="line"/>
      <point x="-245" y="1415" type="line"/>
      <point x="-173" y="1415" type="line" smooth="yes"/>
      <point x="-81" y="1415"/>
      <point x="-37" y="1374"/>
      <point x="-37" y="1295" type="curve" smooth="yes"/>
      <point x="-37" y="1214"/>
      <point x="-83" y="1174"/>
      <point x="-173" y="1174" type="curve" smooth="yes"/>
      <point x="-297" y="1174" type="line"/>
    </contour>
  </outline>
</glyph>
<glyph name="Halant.te" format="2">
  <unicode hex="0C4D"/>
  <outline>
    <contour>
      <point x="-277" y="1141" type="curve" smooth="yes"/>
      <point x="-179" y="1141" type="line"/>
      <point x="-179" y="1174" type="line"/>
      <point x="-277" y="1174" type="line" smooth="yes"/>
      <point x="-351" y="1174"/>
      <point x="-390" y="1204"/>
      <point x="-390" y="1262" type="curve" smooth="yes"/>
      <point x="-390" y="1321"/>
      <point x="-351" y="1352"/>
      <point x="-277" y="1352" type="curve" smooth="yes"/>
      <point x="-65" y="1352" type="line"/>
      <point x="-65" y="1385" type="line"/>
      <point x="-287" y="1385" type="line" smooth="yes"/>
      <point x="-368" y="1385"/>
      <point x="-410" y="1417"/>
      <point x="-410" y="1478" type="curve" smooth="yes"/>
      <point x="-410" y="1539"/>
      <point x="-368" y="1571"/>
      <point x="-287" y="1571" type="curve" smooth="yes"/>
      <point x="48" y="1571" type="line"/>
      <point x="43" y="1604" type="line"/>
      <point x="-287" y="1604" type="line" smooth="yes"/>
      <point x="-392" y="1604"/>
      <point x="-447" y="1561"/>
      <point x="-447" y="1478" type="curve" smooth="yes"/>
      <point x="-447" y="1417"/>
      <point x="-407" y="1376"/>
      <point x="-338" y="1368" type="curve"/>
      <point x="-338" y="1366" type="line"/>
      <point x="-395" y="1358"/>
      <point x="-427" y="1321"/>
      <point x="-427" y="1262" type="curve" smooth="yes"/>
      <point x="-427" y="1182"/>
      <point x="-375" y="1141"/>
    </contour>
  </outline>
</glyph>
<glyph name="Lengthmark.te" format="2">
  <unicode hex="0C55"/>
  <outline>
    <contour>
      <point x="453" y="1759" type="curve"/>
      <point x="448" y="1801" type="line"/>
      <point x="420" y="1826"/>
      <point x="382" y="1846"/>
      <point x="329" y="1846" type="curve" smooth="yes"/>
      <point x="246" y="1846"/>
      <point x="200" y="1800"/>
      <point x="200" y="1728" type="curve" smooth="yes"/>
      <point x="200" y="1665"/>
      <point x="237" y="1622"/>
      <point x="312" y="1606" type="curve"/>
      <point x="321" y="1624" type="line"/>
      <point x="260" y="1643"/>
      <point x="236" y="1675"/>
      <point x="236" y="1726" type="curve" smooth="yes"/>
      <point x="236" y="1784"/>
      <point x="269" y="1813"/>
      <point x="330" y="1813" type="curve" smooth="yes"/>
      <point x="380" y="1813"/>
      <point x="420" y="1790"/>
    </contour>
  </outline>
</glyph>
<glyph name="matraAiLengthmark.te" format="2">
  <unicode hex="0C56"/>
  <anchor x="0" y="-57" name="_bottom"/>
  <outline>
    <contour>
      <point x="-202" y="-444" type="curve" smooth="yes"/>
      <point x="238" y="-444" type="line"/>
      <point x="244" y="-411" type="line"/>
      <point x="-128" y="-411" type="line"/>
      <point x="-128" y="-410" type="line"/>
      <point x="-97" y="-395"/>
      <point x="-84" y="-360"/>
      <point x="-84" y="-308" type="curve" smooth="yes"/>
      <point x="-84" y="-249" type="line" smooth="yes"/>
      <point x="-84" y="-159"/>
      <point x="-124" y="-113"/>
      <point x="-201" y="-113" type="curve" smooth="yes"/>
      <point x="-278" y="-113"/>
      <point x="-319" y="-159"/>
      <point x="-319" y="-249" type="curve" smooth="yes"/>
      <point x="-319" y="-308" type="line" smooth="yes"/>
      <point x="-319" y="-398"/>
      <point x="-277" y="-444"/>
    </contour>
    <contour>
      <point x="-201" y="-411" type="curve" smooth="yes"/>
      <point x="-255" y="-411"/>
      <point x="-282" y="-376"/>
      <point x="-282" y="-309" type="curve" smooth="yes"/>
      <point x="-282" y="-248" type="line" smooth="yes"/>
      <point x="-282" y="-181"/>
      <point x="-255" y="-146"/>
      <point x="-201" y="-146" type="curve" smooth="yes"/>
      <point x="-147" y="-146"/>
      <point x="-120" y="-181"/>
      <point x="-120" y="-248" type="curve" smooth="yes"/>
      <point x="-120" y="-309" type="line" smooth="yes"/>
      <point x="-120" y="-376"/>
      <point x="-147" y="-411"/>
    </contour>
  </outline>
</glyph>
<glyph name="Tsa.te" format="2">
  <advance width="861"/>
  <unicode hex="0C58"/>
  <anchor x="437" y="-67" name="bottom"/>
  <outline>
    <contour>
      <point x="41" y="1478" type="line"/>
      <point x="424" y="1478" type="line" smooth="yes"/>
      <point x="501" y="1478"/>
      <point x="534" y="1532"/>
      <point x="534" y="1608" type="curve" smooth="yes"/>
      <point x="534" y="1630" type="line" smooth="yes"/>
      <point x="534" y="1718"/>
      <point x="494" y="1761"/>
      <point x="423" y="1761" type="curve" smooth="yes"/>
      <point x="353" y="1761"/>
      <point x="312" y="1718"/>
      <point x="312" y="1630" type="curve" smooth="yes"/>
      <point x="312" y="1608" type="line" smooth="yes"/>
      <point x="312" y="1555"/>
      <point x="327" y="1528"/>
      <point x="354" y="1512" type="curve"/>
      <point x="354" y="1511" type="line"/>
      <point x="35" y="1511" type="line"/>
    </contour>
    <contour>
      <point x="426" y="1510" type="curve"/>
      <point x="376" y="1510"/>
      <point x="349" y="1540"/>
      <point x="349" y="1608" type="curve" smooth="yes"/>
      <point x="349" y="1630" type="line" smooth="yes"/>
      <point x="349" y="1697"/>
      <point x="373" y="1728"/>
      <point x="423" y="1728" type="curve" smooth="yes"/>
      <point x="473" y="1728"/>
      <point x="497" y="1697"/>
      <point x="497" y="1630" type="curve" smooth="yes"/>
      <point x="497" y="1608" type="line" smooth="yes"/>
      <point x="497" y="1540"/>
      <point x="472" y="1510"/>
    </contour>
    <component base="Ca.te" xOffset="8"/>
  </outline>
</glyph>
<glyph name="Dza.te" format="2">
  <advance width="817"/>
  <unicode hex="0C59"/>
  <anchor x="411" y="-66" name="bottom"/>
  <outline>
    <contour>
      <point x="138" y="1328" type="line"/>
      <point x="606" y="1328" type="line" smooth="yes"/>
      <point x="683" y="1328"/>
      <point x="716" y="1382"/>
      <point x="716" y="1458" type="curve" smooth="yes"/>
      <point x="716" y="1480" type="line" smooth="yes"/>
      <point x="716" y="1568"/>
      <point x="676" y="1611"/>
      <point x="605" y="1611" type="curve" smooth="yes"/>
      <point x="535" y="1611"/>
      <point x="494" y="1568"/>
      <point x="494" y="1480" type="curve" smooth="yes"/>
      <point x="494" y="1458" type="line" smooth="yes"/>
      <point x="494" y="1405"/>
      <point x="509" y="1378"/>
      <point x="536" y="1362" type="curve"/>
      <point x="536" y="1361" type="line"/>
      <point x="132" y="1361" type="line"/>
    </contour>
    <contour>
      <point x="608" y="1360" type="curve"/>
      <point x="558" y="1360"/>
      <point x="531" y="1390"/>
      <point x="531" y="1458" type="curve" smooth="yes"/>
      <point x="531" y="1480" type="line" smooth="yes"/>
      <point x="531" y="1547"/>
      <point x="555" y="1578"/>
      <point x="605" y="1578" type="curve" smooth="yes"/>
      <point x="655" y="1578"/>
      <point x="679" y="1547"/>
      <point x="679" y="1480" type="curve" smooth="yes"/>
      <point x="679" y="1458" type="line" smooth="yes"/>
      <point x="679" y="1390"/>
      <point x="654" y="1360"/>
    </contour>
    <component base="Ja.te"/>
  </outline>
</glyph>
<glyph name="Rrr.te" format="2">
  <advance width="854"/>
  <unicode hex="0C5A"/>
  <outline>
    <contour>
      <point x="129" y="650" type="line"/>
      <point x="723" y="650" type="line"/>
      <point x="723" y="683" type="line"/>
      <point x="129" y="683" type="line"/>
    </contour>
    <contour>
      <point x="276" y="-11" type="curve" smooth="yes"/>
      <point x="382" y="-11"/>
      <point x="421" y="68"/>
      <point x="426" y="132" type="curve"/>
      <point x="428" y="132" type="line"/>
      <point x="433" y="68"/>
      <point x="472" y="-11"/>
      <point x="578" y="-11" type="curve" smooth="yes"/>
      <point x="685" y="-11"/>
      <point x="744" y="63"/>
      <point x="744" y="208" type="curve" smooth="yes"/>
      <point x="744" y="782" type="line" smooth="yes"/>
      <point x="744" y="1044"/>
      <point x="638" y="1174"/>
      <point x="427" y="1174" type="curve" smooth="yes"/>
      <point x="216" y="1174"/>
      <point x="110" y="1044"/>
      <point x="110" y="782" type="curve" smooth="yes"/>
      <point x="110" y="208" type="line" smooth="yes"/>
      <point x="110" y="63"/>
      <point x="169" y="-11"/>
    </contour>
    <contour>
      <point x="278" y="22" type="curve" smooth="yes"/>
      <point x="188" y="22"/>
      <point x="147" y="86"/>
      <point x="147" y="212" type="curve" smooth="yes"/>
      <point x="147" y="782" type="line" smooth="yes"/>
      <point x="147" y="1023"/>
      <point x="238" y="1141"/>
      <point x="427" y="1141" type="curve" smooth="yes"/>
      <point x="616" y="1141"/>
      <point x="707" y="1023"/>
      <point x="707" y="782" type="curve" smooth="yes"/>
      <point x="707" y="212" type="line" smooth="yes"/>
      <point x="707" y="86"/>
      <point x="666" y="22"/>
      <point x="576" y="22" type="curve" smooth="yes"/>
      <point x="488" y="22"/>
      <point x="448" y="86"/>
      <point x="446" y="212" type="curve" smooth="yes"/>
      <point x="443" y="432" type="line"/>
      <point x="411" y="432" type="line"/>
      <point x="408" y="212" type="line" smooth="yes"/>
      <point x="406" y="86"/>
      <point x="366" y="22"/>
    </contour>
  </outline>
</glyph>
<glyph name="vowelVocalicRr.te" format="2">
  <advance width="2009"/>
  <unicode hex="0C60"/>
  <anchor x="416" y="0" name="_bottom"/>
  <outline>
    <contour>
      <point x="257" y="-11" type="curve" smooth="yes"/>
      <point x="366" y="-11"/>
      <point x="404" y="64"/>
      <point x="410" y="134" type="curve"/>
      <point x="412" y="134" type="line"/>
      <point x="418" y="64"/>
      <point x="456" y="-11"/>
      <point x="565" y="-11" type="curve" smooth="yes"/>
      <point x="664" y="-11"/>
      <point x="714" y="64"/>
      <point x="721" y="151" type="curve"/>
      <point x="727" y="169"/>
      <point x="732" y="190"/>
      <point x="732" y="210" type="curve" smooth="yes"/>
      <point x="732" y="679" type="line"/>
      <point x="695" y="679" type="line"/>
      <point x="695" y="213" type="line" smooth="yes"/>
      <point x="695" y="98"/>
      <point x="660" y="22"/>
      <point x="563" y="22" type="curve" smooth="yes"/>
      <point x="462" y="22"/>
      <point x="432" y="98"/>
      <point x="430" y="213" type="curve" smooth="yes"/>
      <point x="427" y="432" type="line"/>
      <point x="395" y="432" type="line"/>
      <point x="392" y="213" type="line" smooth="yes"/>
      <point x="390" y="98"/>
      <point x="360" y="22"/>
      <point x="259" y="22" type="curve" smooth="yes"/>
      <point x="162" y="22"/>
      <point x="127" y="98"/>
      <point x="127" y="213" type="curve" smooth="yes"/>
      <point x="127" y="294" type="line" smooth="yes"/>
      <point x="127" y="434"/>
      <point x="160" y="508"/>
      <point x="270" y="613" type="curve" smooth="yes"/>
      <point x="367" y="706"/>
      <point x="418" y="786"/>
      <point x="418" y="929" type="curve" smooth="yes"/>
      <point x="418" y="977" type="line" smooth="yes"/>
      <point x="418" y="1114"/>
      <point x="365" y="1183"/>
      <point x="257" y="1183" type="curve" smooth="yes"/>
      <point x="149" y="1183"/>
      <point x="97" y="1114"/>
      <point x="97" y="977" type="curve" smooth="yes"/>
      <point x="97" y="903" type="line" smooth="yes"/>
      <point x="97" y="828"/>
      <point x="109" y="765"/>
      <point x="132" y="710" type="curve"/>
      <point x="169" y="710" type="line"/>
      <point x="146" y="769"/>
      <point x="134" y="835"/>
      <point x="134" y="903" type="curve" smooth="yes"/>
      <point x="134" y="977" type="line" smooth="yes"/>
      <point x="134" y="1093"/>
      <point x="173" y="1150"/>
      <point x="257" y="1150" type="curve" smooth="yes"/>
      <point x="341" y="1150"/>
      <point x="381" y="1093"/>
      <point x="381" y="977" type="curve" smooth="yes"/>
      <point x="381" y="929" type="line" smooth="yes"/>
      <point x="381" y="802"/>
      <point x="344" y="732"/>
      <point x="243" y="635" type="curve" smooth="yes"/>
      <point x="123" y="519"/>
      <point x="90" y="440"/>
      <point x="90" y="294" type="curve" smooth="yes"/>
      <point x="90" y="212" type="line" smooth="yes"/>
      <point x="90" y="63"/>
      <point x="149" y="-11"/>
    </contour>
    <contour>
      <point x="732" y="221" type="curve"/>
      <point x="732" y="259" type="line"/>
      <point x="708" y="259" type="line"/>
      <point x="708" y="215" type="line"/>
      <point x="708" y="57"/>
      <point x="769" y="-11"/>
      <point x="883" y="-11" type="curve" smooth="yes"/>
      <point x="983" y="-11"/>
      <point x="1040" y="46"/>
      <point x="1056" y="155" type="curve"/>
      <point x="1065" y="177"/>
      <point x="1069" y="195"/>
      <point x="1069" y="221" type="curve" smooth="yes"/>
      <point x="1069" y="633" type="line"/>
      <point x="1032" y="633" type="line"/>
      <point x="1032" y="224" type="line" smooth="yes"/>
      <point x="1032" y="92"/>
      <point x="984" y="22"/>
      <point x="881" y="22" type="curve" smooth="yes"/>
      <point x="780" y="22"/>
      <point x="732" y="92"/>
    </contour>
    <contour>
      <point x="1220" y="-11" type="curve" smooth="yes"/>
      <point x="1345" y="-11"/>
      <point x="1406" y="72"/>
      <point x="1406" y="224" type="curve" smooth="yes"/>
      <point x="1406" y="585" type="line"/>
      <point x="1369" y="585" type="line"/>
      <point x="1369" y="224" type="line" smooth="yes"/>
      <point x="1369" y="92"/>
      <point x="1321" y="22"/>
      <point x="1218" y="22" type="curve" smooth="yes"/>
      <point x="1117" y="22"/>
      <point x="1069" y="92"/>
      <point x="1069" y="219" type="curve"/>
      <point x="1069" y="224" type="line"/>
      <point x="1053" y="224" type="line"/>
      <point x="1053" y="155" type="line"/>
      <point x="1053" y="74"/>
      <point x="1103" y="-11"/>
    </contour>
    <contour>
      <point x="1369" y="523" type="line"/>
      <point x="1406" y="523" type="line"/>
      <point x="1406" y="898" type="line" smooth="yes"/>
      <point x="1406" y="1075"/>
      <point x="1339" y="1156"/>
      <point x="1222" y="1163" type="curve"/>
      <point x="1214" y="1174" type="line"/>
      <point x="1209" y="1141" type="line"/>
      <point x="1211" y="1141" type="line" smooth="yes"/>
      <point x="1312" y="1141"/>
      <point x="1369" y="1060"/>
      <point x="1369" y="898" type="curve" smooth="yes"/>
    </contour>
    <contour>
      <point x="1744" y="278" type="curve" smooth="yes"/>
      <point x="1850" y="278"/>
      <point x="1899" y="344"/>
      <point x="1899" y="473" type="curve" smooth="yes"/>
      <point x="1899" y="841" type="line" smooth="yes"/>
      <point x="1899" y="1056"/>
      <point x="1809" y="1174"/>
      <point x="1611" y="1174" type="curve" smooth="yes"/>
      <point x="1214" y="1174" type="line"/>
      <point x="1214" y="1146" type="line"/>
      <point x="1381" y="1141" type="line"/>
      <point x="1608" y="1141" type="line" smooth="yes"/>
      <point x="1783" y="1141"/>
      <point x="1862" y="1036"/>
      <point x="1862" y="841" type="curve" smooth="yes"/>
      <point x="1862" y="813" type="line"/>
      <point x="1856" y="813" type="line"/>
      <point x="1862" y="791" type="line"/>
      <point x="1862" y="473" type="line" smooth="yes"/>
      <point x="1862" y="362"/>
      <point x="1823" y="311"/>
      <point x="1744" y="311" type="curve" smooth="yes"/>
      <point x="1665" y="311"/>
      <point x="1626" y="362"/>
      <point x="1626" y="473" type="curve" smooth="yes"/>
      <point x="1626" y="707" type="line" smooth="yes"/>
      <point x="1626" y="819"/>
      <point x="1661" y="874"/>
      <point x="1744" y="874" type="curve" smooth="yes"/>
      <point x="1801" y="874"/>
      <point x="1843" y="841"/>
      <point x="1864" y="773" type="curve"/>
      <point x="1876" y="782" type="line"/>
      <point x="1865" y="854"/>
      <point x="1818" y="907"/>
      <point x="1742" y="907" type="curve" smooth="yes"/>
      <point x="1637" y="907"/>
      <point x="1589" y="839"/>
      <point x="1589" y="710" type="curve" smooth="yes"/>
      <point x="1589" y="473" type="line" smooth="yes"/>
      <point x="1589" y="344"/>
      <point x="1639" y="278"/>
    </contour>
    <component base="Terminals.te" xOffset="857"/>
    <component base="Terminals.te" xOffset="520"/>
  </outline>
</glyph>
<glyph name="vowelVocalicLl.te" format="2">
  <advance width="1590"/>
  <unicode hex="0C61"/>
  <outline>
    <contour>
      <point x="686" y="-11" type="curve" smooth="yes"/>
      <point x="895" y="-11"/>
      <point x="987" y="112"/>
      <point x="987" y="370" type="curve" smooth="yes"/>
      <point x="987" y="900" type="line" smooth="yes"/>
      <point x="987" y="1068"/>
      <point x="919" y="1163"/>
      <point x="799" y="1163" type="curve"/>
      <point x="795" y="1174" type="line"/>
      <point x="790" y="1141" type="line"/>
      <point x="791" y="1141" type="line"/>
      <point x="893" y="1141"/>
      <point x="950" y="1060"/>
      <point x="950" y="898" type="curve" smooth="yes"/>
      <point x="950" y="374" type="line" smooth="yes"/>
      <point x="950" y="134"/>
      <point x="869" y="22"/>
      <point x="686" y="22" type="curve" smooth="yes"/>
      <point x="526" y="22"/>
      <point x="438" y="109"/>
      <point x="438" y="267" type="curve" smooth="yes"/>
      <point x="438" y="285" type="line" smooth="yes"/>
      <point x="438" y="421"/>
      <point x="475" y="489"/>
      <point x="609" y="625" type="curve" smooth="yes"/>
      <point x="703" y="719"/>
      <point x="729" y="802"/>
      <point x="729" y="922" type="curve" smooth="yes"/>
      <point x="729" y="960" type="line" smooth="yes"/>
      <point x="729" y="1110"/>
      <point x="670" y="1183"/>
      <point x="560" y="1183" type="curve" smooth="yes"/>
      <point x="451" y="1183"/>
      <point x="410" y="1104"/>
      <point x="405" y="1040" type="curve"/>
      <point x="403" y="1040" type="line"/>
      <point x="398" y="1104"/>
      <point x="359" y="1183"/>
      <point x="250" y="1183" type="curve" smooth="yes"/>
      <point x="144" y="1183"/>
      <point x="85" y="1110"/>
      <point x="85" y="964" type="curve" smooth="yes"/>
      <point x="85" y="859" type="line" smooth="yes"/>
      <point x="85" y="786"/>
      <point x="94" y="721"/>
      <point x="112" y="677" type="curve"/>
      <point x="151" y="677" type="line"/>
      <point x="133" y="721"/>
      <point x="122" y="789"/>
      <point x="122" y="859" type="curve" smooth="yes"/>
      <point x="122" y="960" type="line" smooth="yes"/>
      <point x="122" y="1086"/>
      <point x="162" y="1150"/>
      <point x="252" y="1150" type="curve" smooth="yes"/>
      <point x="344" y="1150"/>
      <point x="383" y="1084"/>
      <point x="385" y="960" type="curve" smooth="yes"/>
      <point x="388" y="716" type="line"/>
      <point x="420" y="716" type="line"/>
      <point x="423" y="960" type="line" smooth="yes"/>
      <point x="425" y="1084"/>
      <point x="466" y="1150"/>
      <point x="558" y="1150" type="curve" smooth="yes"/>
      <point x="652" y="1150"/>
      <point x="692" y="1086"/>
      <point x="692" y="957" type="curve" smooth="yes"/>
      <point x="692" y="922" type="line" smooth="yes"/>
      <point x="692" y="823"/>
      <point x="683" y="747"/>
      <point x="580" y="646" type="curve" smooth="yes"/>
      <point x="440" y="508"/>
      <point x="401" y="425"/>
      <point x="401" y="285" type="curve" smooth="yes"/>
      <point x="401" y="265" type="line" smooth="yes"/>
      <point x="401" y="86"/>
      <point x="502" y="-11"/>
    </contour>
    <contour>
      <point x="1325" y="278" type="curve" smooth="yes"/>
      <point x="1426" y="278"/>
      <point x="1480" y="344"/>
      <point x="1480" y="484" type="curve" smooth="yes"/>
      <point x="1480" y="870" type="line" smooth="yes"/>
      <point x="1480" y="1073"/>
      <point x="1362" y="1174"/>
      <point x="1174" y="1174" type="curve" smooth="yes"/>
      <point x="795" y="1174" type="line"/>
      <point x="795" y="1146" type="line"/>
      <point x="963" y="1141" type="line"/>
      <point x="1171" y="1141" type="line" smooth="yes"/>
      <point x="1338" y="1141"/>
      <point x="1443" y="1056"/>
      <point x="1443" y="870" type="curve" smooth="yes"/>
      <point x="1443" y="771" type="line"/>
      <point x="1441" y="771" type="line"/>
      <point x="1443" y="769" type="line"/>
      <point x="1443" y="486" type="line" smooth="yes"/>
      <point x="1443" y="366"/>
      <point x="1406" y="311"/>
      <point x="1325" y="311" type="curve" smooth="yes"/>
      <point x="1244" y="311"/>
      <point x="1207" y="366"/>
      <point x="1207" y="486" type="curve" smooth="yes"/>
      <point x="1207" y="694" type="line" smooth="yes"/>
      <point x="1207" y="800"/>
      <point x="1252" y="843"/>
      <point x="1316" y="843" type="curve" smooth="yes"/>
      <point x="1379" y="843"/>
      <point x="1421" y="800"/>
      <point x="1447" y="725" type="curve"/>
      <point x="1450" y="754" type="line"/>
      <point x="1434" y="824"/>
      <point x="1384" y="876"/>
      <point x="1312" y="876" type="curve" smooth="yes"/>
      <point x="1235" y="876"/>
      <point x="1171" y="822"/>
      <point x="1171" y="696" type="curve" smooth="yes"/>
      <point x="1171" y="484" type="line" smooth="yes"/>
      <point x="1171" y="344"/>
      <point x="1224" y="278"/>
    </contour>
  </outline>
</glyph>
<glyph name="VocalicLsmall1.te" format="2">
  <unicode hex="0C62"/>
  <anchor x="2" y="-11" name="_bottom"/>
  <outline>
    <contour>
      <point x="100" y="-651" type="curve" smooth="yes"/>
      <point x="221" y="-651"/>
      <point x="282" y="-585"/>
      <point x="282" y="-454" type="curve" smooth="yes"/>
      <point x="282" y="-236" type="line" smooth="yes"/>
      <point x="282" y="-145"/>
      <point x="245" y="-98"/>
      <point x="175" y="-98" type="curve" smooth="yes"/>
      <point x="171" y="-98" type="line"/>
      <point x="166" y="-129" type="line"/>
      <point x="171" y="-129" type="line" smooth="yes"/>
      <point x="224" y="-129"/>
      <point x="249" y="-163"/>
      <point x="249" y="-237" type="curve" smooth="yes"/>
      <point x="249" y="-454" type="line" smooth="yes"/>
      <point x="249" y="-566"/>
      <point x="201" y="-620"/>
      <point x="100" y="-620" type="curve" smooth="yes"/>
      <point x="12" y="-620"/>
      <point x="-37" y="-582"/>
      <point x="-37" y="-512" type="curve" smooth="yes"/>
      <point x="-37" y="-506" type="line" smooth="yes"/>
      <point x="-37" y="-459"/>
      <point x="-19" y="-423"/>
      <point x="52" y="-364" type="curve" smooth="yes"/>
      <point x="110" y="-316"/>
      <point x="136" y="-273"/>
      <point x="136" y="-217" type="curve" smooth="yes"/>
      <point x="136" y="-212" type="line" smooth="yes"/>
      <point x="136" y="-138"/>
      <point x="99" y="-98"/>
      <point x="29" y="-98" type="curve" smooth="yes"/>
      <point x="-32" y="-98"/>
      <point x="-69" y="-132"/>
      <point x="-72" y="-193" type="curve"/>
      <point x="-74" y="-193" type="line"/>
      <point x="-77" y="-132"/>
      <point x="-111" y="-98"/>
      <point x="-168" y="-98" type="curve" smooth="yes"/>
      <point x="-238" y="-98"/>
      <point x="-274" y="-143"/>
      <point x="-274" y="-230" type="curve" smooth="yes"/>
      <point x="-274" y="-253" type="line" smooth="yes"/>
      <point x="-274" y="-288"/>
      <point x="-272" y="-321"/>
      <point x="-259" y="-346" type="curve"/>
      <point x="-226" y="-346" type="line"/>
      <point x="-236" y="-319"/>
      <point x="-241" y="-286"/>
      <point x="-241" y="-252" type="curve" smooth="yes"/>
      <point x="-241" y="-230" type="line" smooth="yes"/>
      <point x="-241" y="-160"/>
      <point x="-218" y="-129"/>
      <point x="-167" y="-129" type="curve" smooth="yes"/>
      <point x="-123" y="-129"/>
      <point x="-92" y="-163"/>
      <point x="-91" y="-224" type="curve" smooth="yes"/>
      <point x="-89" y="-320" type="line"/>
      <point x="-57" y="-320" type="line"/>
      <point x="-55" y="-224" type="line" smooth="yes"/>
      <point x="-54" y="-163"/>
      <point x="-24" y="-129"/>
      <point x="27" y="-129" type="curve" smooth="yes"/>
      <point x="80" y="-129"/>
      <point x="104" y="-157"/>
      <point x="104" y="-212" type="curve" smooth="yes"/>
      <point x="104" y="-217" type="line" smooth="yes"/>
      <point x="104" y="-262"/>
      <point x="81" y="-299"/>
      <point x="29" y="-344" type="curve" smooth="yes"/>
      <point x="-43" y="-406"/>
      <point x="-70" y="-445"/>
      <point x="-70" y="-506" type="curve" smooth="yes"/>
      <point x="-70" y="-512" type="line" smooth="yes"/>
      <point x="-70" y="-601"/>
      <point x="-7" y="-651"/>
    </contour>
  </outline>
</glyph>
<glyph name="VocalicLlsmall1.te" format="2">
  <unicode hex="0C63"/>
  <anchor x="102" y="-11" name="_bottom"/>
  <outline>
    <contour>
      <point x="100" y="-651" type="curve" smooth="yes"/>
      <point x="221" y="-651"/>
      <point x="282" y="-585"/>
      <point x="282" y="-454" type="curve" smooth="yes"/>
      <point x="282" y="-236" type="line" smooth="yes"/>
      <point x="282" y="-153"/>
      <point x="245" y="-111"/>
      <point x="175" y="-111" type="curve"/>
      <point x="171" y="-98" type="line"/>
      <point x="166" y="-129" type="line"/>
      <point x="171" y="-129" type="line" smooth="yes"/>
      <point x="224" y="-129"/>
      <point x="249" y="-163"/>
      <point x="249" y="-237" type="curve" smooth="yes"/>
      <point x="249" y="-454" type="line" smooth="yes"/>
      <point x="249" y="-566"/>
      <point x="201" y="-620"/>
      <point x="100" y="-620" type="curve" smooth="yes"/>
      <point x="12" y="-620"/>
      <point x="-37" y="-582"/>
      <point x="-37" y="-512" type="curve" smooth="yes"/>
      <point x="-37" y="-506" type="line" smooth="yes"/>
      <point x="-37" y="-459"/>
      <point x="-19" y="-423"/>
      <point x="52" y="-364" type="curve" smooth="yes"/>
      <point x="110" y="-316"/>
      <point x="136" y="-273"/>
      <point x="136" y="-217" type="curve" smooth="yes"/>
      <point x="136" y="-212" type="line" smooth="yes"/>
      <point x="136" y="-138"/>
      <point x="99" y="-98"/>
      <point x="29" y="-98" type="curve" smooth="yes"/>
      <point x="-32" y="-98"/>
      <point x="-69" y="-132"/>
      <point x="-72" y="-193" type="curve"/>
      <point x="-74" y="-193" type="line"/>
      <point x="-77" y="-132"/>
      <point x="-111" y="-98"/>
      <point x="-168" y="-98" type="curve" smooth="yes"/>
      <point x="-238" y="-98"/>
      <point x="-274" y="-143"/>
      <point x="-274" y="-230" type="curve" smooth="yes"/>
      <point x="-274" y="-253" type="line" smooth="yes"/>
      <point x="-274" y="-288"/>
      <point x="-272" y="-321"/>
      <point x="-259" y="-346" type="curve"/>
      <point x="-226" y="-346" type="line"/>
      <point x="-236" y="-319"/>
      <point x="-241" y="-286"/>
      <point x="-241" y="-252" type="curve" smooth="yes"/>
      <point x="-241" y="-230" type="line" smooth="yes"/>
      <point x="-241" y="-160"/>
      <point x="-218" y="-129"/>
      <point x="-167" y="-129" type="curve" smooth="yes"/>
      <point x="-123" y="-129"/>
      <point x="-92" y="-163"/>
      <point x="-91" y="-224" type="curve" smooth="yes"/>
      <point x="-89" y="-320" type="line"/>
      <point x="-57" y="-320" type="line"/>
      <point x="-55" y="-224" type="line" smooth="yes"/>
      <point x="-54" y="-163"/>
      <point x="-24" y="-129"/>
      <point x="27" y="-129" type="curve" smooth="yes"/>
      <point x="80" y="-129"/>
      <point x="104" y="-157"/>
      <point x="104" y="-212" type="curve" smooth="yes"/>
      <point x="104" y="-217" type="line" smooth="yes"/>
      <point x="104" y="-262"/>
      <point x="81" y="-299"/>
      <point x="29" y="-344" type="curve" smooth="yes"/>
      <point x="-43" y="-406"/>
      <point x="-70" y="-445"/>
      <point x="-70" y="-506" type="curve" smooth="yes"/>
      <point x="-70" y="-512" type="line" smooth="yes"/>
      <point x="-70" y="-601"/>
      <point x="-7" y="-651"/>
    </contour>
    <contour>
      <point x="456" y="-547" type="curve" smooth="yes"/>
      <point x="514" y="-547"/>
      <point x="547" y="-510"/>
      <point x="547" y="-440" type="curve" smooth="yes"/>
      <point x="547" y="-262" type="line" smooth="yes"/>
      <point x="547" y="-151"/>
      <point x="495" y="-98"/>
      <point x="392" y="-98" type="curve" smooth="yes"/>
      <point x="171" y="-98" type="line"/>
      <point x="171" y="-123" type="line"/>
      <point x="274" y="-128" type="line"/>
      <point x="392" y="-128" type="line" smooth="yes"/>
      <point x="474" y="-128"/>
      <point x="515" y="-172"/>
      <point x="515" y="-261" type="curve" smooth="yes"/>
      <point x="515" y="-292" type="line"/>
      <point x="509" y="-292" type="line"/>
      <point x="515" y="-313" type="line"/>
      <point x="515" y="-439" type="line" smooth="yes"/>
      <point x="515" y="-490"/>
      <point x="495" y="-516"/>
      <point x="456" y="-516" type="curve" smooth="yes"/>
      <point x="418" y="-516"/>
      <point x="399" y="-489"/>
      <point x="399" y="-439" type="curve" smooth="yes"/>
      <point x="399" y="-364" type="line" smooth="yes"/>
      <point x="399" y="-310"/>
      <point x="419" y="-288"/>
      <point x="455" y="-288" type="curve" smooth="yes"/>
      <point x="488" y="-288"/>
      <point x="508" y="-306"/>
      <point x="520" y="-342" type="curve"/>
      <point x="523" y="-314" type="line"/>
      <point x="516" y="-278"/>
      <point x="490" y="-257"/>
      <point x="453" y="-257" type="curve" smooth="yes"/>
      <point x="400" y="-257"/>
      <point x="367" y="-292"/>
      <point x="367" y="-362" type="curve" smooth="yes"/>
      <point x="367" y="-440" type="line" smooth="yes"/>
      <point x="367" y="-511"/>
      <point x="398" y="-547"/>
    </contour>
  </outline>
</glyph>
<glyph name="zero.te" format="2">
  <advance width="694"/>
  <unicode hex="0C66"/>
  <outline>
    <contour>
      <point x="347" y="-11" type="curve" smooth="yes"/>
      <point x="505" y="-11"/>
      <point x="584" y="94"/>
      <point x="584" y="304" type="curve" smooth="yes"/>
      <point x="584" y="868" type="line" smooth="yes"/>
      <point x="584" y="1078"/>
      <point x="504" y="1183"/>
      <point x="347" y="1183" type="curve" smooth="yes"/>
      <point x="189" y="1183"/>
      <point x="110" y="1078"/>
      <point x="110" y="868" type="curve" smooth="yes"/>
      <point x="110" y="304" type="line" smooth="yes"/>
      <point x="110" y="94"/>
      <point x="190" y="-11"/>
    </contour>
    <contour>
      <point x="347" y="22" type="curve" smooth="yes"/>
      <point x="213" y="22"/>
      <point x="147" y="116"/>
      <point x="147" y="304" type="curve" smooth="yes"/>
      <point x="147" y="868" type="line" smooth="yes"/>
      <point x="147" y="1056"/>
      <point x="213" y="1150"/>
      <point x="347" y="1150" type="curve" smooth="yes"/>
      <point x="481" y="1150"/>
      <point x="547" y="1056"/>
      <point x="547" y="868" type="curve" smooth="yes"/>
      <point x="547" y="304" type="line" smooth="yes"/>
      <point x="547" y="116"/>
      <point x="481" y="22"/>
    </contour>
  </outline>
</glyph>
<glyph name="one.te" format="2">
  <advance width="699"/>
  <unicode hex="0C67"/>
  <outline>
    <contour>
      <point x="472" y="0" type="curve"/>
      <point x="512" y="0" type="line"/>
      <point x="567" y="98"/>
      <point x="584" y="191"/>
      <point x="584" y="313" type="curve" smooth="yes"/>
      <point x="584" y="868" type="line" smooth="yes"/>
      <point x="584" y="1078"/>
      <point x="504" y="1183"/>
      <point x="347" y="1183" type="curve" smooth="yes"/>
      <point x="189" y="1183"/>
      <point x="110" y="1078"/>
      <point x="110" y="868" type="curve" smooth="yes"/>
      <point x="110" y="313" type="line" smooth="yes"/>
      <point x="110" y="191"/>
      <point x="127" y="98"/>
      <point x="182" y="0" type="curve"/>
      <point x="222" y="0" type="line"/>
      <point x="166" y="96"/>
      <point x="147" y="195"/>
      <point x="147" y="313" type="curve" smooth="yes"/>
      <point x="147" y="868" type="line" smooth="yes"/>
      <point x="147" y="1056"/>
      <point x="213" y="1150"/>
      <point x="347" y="1150" type="curve" smooth="yes"/>
      <point x="481" y="1150"/>
      <point x="547" y="1056"/>
      <point x="547" y="868" type="curve" smooth="yes"/>
      <point x="547" y="313" type="line" smooth="yes"/>
      <point x="547" y="195"/>
      <point x="528" y="96"/>
    </contour>
  </outline>
</glyph>
<glyph name="two.te" format="2">
  <advance width="751"/>
  <unicode hex="0C68"/>
  <outline>
    <contour>
      <point x="26" y="0" type="line"/>
      <point x="298" y="0" type="line" smooth="yes"/>
      <point x="550" y="0"/>
      <point x="641" y="116"/>
      <point x="641" y="353" type="curve" smooth="yes"/>
      <point x="641" y="883" type="line" smooth="yes"/>
      <point x="641" y="1087"/>
      <point x="545" y="1179"/>
      <point x="380" y="1179" type="curve" smooth="yes"/>
      <point x="211" y="1179"/>
      <point x="112" y="1087"/>
      <point x="112" y="883" type="curve" smooth="yes"/>
      <point x="112" y="707" type="line" smooth="yes"/>
      <point x="112" y="567"/>
      <point x="168" y="502"/>
      <point x="272" y="502" type="curve" smooth="yes"/>
      <point x="376" y="502"/>
      <point x="433" y="567"/>
      <point x="433" y="707" type="curve" smooth="yes"/>
      <point x="433" y="918" type="line" smooth="yes"/>
      <point x="433" y="1022"/>
      <point x="396" y="1094"/>
      <point x="322" y="1142" type="curve"/>
      <point x="322" y="1160" type="line"/>
      <point x="267" y="1146" type="line"/>
      <point x="364" y="1091"/>
      <point x="396" y="1021"/>
      <point x="396" y="916" type="curve" smooth="yes"/>
      <point x="396" y="707" type="line" smooth="yes"/>
      <point x="396" y="585"/>
      <point x="351" y="536"/>
      <point x="272" y="536" type="curve" smooth="yes"/>
      <point x="193" y="536"/>
      <point x="149" y="585"/>
      <point x="149" y="707" type="curve" smooth="yes"/>
      <point x="149" y="882" type="line" smooth="yes"/>
      <point x="149" y="1057"/>
      <point x="224" y="1146"/>
      <point x="380" y="1146" type="curve" smooth="yes"/>
      <point x="531" y="1146"/>
      <point x="604" y="1057"/>
      <point x="604" y="882" type="curve" smooth="yes"/>
      <point x="604" y="353" type="line" smooth="yes"/>
      <point x="604" y="144"/>
      <point x="532" y="33"/>
      <point x="298" y="33" type="curve" smooth="yes"/>
      <point x="20" y="33" type="line"/>
    </contour>
  </outline>
</glyph>
<glyph name="three.te" format="2">
  <advance width="548"/>
  <unicode hex="0C69"/>
  <outline>
    <contour>
      <point x="247" y="-11" type="curve" smooth="yes"/>
      <point x="368" y="-11"/>
      <point x="438" y="57"/>
      <point x="438" y="241" type="curve" smooth="yes"/>
      <point x="438" y="370" type="line" smooth="yes"/>
      <point x="438" y="504"/>
      <point x="387" y="577"/>
      <point x="281" y="593" type="curve"/>
      <point x="281" y="595" type="line"/>
      <point x="385" y="609"/>
      <point x="435" y="684"/>
      <point x="435" y="818" type="curve" smooth="yes"/>
      <point x="435" y="931" type="line" smooth="yes"/>
      <point x="435" y="1115"/>
      <point x="366" y="1183"/>
      <point x="246" y="1183" type="curve" smooth="yes"/>
      <point x="172" y="1183"/>
      <point x="112" y="1154"/>
      <point x="75" y="1123" type="curve"/>
      <point x="70" y="1077" type="line"/>
      <point x="115" y="1120"/>
      <point x="181" y="1150"/>
      <point x="244" y="1150" type="curve" smooth="yes"/>
      <point x="342" y="1150"/>
      <point x="398" y="1096"/>
      <point x="398" y="929" type="curve" smooth="yes"/>
      <point x="398" y="818" type="line" smooth="yes"/>
      <point x="398" y="686"/>
      <point x="340" y="615"/>
      <point x="238" y="612" type="curve" smooth="yes"/>
      <point x="157" y="610" type="line"/>
      <point x="157" y="577" type="line"/>
      <point x="238" y="575" type="line" smooth="yes"/>
      <point x="342" y="572"/>
      <point x="401" y="501"/>
      <point x="401" y="370" type="curve" smooth="yes"/>
      <point x="401" y="243" type="line" smooth="yes"/>
      <point x="401" y="76"/>
      <point x="344" y="22"/>
      <point x="245" y="22" type="curve" smooth="yes"/>
      <point x="171" y="22"/>
      <point x="113" y="60"/>
      <point x="65" y="117" type="curve"/>
      <point x="70" y="66" type="line"/>
      <point x="108" y="25"/>
      <point x="165" y="-11"/>
    </contour>
  </outline>
</glyph>
<glyph name="four.te" format="2">
  <advance width="694"/>
  <unicode hex="0C6A"/>
  <outline>
    <contour>
      <point x="319" y="406" type="curve"/>
      <point x="344" y="408" type="line"/>
      <point x="369" y="406" type="line"/>
      <point x="531" y="417"/>
      <point x="604" y="535"/>
      <point x="604" y="705" type="curve" smooth="yes"/>
      <point x="604" y="964" type="line" smooth="yes"/>
      <point x="604" y="1095"/>
      <point x="539" y="1174"/>
      <point x="435" y="1174" type="curve" smooth="yes"/>
      <point x="431" y="1174" type="line"/>
      <point x="425" y="1141" type="line"/>
      <point x="427" y="1141" type="line"/>
      <point x="517" y="1141"/>
      <point x="567" y="1080"/>
      <point x="567" y="962" type="curve" smooth="yes"/>
      <point x="567" y="708" type="line" smooth="yes"/>
      <point x="567" y="542"/>
      <point x="501" y="434"/>
      <point x="344" y="434" type="curve" smooth="yes"/>
      <point x="189" y="434"/>
      <point x="127" y="542"/>
      <point x="127" y="708" type="curve" smooth="yes"/>
      <point x="127" y="962" type="line" smooth="yes"/>
      <point x="127" y="1080"/>
      <point x="176" y="1141"/>
      <point x="267" y="1141" type="curve"/>
      <point x="268" y="1141" type="line"/>
      <point x="263" y="1174" type="line"/>
      <point x="259" y="1174" type="line" smooth="yes"/>
      <point x="154" y="1174"/>
      <point x="90" y="1095"/>
      <point x="90" y="964" type="curve" smooth="yes"/>
      <point x="90" y="705" type="line" smooth="yes"/>
      <point x="90" y="536"/>
      <point x="162" y="417"/>
    </contour>
    <contour>
      <point x="347" y="-11" type="curve" smooth="yes"/>
      <point x="459" y="-11"/>
      <point x="520" y="59"/>
      <point x="520" y="185" type="curve" smooth="yes"/>
      <point x="520" y="235" type="line" smooth="yes"/>
      <point x="520" y="367"/>
      <point x="465" y="425"/>
      <point x="348" y="425" type="curve" smooth="yes"/>
      <point x="231" y="425"/>
      <point x="174" y="367"/>
      <point x="174" y="235" type="curve" smooth="yes"/>
      <point x="174" y="185" type="line" smooth="yes"/>
      <point x="174" y="59"/>
      <point x="235" y="-11"/>
    </contour>
    <contour>
      <point x="347" y="22" type="curve" smooth="yes"/>
      <point x="262" y="22"/>
      <point x="211" y="74"/>
      <point x="211" y="187" type="curve" smooth="yes"/>
      <point x="211" y="237" type="line" smooth="yes"/>
      <point x="211" y="349"/>
      <point x="262" y="401"/>
      <point x="348" y="401" type="curve" smooth="yes"/>
      <point x="434" y="401"/>
      <point x="483" y="349"/>
      <point x="483" y="237" type="curve" smooth="yes"/>
      <point x="483" y="187" type="line" smooth="yes"/>
      <point x="483" y="74"/>
      <point x="432" y="22"/>
    </contour>
  </outline>
</glyph>
<glyph name="five.te" format="2">
  <advance width="935"/>
  <unicode hex="0C6B"/>
  <outline>
    <contour>
      <point x="78" y="-11" type="line"/>
      <point x="115" y="-11" type="line"/>
      <point x="115" y="49" type="line" smooth="yes"/>
      <point x="115" y="191"/>
      <point x="172" y="249"/>
      <point x="275" y="309" type="curve" smooth="yes"/>
      <point x="481" y="429" type="line" smooth="yes"/>
      <point x="554" y="472"/>
      <point x="607" y="497"/>
      <point x="663" y="497" type="curve" smooth="yes"/>
      <point x="670" y="497" type="line" smooth="yes"/>
      <point x="739" y="497"/>
      <point x="769" y="447"/>
      <point x="769" y="354" type="curve" smooth="yes"/>
      <point x="769" y="142" type="line" smooth="yes"/>
      <point x="769" y="83"/>
      <point x="779" y="42"/>
      <point x="805" y="-11" type="curve"/>
      <point x="845" y="-11" type="line"/>
      <point x="814" y="44"/>
      <point x="806" y="92"/>
      <point x="806" y="144" type="curve" smooth="yes"/>
      <point x="806" y="355" type="line" smooth="yes"/>
      <point x="806" y="467"/>
      <point x="761" y="530"/>
      <point x="670" y="530" type="curve" smooth="yes"/>
      <point x="663" y="530" type="line" smooth="yes"/>
      <point x="603" y="530"/>
      <point x="543" y="501"/>
      <point x="468" y="458" type="curve" smooth="yes"/>
      <point x="256" y="336" type="line" smooth="yes"/>
      <point x="132" y="265"/>
      <point x="78" y="190"/>
      <point x="78" y="53" type="curve" smooth="yes"/>
    </contour>
    <contour>
      <point x="247" y="326" type="curve"/>
      <point x="286" y="341" type="line"/>
      <point x="313" y="408"/>
      <point x="326" y="469"/>
      <point x="326" y="559" type="curve" smooth="yes"/>
      <point x="326" y="990" type="line" smooth="yes"/>
      <point x="326" y="1122"/>
      <point x="273" y="1183"/>
      <point x="178" y="1183" type="curve" smooth="yes"/>
      <point x="123" y="1183"/>
      <point x="82" y="1161"/>
      <point x="56" y="1139" type="curve"/>
      <point x="50" y="1092" type="line"/>
      <point x="84" y="1127"/>
      <point x="128" y="1150"/>
      <point x="177" y="1150" type="curve" smooth="yes"/>
      <point x="256" y="1150"/>
      <point x="289" y="1096"/>
      <point x="289" y="988" type="curve" smooth="yes"/>
      <point x="289" y="559" type="line" smooth="yes"/>
      <point x="289" y="471"/>
      <point x="280" y="408"/>
    </contour>
    <contour>
      <point x="576" y="504" type="curve"/>
      <point x="608" y="512" type="line"/>
      <point x="556" y="562"/>
      <point x="538" y="619"/>
      <point x="538" y="726" type="curve" smooth="yes"/>
      <point x="538" y="971" type="line" smooth="yes"/>
      <point x="538" y="1092"/>
      <point x="574" y="1150"/>
      <point x="657" y="1150" type="curve" smooth="yes"/>
      <point x="740" y="1150"/>
      <point x="777" y="1092"/>
      <point x="777" y="971" type="curve" smooth="yes"/>
      <point x="777" y="726" type="line" smooth="yes"/>
      <point x="777" y="619"/>
      <point x="759" y="562"/>
      <point x="707" y="512" type="curve"/>
      <point x="738" y="504" type="line"/>
      <point x="790" y="553"/>
      <point x="814" y="612"/>
      <point x="814" y="724" type="curve" smooth="yes"/>
      <point x="814" y="973" type="line" smooth="yes"/>
      <point x="814" y="1117"/>
      <point x="758" y="1183"/>
      <point x="657" y="1183" type="curve" smooth="yes"/>
      <point x="556" y="1183"/>
      <point x="501" y="1117"/>
      <point x="501" y="973" type="curve" smooth="yes"/>
      <point x="501" y="724" type="line" smooth="yes"/>
      <point x="501" y="612"/>
      <point x="525" y="553"/>
    </contour>
  </outline>
</glyph>
<glyph name="six.te" format="2">
  <advance width="699"/>
  <unicode hex="0C6C"/>
  <outline>
    <contour>
      <point x="340" y="0" type="curve" smooth="yes"/>
      <point x="653" y="0" type="line"/>
      <point x="653" y="33" type="line"/>
      <point x="340" y="33" type="line" smooth="yes"/>
      <point x="213" y="33"/>
      <point x="147" y="83"/>
      <point x="147" y="254" type="curve" smooth="yes"/>
      <point x="147" y="362" type="line" smooth="yes"/>
      <point x="147" y="499"/>
      <point x="213" y="568"/>
      <point x="320" y="568" type="curve" smooth="yes"/>
      <point x="504" y="568" type="line"/>
      <point x="504" y="604" type="line"/>
      <point x="320" y="604" type="line" smooth="yes"/>
      <point x="213" y="604"/>
      <point x="151" y="672"/>
      <point x="151" y="810" type="curve" smooth="yes"/>
      <point x="151" y="920" type="line" smooth="yes"/>
      <point x="151" y="1087"/>
      <point x="221" y="1141"/>
      <point x="340" y="1141" type="curve" smooth="yes"/>
      <point x="452" y="1141" type="line"/>
      <point x="447" y="1174" type="line"/>
      <point x="340" y="1174" type="line" smooth="yes"/>
      <point x="195" y="1174"/>
      <point x="114" y="1106"/>
      <point x="114" y="922" type="curve" smooth="yes"/>
      <point x="114" y="806" type="line" smooth="yes"/>
      <point x="114" y="651"/>
      <point x="184" y="600"/>
      <point x="270" y="587" type="curve"/>
      <point x="270" y="585" type="line"/>
      <point x="182" y="572"/>
      <point x="110" y="521"/>
      <point x="110" y="366" type="curve" smooth="yes"/>
      <point x="110" y="252" type="line" smooth="yes"/>
      <point x="110" y="66"/>
      <point x="185" y="0"/>
    </contour>
  </outline>
</glyph>
<glyph name="seven.te" format="2">
  <advance width="603"/>
  <unicode hex="0C6D"/>
  <outline>
    <contour>
      <point x="522" y="78" type="curve"/>
      <point x="526" y="131" type="line"/>
      <point x="485" y="74"/>
      <point x="422" y="22"/>
      <point x="324" y="22" type="curve" smooth="yes"/>
      <point x="206" y="22"/>
      <point x="137" y="95"/>
      <point x="137" y="247" type="curve" smooth="yes"/>
      <point x="137" y="283" type="line" smooth="yes"/>
      <point x="137" y="422"/>
      <point x="176" y="494"/>
      <point x="314" y="611" type="curve" smooth="yes"/>
      <point x="444" y="721"/>
      <point x="488" y="798"/>
      <point x="488" y="913" type="curve" smooth="yes"/>
      <point x="488" y="946" type="line" smooth="yes"/>
      <point x="488" y="1102"/>
      <point x="424" y="1183"/>
      <point x="298" y="1183" type="curve" smooth="yes"/>
      <point x="214" y="1183"/>
      <point x="154" y="1144"/>
      <point x="118" y="1110" type="curve"/>
      <point x="113" y="1060" type="line"/>
      <point x="157" y="1108"/>
      <point x="225" y="1150"/>
      <point x="298" y="1150" type="curve" smooth="yes"/>
      <point x="401" y="1150"/>
      <point x="451" y="1079"/>
      <point x="451" y="946" type="curve" smooth="yes"/>
      <point x="451" y="913" type="line" smooth="yes"/>
      <point x="451" y="808"/>
      <point x="412" y="740"/>
      <point x="290" y="635" type="curve" smooth="yes"/>
      <point x="142" y="507"/>
      <point x="100" y="430"/>
      <point x="100" y="283" type="curve" smooth="yes"/>
      <point x="100" y="247" type="line" smooth="yes"/>
      <point x="100" y="74"/>
      <point x="182" y="-11"/>
      <point x="324" y="-11" type="curve" smooth="yes"/>
      <point x="423" y="-11"/>
      <point x="491" y="37"/>
    </contour>
  </outline>
</glyph>
<glyph name="eight.te" format="2">
  <advance width="703"/>
  <unicode hex="0C6E"/>
  <outline>
    <contour>
      <point x="347" y="-11" type="curve" smooth="yes"/>
      <point x="505" y="-11"/>
      <point x="584" y="94"/>
      <point x="584" y="304" type="curve" smooth="yes"/>
      <point x="584" y="865" type="line" smooth="yes"/>
      <point x="584" y="1019"/>
      <point x="553" y="1091"/>
      <point x="488" y="1144" type="curve"/>
      <point x="488" y="1146" type="line"/>
      <point x="648" y="1146" type="line"/>
      <point x="643" y="1179" type="line"/>
      <point x="413" y="1174" type="line"/>
      <point x="413" y="1144" type="line"/>
      <point x="459" y="1141" type="line"/>
      <point x="527" y="1076"/>
      <point x="547" y="1006"/>
      <point x="547" y="868" type="curve" smooth="yes"/>
      <point x="547" y="304" type="line" smooth="yes"/>
      <point x="547" y="116"/>
      <point x="481" y="22"/>
      <point x="347" y="22" type="curve" smooth="yes"/>
      <point x="213" y="22"/>
      <point x="147" y="116"/>
      <point x="147" y="304" type="curve" smooth="yes"/>
      <point x="147" y="861" type="line" smooth="yes"/>
      <point x="147" y="979"/>
      <point x="167" y="1079"/>
      <point x="223" y="1174" type="curve"/>
      <point x="182" y="1174" type="line"/>
      <point x="127" y="1075"/>
      <point x="110" y="983"/>
      <point x="110" y="858" type="curve" smooth="yes"/>
      <point x="110" y="304" type="line" smooth="yes"/>
      <point x="110" y="94"/>
      <point x="190" y="-11"/>
    </contour>
  </outline>
</glyph>
<glyph name="zerosuperior" format="2">
  <advance width="382"/>
  <unicode hex="2070"/>
  <outline>
    <contour>
      <point x="190" y="689" type="curve" smooth="yes"/>
      <point x="279" y="689"/>
      <point x="322" y="742"/>
      <point x="322" y="845" type="curve"/>
      <point x="322" y="1235" type="line"/>
      <point x="322" y="1338"/>
      <point x="279" y="1391"/>
      <point x="190" y="1391" type="curve" smooth="yes"/>
      <point x="103" y="1391"/>
      <point x="60" y="1339"/>
      <point x="60" y="1235" type="curve"/>
      <point x="60" y="845" type="line"/>
      <point x="60" y="741"/>
      <point x="103" y="689"/>
    </contour>
    <contour>
      <point x="190" y="720" type="curve" smooth="yes"/>
      <point x="126" y="720"/>
      <point x="95" y="761"/>
      <point x="95" y="844" type="curve" smooth="yes"/>
      <point x="95" y="1238" type="line" smooth="yes"/>
      <point x="95" y="1293"/>
      <point x="107" y="1361"/>
      <point x="190" y="1361" type="curve" smooth="yes"/>
      <point x="256" y="1361"/>
      <point x="287" y="1320"/>
      <point x="287" y="1238" type="curve" smooth="yes"/>
      <point x="287" y="844" type="line" smooth="yes"/>
      <point x="287" y="762"/>
      <point x="256" y="720"/>
    </contour>
  </outline>
</glyph>
<glyph name="BaHalant.te" format="2">
  <advance width="842"/>
  <anchor x="410" y="-66" name="bottom"/>
  <outline>
    <contour>
      <point x="257" y="-11" type="curve" smooth="yes"/>
      <point x="366" y="-11"/>
      <point x="404" y="64"/>
      <point x="410" y="134" type="curve"/>
      <point x="412" y="134" type="line"/>
      <point x="418" y="64"/>
      <point x="456" y="-11"/>
      <point x="565" y="-11" type="curve" smooth="yes"/>
      <point x="673" y="-11"/>
      <point x="732" y="63"/>
      <point x="732" y="210" type="curve" smooth="yes"/>
      <point x="732" y="679" type="line"/>
      <point x="695" y="679" type="line"/>
      <point x="695" y="213" type="line" smooth="yes"/>
      <point x="695" y="98"/>
      <point x="660" y="22"/>
      <point x="563" y="22" type="curve" smooth="yes"/>
      <point x="462" y="22"/>
      <point x="432" y="98"/>
      <point x="430" y="213" type="curve" smooth="yes"/>
      <point x="427" y="432" type="line"/>
      <point x="395" y="432" type="line"/>
      <point x="392" y="213" type="line" smooth="yes"/>
      <point x="390" y="98"/>
      <point x="360" y="22"/>
      <point x="259" y="22" type="curve" smooth="yes"/>
      <point x="162" y="22"/>
      <point x="127" y="98"/>
      <point x="127" y="213" type="curve" smooth="yes"/>
      <point x="127" y="294" type="line" smooth="yes"/>
      <point x="127" y="434"/>
      <point x="160" y="508"/>
      <point x="270" y="613" type="curve" smooth="yes"/>
      <point x="367" y="706"/>
      <point x="418" y="786"/>
      <point x="418" y="929" type="curve" smooth="yes"/>
      <point x="418" y="977" type="line" smooth="yes"/>
      <point x="418" y="1114"/>
      <point x="366" y="1183"/>
      <point x="257" y="1183" type="curve" smooth="yes"/>
      <point x="149" y="1183"/>
      <point x="97" y="1114"/>
      <point x="97" y="977" type="curve" smooth="yes"/>
      <point x="97" y="903" type="line" smooth="yes"/>
      <point x="97" y="828"/>
      <point x="108" y="765"/>
      <point x="132" y="710" type="curve"/>
      <point x="169" y="710" type="line"/>
      <point x="145" y="769"/>
      <point x="134" y="835"/>
      <point x="134" y="903" type="curve" smooth="yes"/>
      <point x="134" y="977" type="line" smooth="yes"/>
      <point x="134" y="1093"/>
      <point x="173" y="1150"/>
      <point x="257" y="1150" type="curve" smooth="yes"/>
      <point x="342" y="1150"/>
      <point x="381" y="1093"/>
      <point x="381" y="977" type="curve" smooth="yes"/>
      <point x="381" y="929" type="line" smooth="yes"/>
      <point x="381" y="802"/>
      <point x="344" y="732"/>
      <point x="243" y="635" type="curve" smooth="yes"/>
      <point x="123" y="519"/>
      <point x="90" y="440"/>
      <point x="90" y="294" type="curve" smooth="yes"/>
      <point x="90" y="210" type="line" smooth="yes"/>
      <point x="90" y="63"/>
      <point x="149" y="-11"/>
    </contour>
    <contour>
      <point x="578" y="1141" type="curve" smooth="yes"/>
      <point x="663" y="1102"/>
      <point x="695" y="1036"/>
      <point x="695" y="898" type="curve" smooth="yes"/>
      <point x="695" y="523" type="line"/>
      <point x="732" y="523" type="line"/>
      <point x="732" y="900" type="line" smooth="yes"/>
      <point x="732" y="1053"/>
      <point x="695" y="1126"/>
      <point x="594" y="1171" type="curve" smooth="yes"/>
      <point x="522" y="1203"/>
      <point x="483" y="1231"/>
      <point x="483" y="1274" type="curve" smooth="yes"/>
      <point x="483" y="1326"/>
      <point x="522" y="1352"/>
      <point x="596" y="1352" type="curve" smooth="yes"/>
      <point x="778" y="1352" type="line"/>
      <point x="778" y="1385" type="line"/>
      <point x="586" y="1385" type="line" smooth="yes"/>
      <point x="505" y="1385"/>
      <point x="463" y="1417"/>
      <point x="463" y="1478" type="curve" smooth="yes"/>
      <point x="463" y="1539"/>
      <point x="505" y="1571"/>
      <point x="586" y="1571" type="curve" smooth="yes"/>
      <point x="891" y="1571" type="line"/>
      <point x="886" y="1604" type="line"/>
      <point x="586" y="1604" type="line" smooth="yes"/>
      <point x="481" y="1604"/>
      <point x="426" y="1561"/>
      <point x="426" y="1478" type="curve" smooth="yes"/>
      <point x="426" y="1417"/>
      <point x="466" y="1376"/>
      <point x="535" y="1368" type="curve"/>
      <point x="535" y="1366" type="line"/>
      <point x="478" y="1359"/>
      <point x="446" y="1326"/>
      <point x="446" y="1275" type="curve" smooth="yes"/>
      <point x="446" y="1210"/>
      <point x="501" y="1176"/>
    </contour>
  </outline>
</glyph>
<glyph name="BamatraAa.te" format="2">
  <advance width="1336"/>
  <anchor x="410" y="-66" name="bottom"/>
  <outline>
    <contour>
      <point x="257" y="-11" type="curve" smooth="yes"/>
      <point x="366" y="-11"/>
      <point x="404" y="64"/>
      <point x="410" y="134" type="curve"/>
      <point x="412" y="134" type="line"/>
      <point x="418" y="64"/>
      <point x="456" y="-11"/>
      <point x="565" y="-11" type="curve" smooth="yes"/>
      <point x="673" y="-11"/>
      <point x="732" y="63"/>
      <point x="732" y="210" type="curve" smooth="yes"/>
      <point x="732" y="679" type="line"/>
      <point x="695" y="679" type="line"/>
      <point x="695" y="213" type="line" smooth="yes"/>
      <point x="695" y="98"/>
      <point x="660" y="22"/>
      <point x="563" y="22" type="curve" smooth="yes"/>
      <point x="462" y="22"/>
      <point x="432" y="98"/>
      <point x="430" y="213" type="curve" smooth="yes"/>
      <point x="427" y="432" type="line"/>
      <point x="395" y="432" type="line"/>
      <point x="392" y="213" type="line" smooth="yes"/>
      <point x="390" y="98"/>
      <point x="360" y="22"/>
      <point x="259" y="22" type="curve" smooth="yes"/>
      <point x="162" y="22"/>
      <point x="127" y="98"/>
      <point x="127" y="213" type="curve" smooth="yes"/>
      <point x="127" y="294" type="line" smooth="yes"/>
      <point x="127" y="434"/>
      <point x="160" y="508"/>
      <point x="270" y="613" type="curve" smooth="yes"/>
      <point x="367" y="706"/>
      <point x="418" y="786"/>
      <point x="418" y="929" type="curve" smooth="yes"/>
      <point x="418" y="977" type="line" smooth="yes"/>
      <point x="418" y="1114"/>
      <point x="366" y="1183"/>
      <point x="257" y="1183" type="curve" smooth="yes"/>
      <point x="149" y="1183"/>
      <point x="97" y="1114"/>
      <point x="97" y="977" type="curve" smooth="yes"/>
      <point x="97" y="903" type="line" smooth="yes"/>
      <point x="97" y="828"/>
      <point x="108" y="765"/>
      <point x="132" y="710" type="curve"/>
      <point x="169" y="710" type="line"/>
      <point x="145" y="769"/>
      <point x="134" y="835"/>
      <point x="134" y="903" type="curve" smooth="yes"/>
      <point x="134" y="977" type="line" smooth="yes"/>
      <point x="134" y="1093"/>
      <point x="173" y="1150"/>
      <point x="257" y="1150" type="curve" smooth="yes"/>
      <point x="342" y="1150"/>
      <point x="381" y="1093"/>
      <point x="381" y="977" type="curve" smooth="yes"/>
      <point x="381" y="929" type="line" smooth="yes"/>
      <point x="381" y="802"/>
      <point x="344" y="732"/>
      <point x="243" y="635" type="curve" smooth="yes"/>
      <point x="123" y="519"/>
      <point x="90" y="440"/>
      <point x="90" y="294" type="curve" smooth="yes"/>
      <point x="90" y="210" type="line" smooth="yes"/>
      <point x="90" y="63"/>
      <point x="149" y="-11"/>
    </contour>
    <contour>
      <point x="695" y="523" type="line"/>
      <point x="732" y="523" type="line"/>
      <point x="732" y="898" type="line" smooth="yes"/>
      <point x="732" y="1075"/>
      <point x="665" y="1156"/>
      <point x="548" y="1163" type="curve"/>
      <point x="540" y="1174" type="line"/>
      <point x="535" y="1141" type="line"/>
      <point x="537" y="1141" type="line" smooth="yes"/>
      <point x="638" y="1141"/>
      <point x="695" y="1060"/>
      <point x="695" y="898" type="curve" smooth="yes"/>
    </contour>
    <contour>
      <point x="1071" y="278" type="curve" smooth="yes"/>
      <point x="1177" y="278"/>
      <point x="1226" y="344"/>
      <point x="1226" y="473" type="curve" smooth="yes"/>
      <point x="1226" y="841" type="line" smooth="yes"/>
      <point x="1226" y="1056"/>
      <point x="1136" y="1174"/>
      <point x="938" y="1174" type="curve" smooth="yes"/>
      <point x="540" y="1174" type="line"/>
      <point x="540" y="1146" type="line"/>
      <point x="708" y="1141" type="line"/>
      <point x="935" y="1141" type="line" smooth="yes"/>
      <point x="1110" y="1141"/>
      <point x="1189" y="1036"/>
      <point x="1189" y="841" type="curve" smooth="yes"/>
      <point x="1189" y="813" type="line"/>
      <point x="1183" y="813" type="line"/>
      <point x="1189" y="791" type="line"/>
      <point x="1189" y="473" type="line" smooth="yes"/>
      <point x="1189" y="362"/>
      <point x="1150" y="311"/>
      <point x="1071" y="311" type="curve" smooth="yes"/>
      <point x="992" y="311"/>
      <point x="953" y="362"/>
      <point x="953" y="473" type="curve" smooth="yes"/>
      <point x="953" y="707" type="line" smooth="yes"/>
      <point x="953" y="819"/>
      <point x="988" y="874"/>
      <point x="1071" y="874" type="curve" smooth="yes"/>
      <point x="1128" y="874"/>
      <point x="1170" y="841"/>
      <point x="1191" y="773" type="curve"/>
      <point x="1203" y="782" type="line"/>
      <point x="1192" y="854"/>
      <point x="1145" y="907"/>
      <point x="1069" y="907" type="curve" smooth="yes"/>
      <point x="964" y="907"/>
      <point x="916" y="839"/>
      <point x="916" y="710" type="curve" smooth="yes"/>
      <point x="916" y="473" type="line" smooth="yes"/>
      <point x="916" y="344"/>
      <point x="966" y="278"/>
    </contour>
  </outline>
</glyph>
<glyph name="BamatraAu.te" format="2">
  <advance width="1307"/>
  <anchor x="410" y="-66" name="bottom"/>
  <outline>
    <contour>
      <point x="1065" y="1181" type="curve" smooth="yes"/>
      <point x="960" y="1181"/>
      <point x="912" y="1113"/>
      <point x="912" y="984" type="curve" smooth="yes"/>
      <point x="912" y="757" type="line" smooth="yes"/>
      <point x="912" y="628"/>
      <point x="962" y="562"/>
      <point x="1067" y="562" type="curve" smooth="yes"/>
      <point x="1173" y="562"/>
      <point x="1222" y="628"/>
      <point x="1222" y="757" type="curve" smooth="yes"/>
      <point x="1222" y="1115" type="line" smooth="yes"/>
      <point x="1222" y="1330"/>
      <point x="1132" y="1448"/>
      <point x="932" y="1448" type="curve" smooth="yes"/>
      <point x="332" y="1448" type="line"/>
      <point x="327" y="1415" type="line"/>
      <point x="645" y="1415" type="line"/>
      <point x="655" y="1417" type="line"/>
      <point x="745" y="1415" type="line"/>
      <point x="931" y="1415" type="line" smooth="yes"/>
      <point x="1106" y="1415"/>
      <point x="1185" y="1310"/>
      <point x="1185" y="1115" type="curve" smooth="yes"/>
      <point x="1185" y="1087" type="line"/>
      <point x="1179" y="1087" type="line"/>
      <point x="1185" y="1065" type="line"/>
      <point x="1185" y="757" type="line" smooth="yes"/>
      <point x="1185" y="646"/>
      <point x="1146" y="595"/>
      <point x="1067" y="595" type="curve" smooth="yes"/>
      <point x="988" y="595"/>
      <point x="949" y="646"/>
      <point x="949" y="757" type="curve" smooth="yes"/>
      <point x="949" y="981" type="line" smooth="yes"/>
      <point x="949" y="1093"/>
      <point x="984" y="1148"/>
      <point x="1067" y="1148" type="curve" smooth="yes"/>
      <point x="1124" y="1148"/>
      <point x="1166" y="1115"/>
      <point x="1187" y="1047" type="curve"/>
      <point x="1199" y="1056" type="line"/>
      <point x="1188" y="1128"/>
      <point x="1141" y="1181"/>
    </contour>
    <contour>
      <point x="257" y="-11" type="curve" smooth="yes"/>
      <point x="366" y="-11"/>
      <point x="404" y="64"/>
      <point x="410" y="134" type="curve"/>
      <point x="412" y="134" type="line"/>
      <point x="418" y="64"/>
      <point x="456" y="-11"/>
      <point x="565" y="-11" type="curve" smooth="yes"/>
      <point x="673" y="-11"/>
      <point x="732" y="63"/>
      <point x="732" y="210" type="curve" smooth="yes"/>
      <point x="732" y="679" type="line"/>
      <point x="695" y="679" type="line"/>
      <point x="695" y="213" type="line" smooth="yes"/>
      <point x="695" y="98"/>
      <point x="660" y="22"/>
      <point x="563" y="22" type="curve" smooth="yes"/>
      <point x="462" y="22"/>
      <point x="432" y="98"/>
      <point x="430" y="213" type="curve" smooth="yes"/>
      <point x="427" y="432" type="line"/>
      <point x="395" y="432" type="line"/>
      <point x="392" y="213" type="line" smooth="yes"/>
      <point x="390" y="98"/>
      <point x="360" y="22"/>
      <point x="259" y="22" type="curve" smooth="yes"/>
      <point x="162" y="22"/>
      <point x="127" y="98"/>
      <point x="127" y="213" type="curve" smooth="yes"/>
      <point x="127" y="294" type="line" smooth="yes"/>
      <point x="127" y="434"/>
      <point x="160" y="508"/>
      <point x="270" y="613" type="curve" smooth="yes"/>
      <point x="367" y="706"/>
      <point x="418" y="786"/>
      <point x="418" y="929" type="curve" smooth="yes"/>
      <point x="418" y="977" type="line" smooth="yes"/>
      <point x="418" y="1114"/>
      <point x="366" y="1183"/>
      <point x="257" y="1183" type="curve" smooth="yes"/>
      <point x="149" y="1183"/>
      <point x="97" y="1114"/>
      <point x="97" y="977" type="curve" smooth="yes"/>
      <point x="97" y="903" type="line" smooth="yes"/>
      <point x="97" y="828"/>
      <point x="108" y="765"/>
      <point x="132" y="710" type="curve"/>
      <point x="169" y="710" type="line"/>
      <point x="145" y="769"/>
      <point x="134" y="835"/>
      <point x="134" y="903" type="curve" smooth="yes"/>
      <point x="134" y="977" type="line" smooth="yes"/>
      <point x="134" y="1093"/>
      <point x="173" y="1150"/>
      <point x="257" y="1150" type="curve" smooth="yes"/>
      <point x="342" y="1150"/>
      <point x="381" y="1093"/>
      <point x="381" y="977" type="curve" smooth="yes"/>
      <point x="381" y="929" type="line" smooth="yes"/>
      <point x="381" y="802"/>
      <point x="344" y="732"/>
      <point x="243" y="635" type="curve" smooth="yes"/>
      <point x="123" y="519"/>
      <point x="90" y="440"/>
      <point x="90" y="294" type="curve" smooth="yes"/>
      <point x="90" y="210" type="line" smooth="yes"/>
      <point x="90" y="63"/>
      <point x="149" y="-11"/>
    </contour>
    <contour>
      <point x="695" y="523" type="line"/>
      <point x="732" y="523" type="line"/>
      <point x="732" y="900" type="line" smooth="yes"/>
      <point x="732" y="1069"/>
      <point x="666" y="1167"/>
      <point x="548" y="1167" type="curve"/>
      <point x="541" y="1174" type="line"/>
      <point x="535" y="1141" type="line"/>
      <point x="537" y="1141" type="line"/>
      <point x="638" y="1141"/>
      <point x="695" y="1060"/>
      <point x="695" y="898" type="curve" smooth="yes"/>
    </contour>
    <contour>
      <point x="551" y="1148" type="line"/>
      <point x="572" y="1148" type="line" smooth="yes"/>
      <point x="685" y="1148"/>
      <point x="741" y="1198"/>
      <point x="741" y="1295" type="curve" smooth="yes"/>
      <point x="741" y="1389"/>
      <point x="683" y="1436"/>
      <point x="568" y="1436" type="curve" smooth="yes"/>
      <point x="501" y="1436" type="line"/>
      <point x="496" y="1415" type="line"/>
      <point x="568" y="1415" type="line" smooth="yes"/>
      <point x="660" y="1415"/>
      <point x="704" y="1374"/>
      <point x="704" y="1295" type="curve" smooth="yes"/>
      <point x="704" y="1214"/>
      <point x="658" y="1174"/>
      <point x="568" y="1174" type="curve" smooth="yes"/>
      <point x="541" y="1174" type="line"/>
    </contour>
  </outline>
</glyph>
<glyph name="BamatraI.te" format="2">
  <advance width="842"/>
  <anchor x="410" y="-66" name="bottom"/>
  <outline>
    <contour>
      <point x="257" y="-11" type="curve" smooth="yes"/>
      <point x="366" y="-11"/>
      <point x="404" y="64"/>
      <point x="410" y="134" type="curve"/>
      <point x="412" y="134" type="line"/>
      <point x="418" y="64"/>
      <point x="456" y="-11"/>
      <point x="565" y="-11" type="curve" smooth="yes"/>
      <point x="673" y="-11"/>
      <point x="732" y="63"/>
      <point x="732" y="210" type="curve" smooth="yes"/>
      <point x="732" y="1348" type="line" smooth="yes"/>
      <point x="732" y="1552"/>
      <point x="641" y="1674"/>
      <point x="462" y="1674" type="curve" smooth="yes"/>
      <point x="318" y="1674"/>
      <point x="234" y="1616"/>
      <point x="234" y="1499" type="curve" smooth="yes"/>
      <point x="234" y="1477" type="line" smooth="yes"/>
      <point x="234" y="1375"/>
      <point x="286" y="1321"/>
      <point x="382" y="1321" type="curve" smooth="yes"/>
      <point x="477" y="1321"/>
      <point x="529" y="1375"/>
      <point x="529" y="1476" type="curve" smooth="yes"/>
      <point x="529" y="1502" type="line" smooth="yes"/>
      <point x="529" y="1575"/>
      <point x="494" y="1628"/>
      <point x="438" y="1644" type="curve"/>
      <point x="428" y="1647"/>
      <point x="414" y="1650"/>
      <point x="404" y="1650" type="curve" smooth="yes"/>
      <point x="390" y="1650"/>
      <point x="380" y="1647"/>
      <point x="366" y="1644" type="curve"/>
      <point x="460" y="1627"/>
      <point x="493" y="1573"/>
      <point x="493" y="1500" type="curve" smooth="yes"/>
      <point x="493" y="1476" type="line" smooth="yes"/>
      <point x="493" y="1396"/>
      <point x="454" y="1354"/>
      <point x="382" y="1354" type="curve" smooth="yes"/>
      <point x="310" y="1354"/>
      <point x="271" y="1396"/>
      <point x="271" y="1477" type="curve" smooth="yes"/>
      <point x="271" y="1498" type="line" smooth="yes"/>
      <point x="271" y="1598"/>
      <point x="340" y="1642"/>
      <point x="461" y="1642" type="curve" smooth="yes"/>
      <point x="618" y="1642"/>
      <point x="695" y="1540"/>
      <point x="695" y="1346" type="curve" smooth="yes"/>
      <point x="695" y="213" type="line" smooth="yes"/>
      <point x="695" y="98"/>
      <point x="660" y="22"/>
      <point x="563" y="22" type="curve" smooth="yes"/>
      <point x="462" y="22"/>
      <point x="432" y="98"/>
      <point x="430" y="213" type="curve" smooth="yes"/>
      <point x="427" y="432" type="line"/>
      <point x="395" y="432" type="line"/>
      <point x="392" y="213" type="line" smooth="yes"/>
      <point x="390" y="98"/>
      <point x="360" y="22"/>
      <point x="259" y="22" type="curve" smooth="yes"/>
      <point x="162" y="22"/>
      <point x="127" y="98"/>
      <point x="127" y="213" type="curve" smooth="yes"/>
      <point x="127" y="294" type="line" smooth="yes"/>
      <point x="127" y="434"/>
      <point x="160" y="508"/>
      <point x="270" y="613" type="curve" smooth="yes"/>
      <point x="367" y="706"/>
      <point x="418" y="786"/>
      <point x="418" y="929" type="curve" smooth="yes"/>
      <point x="418" y="977" type="line" smooth="yes"/>
      <point x="418" y="1114"/>
      <point x="366" y="1183"/>
      <point x="257" y="1183" type="curve" smooth="yes"/>
      <point x="149" y="1183"/>
      <point x="97" y="1114"/>
      <point x="97" y="977" type="curve" smooth="yes"/>
      <point x="97" y="903" type="line" smooth="yes"/>
      <point x="97" y="828"/>
      <point x="108" y="765"/>
      <point x="132" y="710" type="curve"/>
      <point x="169" y="710" type="line"/>
      <point x="145" y="769"/>
      <point x="134" y="835"/>
      <point x="134" y="903" type="curve" smooth="yes"/>
      <point x="134" y="977" type="line" smooth="yes"/>
      <point x="134" y="1093"/>
      <point x="173" y="1150"/>
      <point x="257" y="1150" type="curve" smooth="yes"/>
      <point x="342" y="1150"/>
      <point x="381" y="1093"/>
      <point x="381" y="977" type="curve" smooth="yes"/>
      <point x="381" y="929" type="line" smooth="yes"/>
      <point x="381" y="802"/>
      <point x="344" y="732"/>
      <point x="243" y="635" type="curve" smooth="yes"/>
      <point x="123" y="519"/>
      <point x="90" y="440"/>
      <point x="90" y="294" type="curve" smooth="yes"/>
      <point x="90" y="210" type="line" smooth="yes"/>
      <point x="90" y="63"/>
      <point x="149" y="-11"/>
    </contour>
  </outline>
</glyph>
